<?xml version="1.0" standalone="no"?>
<!DOCTYPE svg PUBLIC "-//W3C//DTD SVG 1.1//EN" "http://www.w3.org/Graphics/SVG/1.1/DTD/svg11.dtd" >
<svg xmlns="http://www.w3.org/2000/svg">
<metadata>Generated by IcoMoon</metadata>
<defs>
<font id="icon-font" horiz-adv-x="1024">
<font-face units-per-em="1024" ascent="960" descent="-64" />
<missing-glyph horiz-adv-x="1024" />
<glyph unicode="&#x20;" d="" horiz-adv-x="512" />
<glyph unicode="&#x21;" d="M1504.512 588.722c-106.137 0-192.562-86.375-192.562-192.562 0-106.215 86.4-192.562 192.562-192.562 106.19 0 192.562 86.35 192.562 192.562 0 106.19-86.373 192.562-192.562 192.562zM2046.592 784.921h-197.095c0 0-48.562-0.050-78.464 35.431l-68.224 95.488c-15.232 21.248-55.399 38.631-89.319 38.631h-247.040c-34.023 0-74.19-17.383-89.369-38.606l-68.199-95.488c-29.874-35.047-78.898-35.431-78.898-35.431h-178.713c-71.168 0-129.358-58.215-129.358-129.358v-543.001c0-71.143 58.24-129.33 129.358-129.33h1095.374c71.193 0 129.358 58.215 129.358 129.33l-0.002 543.003c-0.025 71.115-58.215 129.33-129.408 129.33zM1504.512 127.666c-148.274 0-268.519 120.242-268.519 268.519 0 148.302 120.27 268.519 268.519 268.519s268.519-120.242 268.519-268.519c0-148.274-120.27-268.519-268.519-268.519zM616.526 507.776h-217.856v217.806c0 33.255-26.983 60.263-60.263 60.263s-60.263-27.008-60.263-60.263v-217.806h-217.881c-33.333 0-60.263-27.058-60.263-60.288s26.958-60.338 60.263-60.338h217.881v-217.778c0-33.28 26.958-60.313 60.238-60.313s60.263 26.905 60.263 60.313v217.778h217.881c33.28 0 60.238 27.033 60.238 60.338-0.027 33.23-26.985 60.288-60.238 60.288z" horiz-adv-x="2176" />
<glyph unicode="&#x22;" d="M1023.616 765.337c-37.554-16.64-78.055-27.982-120.601-33.049 43.367 25.984 76.697 67.175 92.313 116.174-40.626-24.064-85.479-41.55-133.273-50.866-38.297 40.704-92.825 66.226-153.191 66.226-115.918 0-210.048-94.002-210.048-209.998 0-16.409 1.97-32.487 5.529-47.794-174.386 8.729-329.113 92.313-432.718 219.342-17.995-30.953-28.363-66.971-28.363-105.499 0-72.832 37.042-137.063 93.337-174.77-34.354 1.102-66.791 10.546-95.026 26.215 0-0.871 0-1.742 0-2.61 0-101.76 72.398-186.546 168.32-205.849-17.586-4.814-36.121-7.321-55.346-7.321-13.44 0-26.649 1.358-39.449 3.762 26.727-83.456 104.142-144.206 196.121-145.895-71.81-56.194-162.434-89.755-260.738-89.755-16.974 0-33.639 0.999-50.098 2.791 92.85-59.495 203.264-94.311 321.792-94.311 386.151 0 597.326 319.897 597.326 597.351 0 9.063-0.153 18.151-0.537 27.161 40.985 29.671 76.619 66.61 104.651 108.697z" />
<glyph unicode="&#x23;" d="M721.714 687.591h-419.378c-49.433 0-89.856-40.448-89.856-89.856v-569.038c0-49.458 40.423-89.881 89.856-89.881h419.406c49.408 0 89.806 40.423 89.806 89.881l-0.002 569.063c-0.025 49.383-40.423 89.831-89.831 89.831zM392.167 39.961c0-16.537-13.39-29.927-29.952-29.927-16.537 0-29.952 13.39-29.952 29.927v546.56c0 16.537 13.415 29.952 29.952 29.952s29.952-13.39 29.952-29.952v-546.56zM541.927 39.961c0-16.537-13.39-29.927-29.952-29.927s-29.952 13.39-29.952 29.927v546.56c0 16.537 13.39 29.952 29.952 29.952s29.952-13.39 29.952-29.952v-546.56zM691.687 39.961c0-16.537-13.39-29.927-29.952-29.927s-29.952 13.39-29.952 29.927v546.56c0 16.537 13.362 29.952 29.952 29.952 16.537 0 29.952-13.39 29.952-29.952v-546.56zM811.545 807.374h-104.857v104.882c0 24.807-20.096 44.903-44.903 44.903h-299.595c-24.807 0-44.928-20.121-44.928-44.903v-104.882h-104.859c-24.807 0-44.903-20.096-44.903-44.928s20.121-44.928 44.903-44.928h599.143c24.857 0 44.953 20.096 44.953 44.928s-20.096 44.928-44.953 44.928zM407.118 867.303h209.714v-59.929h-209.714v59.929z" />
<glyph unicode="&#x24;" d="M721.689 597.991h-419.353c-49.433 0-89.856-35.609-89.856-79.104v-500.942c0-43.545 40.423-79.154 89.856-79.154h419.406c49.408 0 89.806 35.609 89.806 79.154l-0.002 500.967c-0.025 43.47-40.423 79.079-89.856 79.079zM392.167 27.854c0-14.542-13.39-26.318-29.952-26.318-16.537 0-29.952 11.776-29.952 26.318v481.177c0 14.542 13.415 26.368 29.952 26.368s29.952-11.776 29.952-26.368v-481.177zM541.927 27.854c0-14.542-13.362-26.318-29.952-26.318-16.562 0-29.952 11.776-29.952 26.318v481.177c0 14.542 13.39 26.368 29.952 26.368s29.952-11.776 29.952-26.368v-481.177zM691.712 27.854c0-14.542-13.39-26.318-29.952-26.318s-29.952 11.776-29.952 26.318v481.177c0 14.542 13.337 26.368 29.952 26.368 16.537 0 29.952-11.776 29.952-26.368v-481.177zM832.974 732.672l-103.218 18.482 18.51 103.246c4.352 24.398-11.879 47.719-36.302 52.096l-294.912 52.786c-24.423 4.377-47.769-11.904-52.146-36.274l-18.482-103.246-103.223 18.485c-24.423 4.377-47.744-11.879-52.121-36.302-4.377-24.448 11.904-47.794 36.274-52.146l589.799-105.575c24.448-4.402 47.769 11.854 52.146 36.302 4.379 24.421-11.851 47.744-36.325 52.146zM445.415 862.926l206.464-36.942-10.574-59.008-206.464 36.967 10.574 58.983z" />
<glyph unicode="&#x25;" d="M1517.287 487.474h-517.12c-94.77 0-172.313-77.618-172.313-172.366v-204.263c0-94.798 77.543-172.338 172.313-172.338h517.095c94.798 0 172.313 77.543 172.313 172.338v204.263c0.075 94.747-77.493 172.366-172.288 172.366zM1037.262 736.050c0-122.298 99.142-221.44 221.44-221.44s221.44 99.142 221.44 221.44c0 122.298-99.142 221.44-221.44 221.44-122.298 0-221.44-99.142-221.44-221.44zM603.342 507.058h-213.198v213.198c0 32.537-26.418 58.958-59.008 58.958-32.537 0-58.983-26.418-58.983-58.958v-213.198h-213.17c-32.59 0-58.983-26.443-58.983-59.008 0-32.537 26.418-59.058 58.983-59.058h213.198v-213.145c0-32.537 26.418-59.058 58.983-59.058s59.008 26.418 59.008 59.058v213.145h213.198c32.59 0 59.008 26.446 59.008 59.058-0.027 32.565-26.423 59.008-59.035 59.008z" horiz-adv-x="1689" />
<glyph unicode="&#x26;" d="M840.654 630.272c13.799-22.99 24.526-48.64 31.922-77.006 20.48-4.249 42.19-6.887 64.946-8.192s43.982-5.376 63.513-12.569c6.784-1.614 10.087-5.376 10.087-11.239v-147.815c0-4.942-6.272-9.422-18.51-13.465-12.441-4.046-26.752-7.065-42.958-9.625-16.256-2.638-32.128-4.352-47.719-5.682-15.31-1.305-25.522-2.329-30.695-3.225-5.863-23.73-15.538-48.128-29.362-73.138 22.99-34.254 48.334-67.175 75.776-98.51l3.737-9.422c0-3.328-5.682-11.314-17.127-24.014-11.545-12.775-24.498-26.446-39.090-41.113-14.695-14.592-28.622-27.673-41.65-39.118-13.312-11.545-21.785-17.127-25.422-17.127-0.896 0-6.375 3.737-16.59 11.442-10.446 7.705-21.657 16.434-33.945 25.753-12.263 9.319-24.014 18.329-34.944 26.958-11.161 8.498-18.201 13.671-20.967 15.31-12.263-6.606-24.423-12.366-36.814-17.23-12.263-4.786-24.679-8.832-37.198-12.185-0.896-5.042-1.87-15.31-3.481-31.001-1.486-15.694-3.406-31.591-5.863-47.719-2.56-16.103-5.479-30.464-8.832-43.442-3.406-13.081-7.758-19.456-13.184-19.456h-148.43c-5.966 0-9.934 3.662-11.954 10.624-5.838 20.48-9.831 42.062-11.854 64.537-2.073 22.503-4.352 43.982-6.887 64.537-25.625 7.602-49.842 18.048-73.344 31.335-17.127-12.978-34.048-25.55-50.766-37.81-16.718-12.441-33.127-25.422-49.458-39.193l-7.577-2.457c-2.382 0-10.19 5.582-23.090 17.127-13.031 11.442-26.446 24.526-40.423 39.118-14.030 14.67-26.802 28.338-38.297 41.113-11.495 12.672-17.177 20.686-17.177 24.014 0 0.921 3.328 6.4 9.984 16.615s14.592 21.479 23.502 33.433c9.010 12.185 17.817 23.833 26.393 34.766 8.551 11.136 14.030 18.432 16.615 21.785-13.824 22.99-24.551 48.537-31.975 77.106-21.376 4.146-43.214 6.784-65.458 7.986-22.478 1.33-43.47 5.479-63.001 12.569-6.809 1.714-10.137 5.454-10.137 11.342v147.918c0 4.967 6.478 9.422 19.25 13.362s27.058 7.296 42.905 9.728c15.847 2.432 31.31 4.455 46.258 5.582 15.079 1.305 25.063 2.329 30.183 3.225 7.399 25.447 17.614 49.842 30.642 73.241-22.99 34.254-48.078 67.072-75.186 98.382l-4.347 9.317c0 3.353 5.785 11.545 17.433 24.217 11.726 12.672 24.729 26.446 39.168 40.935 14.489 14.592 28.238 27.673 41.703 39.218 13.362 11.442 21.682 17.33 25.038 17.33 0.896 0 6.425-3.943 16.615-11.648 10.24-7.808 21.582-16.306 34.126-25.625 12.569-9.422 24.32-18.432 35.456-26.958 11.058-8.601 17.842-13.671 20.274-15.41 12.16 6.681 24.423 12.16 36.786 16.615 12.263 4.352 24.807 8.601 37.888 12.775 0 5.070 0.512 15.282 1.714 30.798 1.305 15.41 3.225 31.104 5.682 47.001 2.535 15.822 5.863 30.208 9.728 43.264 4.096 12.775 8.551 19.353 13.568 19.353h148.405c5.913 0 9.778-3.15 11.904-9.319 5.017-20.455 8.576-41.959 10.649-64.64 2.023-22.603 5.095-44.697 8.807-66.457 12.928-3.25 25.497-7.296 37.198-11.854 12.007-4.558 23.758-10.446 35.506-17.536 3.353 2.432 10.393 8.089 21.223 16.615 10.905 8.601 22.503 17.536 34.791 26.958 12.263 9.422 23.527 17.742 33.255 25.113 9.831 7.296 15.95 10.958 18.535 10.958 2.457 0 10.24-5.863 23.090-17.33 12.978-11.545 26.599-24.626 40.782-39.218 14.158-14.489 26.958-28.263 38.45-40.935 11.495-12.672 17.23-20.864 17.23-24.217 0-1.614-3.634-7.602-10.83-17.817-7.399-10.24-15.591-21.376-24.526-33.536-8.935-11.954-17.767-23.602-26.343-34.738-8.551-11.063-13.696-17.847-15.307-20.382v0zM512.434 297.65c20.402 0 39.858 4.046 58.265 12.263 18.304 7.986 33.998 19.047 47.282 32.818 13.056 13.774 23.808 29.799 31.897 48.231 8.089 18.354 12.185 37.81 12.185 58.265 0 20.48-4.071 39.602-12.185 57.65s-18.841 33.842-31.897 47.616c-13.287 13.874-28.978 24.601-47.282 32.206-18.407 7.705-37.863 11.648-58.265 11.648-20.608 0-40.167-3.943-58.674-11.648-18.56-7.602-34.688-18.329-48.206-32.203-13.518-13.799-24.27-29.593-31.975-47.616-7.758-18.048-11.598-37.17-11.598-57.65 0-20.455 3.84-39.911 11.598-58.265 7.705-18.432 18.432-34.457 31.975-48.231s29.646-24.832 48.231-32.818c18.485-8.219 38.041-12.265 58.649-12.265z" />
<glyph unicode="&#x27;" d="M992.818 110.592l-220.978 218.368c17.842 29.824 32.69 61.106 42.958 94.695 11.776 38.937 17.895 78.745 17.895 119.705 0 56.96-10.958 110.72-32.59 161.049-21.657 50.51-51.609 94.514-89.703 132.48-38.094 37.863-82.226 67.79-132.43 89.678-50.254 21.785-103.808 32.793-160.896 32.793-57.497 0-111.232-10.983-161.458-32.793-50.254-21.813-94.311-51.737-132.43-89.653-38.219-37.938-68.096-81.995-89.753-132.453-21.632-50.382-32.487-104.089-32.487-161.049 0-57.138 10.855-110.976 32.487-161.202 21.682-50.585 51.559-94.542 89.778-132.48 38.119-37.913 82.304-67.815 132.633-89.472 50.482-21.657 104.142-32.384 161.255-32.384 40.832 0 80.537 5.863 119.271 17.87 31.95 9.65 61.952 23.858 90.83 40.498l222.823-220.238c19.79-19.687 45.543-29.362 71.502-29.362 26.19 0 52.327 10.034 72.242 30.286 39.371 39.831 39.040 104.215-0.949 143.664zM513.586 313.678c-30.258-13.134-62.336-19.687-96.462-19.687s-66.432 6.553-96.793 19.687c-30.464 13.184-56.91 30.77-79.36 53.198-22.503 22.247-40.423 48.562-53.838 78.642-13.415 30.13-20.046 62.77-20.046 97.842 0 34.151 6.631 66.254 20.046 96.384 13.415 30.311 31.282 56.754 53.838 79.41 22.322 22.578 48.896 40.473 79.36 53.657 30.491 13.109 62.645 19.765 96.795 19.765 34.176 0 66.254-6.656 96.462-19.737 30.183-13.159 56.601-30.898 79.026-53.657 22.553-22.656 40.37-49.202 53.838-79.41 13.44-30.183 20.096-62.336 20.096-96.384 0-35.022-6.656-67.737-20.096-97.842-13.44-30.080-31.129-56.398-53.838-78.642-22.325-22.352-48.793-40.041-79.029-53.225z" />
<glyph unicode="&#x28;" d="M936.434 774.517l-97.915 97.915c-10.629 10.629-31.607 19.291-46.635 19.291h-40.96v-341.323h-477.847v341.323h-177.513c-15.029 0-27.317-12.288-27.317-27.317l0.030-832.843c0-15.029 12.288-27.317 27.317-27.317l832.843 0.030c15.029 0 27.317 12.288 27.317 27.317l-0.030 696.29c0 15.029-8.663 36.007-19.289 46.633zM819.2 99.84c0-15.029-12.288-27.317-27.317-27.317h-559.767c-15.029 0-27.317 12.288-27.317 27.317v13.643c0 15.029 12.288 27.317 27.317 27.317h559.767c15.029 0 27.317-12.288 27.317-27.317v-13.643zM819.2 236.363c0-15.029-12.288-27.317-27.317-27.317l-559.767 0.030c-15.029 0-27.317 12.288-27.317 27.317v13.643c0 15.029 12.288 27.317 27.317 27.317l559.767-0.030c15.029 0 27.317-12.288 27.317-27.317v-13.643zM819.2 372.917c0-15.029-12.288-27.317-27.317-27.317h-559.767c-15.029 0-27.317 12.288-27.317 27.317v13.643c0 15.029 12.288 27.317 27.317 27.317h559.767c15.029 0 27.317-12.288 27.317-27.317v-13.643zM546.123 823.477h136.553v-204.8h-136.553z" />
<glyph unicode="&#x29;" d="M1536 857.6c0 56.32-46.105 102.4-102.4 102.4h-1331.2c-56.32 0-102.4-46.080-102.4-102.4v-819.2c0-56.32 46.080-102.4 102.4-102.4h1331.2c56.295 0 102.4 46.080 102.4 102.4v819.2zM455.346 830.642c88.754 0 160.718-71.961 160.718-160.743 0-88.754-71.986-160.718-160.718-160.718-88.782 0-160.718 71.961-160.718 160.718-0.023 88.782 71.938 160.743 160.718 160.743zM768.103 216.089c0-68.814-56.295-125.106-125.106-125.106h-375.323c-68.814 0-125.106 56.27-125.106 125.106v148.249c0 68.814 56.242 125.106 125.106 125.106h375.346c68.814 0 125.106-56.32 125.106-125.106l0.002-148.249zM1408.103 147.2c0-28.16-23.040-51.2-51.2-51.2h-409.6c-28.16 0-51.2 23.040-51.2 51.2v25.6c0 28.16 23.040 51.2 51.2 51.2h409.6c28.16 0 51.2-23.040 51.2-51.2v-25.6zM1408.103 435.2c0-28.16-23.040-51.2-51.2-51.2h-409.6c-28.16 0-51.2 23.040-51.2 51.2v25.6c0 28.16 23.040 51.2 51.2 51.2h409.6c28.16 0 51.2-23.040 51.2-51.2v-25.6zM1408.103 723.2c0-28.16-23.040-51.2-51.2-51.2h-409.6c-28.16 0-51.2 23.040-51.2 51.2v25.6c0 28.16 23.040 51.2 51.2 51.2h409.6c28.16 0 51.2-23.040 51.2-51.2v-25.6z" horiz-adv-x="1536" />
<glyph unicode="&#x2a;" d="M932.377 539.086h-329.241v329.241c0 50.329-40.754 91.136-91.111 91.136-50.329 0-91.136-40.832-91.136-91.136v-329.241h-329.241c-50.279 0-91.136-40.807-91.136-91.136 0.050-50.304 40.807-91.058 91.136-91.111h329.241v-329.191c0-50.304 40.832-91.111 91.136-91.111 50.354 0 91.161 40.807 91.161 91.111v329.191h329.191c50.279 0 91.111 40.807 91.111 91.111s-40.832 91.136-91.111 91.136z" />
<glyph unicode="&#x2b;" d="M773.657 311.271c4.071 0 14.898-4.633 32.409-14.13 17.458-9.497 36.249-20.096 56.345-31.488 20.199-11.598 39.655-23.143 58.446-34.894 19.097-11.826 31.897-19.431 38.503-22.759 6.759-4.096 16.359-9.497 28.953-16.050 12.594-6.503 20.889-13.849 25.294-22.375 0.793-2.535 1.202-7.296 1.202-14.414 0-6.784-0.615-14.386-1.998-22.937-1.202-8.704-2.663-17.689-5.017-27.058-1.945-9.497-4.633-18.457-7.552-27.058-2.791-8.601-5.632-16.128-8.217-22.478-7.399-16.359-19.993-31.282-37.326-44.928-17.358-13.721-36.967-25.241-58.265-34.688-21.401-9.55-43.314-16.946-65.842-22.706-22.45-5.607-41.753-8.398-58.137-8.398-33.714 0-65.817 5.298-96.718 15.95-30.898 10.855-61.287 22.119-91.598 34.354-51.687 18.738-100.505 43.698-146.51 74.343-45.902 30.489-88.576 65.024-128.178 103.246-39.246 38.144-75.929 79.463-110.002 123.698-34.073 44.288-64.256 89.55-90.727 135.833-10.521 17.074-21.479 37.145-33.049 60.11-11.545 22.862-22.35 46.286-32.078 70.4-10.009 24.114-18.126 48.050-24.626 71.527-6.45 23.527-9.753 45.646-9.753 66.176 0 22.962 3.072 47.026 9.241 71.986 5.913 24.91 14.951 48.974 26.88 71.808 12.11 22.937 26.496 43.598 43.214 62.030 16.562 18.407 36.174 32.896 58.574 43.47 4.992-0.921 10.546-0.921 16.69 0 6.041 0.871 11.52 1.28 16.64 1.28 4.146 0 10.496-0.306 18.919-0.615 8.27-0.537 16.871-0.921 25.138-1.28 8.448-0.464 16.409-1.463 24.295-2.843 7.68-1.561 13.465-3.15 17.28-4.814 3.278-2.457 6.503-6.272 9.472-11.264 2.944-5.017 5.326-10.727 7.527-16.718 2.098-5.938 3.968-12.441 5.966-18.919 1.92-6.503 3.609-11.673 5.326-15.922 2.457-7.63 7.449-21.351 14.77-41.241 7.424-20.096 14.926-40.498 22.35-61.39 7.577-21.017 14.386-40.626 20.53-58.624 6.066-17.945 9.063-29.159 9.063-33.358 0-15.538-5.223-29.824-15.463-42.83-10.29-12.978-21.554-25.038-33.87-36.249-12.391-11.186-23.911-21.657-34.482-31.385-10.393-9.934-15.694-19.559-15.694-28.647 0-8.498 3.456-18.816 10.418-30.898 6.937-12.238 12.391-21.838 16.69-28.978 35.328-60.878 74.88-113.074 118.681-156.544 43.751-43.47 96.768-82.841 159.001-118.041 7.63-4.249 17.024-10.062 28.672-17.408 11.52-7.296 22.144-11.008 31.794-11.008 9.55 0 20.608 6.606 32.999 20.146 12.441 13.39 24.985 28.288 37.863 44.366 12.697 16.128 25.856 30.848 39.065 44.313 13.237 13.543 25.653 20.302 36.891 20.302z" />
<glyph unicode="&#x2c;" d="M649.088 103.374c0-15.36-12.544-27.904-27.904-27.904h-453.81c-15.335 0-27.904 12.544-27.904 27.904v453.835c0 15.31 12.569 27.879 27.904 27.879h277.12l139.47 139.47h-416.59c-92.288 0.025-167.374-75.061-167.374-167.349v-453.838c0-92.286 75.086-167.371 167.374-167.371h453.838c92.288 0 167.374 75.086 167.374 167.374l-0.002 416.613-139.47-139.47v-277.143zM998.119 933.017c-16.359 16.178-39.246 26.162-62.898 26.19l-502.043 0.793c-49.074 0.050-88.935-39.655-88.985-88.754-0.078-24.576 9.881-46.898 26.009-63.001 16-16.050 38.194-25.984 62.642-26.009l287.207-0.434-350.286-350.286c-34.713-34.766-34.766-91.008 0-125.696 34.713-34.738 90.958-34.688 125.696 0l153.625 153.6 196.455 196.455-0.921-284.953c-0.231-49.127 39.502-89.038 88.551-89.113 49.127-0.178 89.063 39.502 89.241 88.576l1.589 499.657c0.103 23.605-9.191 46.261-25.881 62.976z" />
<glyph unicode="&#x2d;" d="M872.807 596.992c0-35.79-5.248-69.785-15.591-102.119-10.446-32.128-24.551-62.798-41.906-91.698l-242.457-422.809c-17.511-29.006-37.76-43.442-60.722-43.442-23.143 0-42.958 14.439-59.52 43.442l-243.739 424.089c-17.486 29.106-31.385 59.47-41.881 91.598-10.521 31.975-15.769 65.639-15.769 101.017 0 49.817 9.344 96.921 28.21 141.081 18.766 44.057 44.622 82.56 77.49 115.456 32.768 32.665 71.218 58.521 115.328 77.337 44.11 18.791 91.086 28.16 140.391 28.16 49.945 0 96.793-9.369 140.366-28.16 43.904-18.738 81.945-44.647 114.56-77.337 32.64-32.896 58.343-71.399 77.056-115.456 18.789-44.213 28.185-91.264 28.185-141.159zM512.665 419.097c24.32 0 47.463 4.608 69.426 13.902 21.966 9.088 41.088 21.838 57.241 37.938 16.206 16.281 28.903 35.278 37.991 56.985 9.241 21.71 13.849 44.8 13.849 69.12 0 24.192-4.608 47.463-13.849 69.426-9.088 21.913-21.81 41.138-37.991 57.959-16.153 16.537-35.022 29.465-56.807 38.606-21.863 9.216-45.056 13.874-69.863 13.874-25.063 0-48.178-4.658-69.582-13.874-21.401-9.113-40.37-22.016-56.935-38.606-16.665-16.768-29.49-35.918-38.706-57.728-9.088-21.632-13.646-44.928-13.646-69.607 0-24.295 4.583-47.41 13.671-69.12 9.266-21.71 22.041-40.754 38.706-56.96 16.562-16.153 35.534-28.85 56.935-37.966 21.381-9.342 44.496-13.95 69.559-13.95z" />
<glyph unicode="&#x2e;" d="M795.648 956.8h-560.846v-1017.6h560.846c72.729 0 131.89 59.186 131.89 131.865v753.845c0 72.729-59.161 131.89-131.89 131.89zM336.384 459.854c-1.792 1.792-3.662 3.378-5.838 4.736v39.474c0 3.097 0.128 7.246 0.256 12.288 0.153 5.12 1.074 10.062 2.638 14.67 1.586 4.686 4.146 8.704 7.68 12.082 3.559 3.406 8.526 5.070 14.848 5.070-7.705 5.017-13.874 11.598-18.482 19.634s-6.937 17.102-6.937 27.086c0 7.474 1.458 14.567 4.302 21.326 2.841 6.759 6.809 12.647 11.929 17.817 5.145 5.12 11.058 9.063 17.792 11.929 6.759 2.894 13.849 4.302 21.298 4.302 7.833 0 15.079-1.408 21.81-4.302 6.784-2.866 12.622-6.809 17.586-11.929 4.889-5.145 8.935-11.058 11.904-17.792 3.047-6.706 4.558-13.799 4.558-21.326 0-9.806-2.304-18.894-7.090-26.983-4.786-8.114-11.008-14.72-18.816-19.762 6.425 0 11.367-1.664 14.951-5.070 3.559-3.378 6.119-7.424 7.602-12.082 1.586-4.633 2.535-9.55 2.816-14.67 0.409-5.042 0.537-9.191 0.537-12.288v-39.502c-2.457-1.305-4.43-2.894-6.041-4.736-1.664-1.87-4.046-2.766-7.193-2.766l-85.198 0.002c-2.766 0-5.017 0.921-6.912 2.791zM777.728 258.201c-2.098-1.024-3.762-2.201-5.12-3.406-1.433-1.23-2.994-2.382-4.814-3.687-1.87-1.152-3.89-2.457-6.119-3.737-2.201-1.33-5.376-2.663-9.294-3.993h-355.275c-6.066 0-10.777 1.92-14.158 5.838-3.431 3.943-7.118 6.937-11.314 9.010v100.455c0 13.518 3.84 25.497 11.726 35.968 7.758 10.471 16.206 19.968 25.422 28.466 1.689 1.639 33.792 12.007 37.632 12.697 10.599 1.664 21.838 3.378 33.767 5.095 11.982 1.586 23.63 3.25 35.072 5.017-15.538 9.934-28.11 22.962-37.504 39.399-9.472 16.256-14.208 34.304-14.208 53.838 0 15.257 2.944 29.618 8.882 43.239 5.863 13.646 13.774 25.369 23.886 35.303 10.062 9.934 21.81 17.842 35.25 23.73 13.543 5.913 27.854 8.857 43.136 8.857s29.568-2.894 43.186-8.857c13.465-5.888 25.216-13.799 35.303-23.73 10.062-9.934 17.97-21.682 23.936-35.303 5.863-13.646 8.807-28.007 8.807-43.239 0-19.534-4.686-37.401-14.002-53.785-9.369-16.256-21.863-29.415-37.632-39.449 11.342-1.714 22.99-3.353 34.841-4.914 11.904-1.586 23.218-3.303 33.895-5.198 3.993-0.665 7.858-1.102 11.648-1.255 3.79-0.231 7.449-0.793 10.674-1.842 3.097-0.665 6.016-1.945 8.729-4.018 2.663-1.945 5.070-3.815 7.090-5.529 11.392-10.265 20.43-20.352 26.93-30.361 6.45-9.906 9.703-21.248 9.703-34.098l-0.075-100.51zM807.986 543.129c3.303-3.378 5.785-7.424 7.346-12.082 1.586-4.633 2.56-9.55 2.816-14.67 0.384-5.042 0.537-9.191 0.537-12.288v-39.502c-2.048-1.305-3.943-2.894-5.863-4.736-1.792-1.87-4.121-2.766-6.912-2.766h-85.145c-3.072 0-5.504 0.896-7.118 2.766-1.664 1.792-3.687 3.378-6.119 4.736l0.005 39.477c0 3.097 0.256 7.246 0.537 12.288 0.306 5.12 1.33 10.062 2.944 14.67 1.689 4.686 4.249 8.704 7.833 12.082 3.506 3.406 8.423 5.070 14.617 5.070-7.758 5.042-14.055 11.598-18.816 19.634s-7.118 17.102-7.118 27.086c0 7.474 1.458 14.567 4.249 21.326 2.866 6.734 6.887 12.647 11.954 17.792 5.145 5.12 11.136 9.063 17.792 11.929 6.759 2.866 14.055 4.302 21.81 4.302 7.449 0 14.542-1.433 21.351-4.302 6.759-2.841 12.697-6.809 17.792-11.929 5.042-5.145 9.088-11.058 11.954-17.792 2.866-6.734 4.249-13.824 4.249-21.326 0-9.806-2.304-18.894-6.937-26.983-4.53-8.114-10.702-14.72-18.535-19.762 6.482 0.050 11.397-1.614 14.775-5.019zM96.462 956.032h61.056v-1016.832h-61.056z" />
<glyph unicode="&#x2f;" d="M512.025 462.642l447.797 347.061c5.735 4.43 12.263 6.912 18.866 8.295-14.745 10.162-32.59 16.231-51.815 16.231l-829.721-0.002c-19.225 0-37.042-6.041-51.84-16.231 6.681-1.383 13.184-3.79 18.969-8.295l447.744-347.058zM1016.014 737.202l-475.904-368.846c-16.537-12.85-39.63-12.85-56.192 0l-475.904 368.846c-1.102 0.846-1.639 2.101-2.638 3.047v-586.674c0-50.482 41.266-91.776 91.751-91.776h829.696c50.432 0 91.751 41.294 91.751 91.776v586.674c-0.949-0.946-1.511-2.201-2.56-3.047z" />
<glyph unicode="&#x30;" d="M811.854-67.2h-666.062c-34.482 0-62.439 27.954-62.439 62.439v905.522c0 34.482 27.954 62.439 62.439 62.439h666.062c34.51 0 62.439-27.954 62.439-62.439v-174.67c0-34.482-27.954-62.439-62.439-62.439-34.482 0-62.414 27.954-62.414 62.439v112.206h-541.209v-780.594h541.184v112.206c0 34.51 28.007 62.439 62.414 62.439 34.535 0 62.414-27.954 62.414-62.439v-174.642c0.048-34.512-27.881-62.466-62.389-62.466zM1236.889 490.162l-240.896 240.921c-23.246 23.271-61.159 23.271-84.352 0-23.296-23.296-23.296-61.006 0-84.302l136.345-136.37-338.226 0.002c-34.482 0-62.439-27.982-62.439-62.439 0-34.535 27.982-62.414 62.439-62.414h338.201l-136.345-136.398c-23.296-23.246-23.296-61.006 0-84.302 23.246-23.246 61.106-23.246 84.402 0l240.896 240.999c11.623 11.598 17.486 26.882 17.486 42.165 0 15.182-5.863 30.517-17.511 42.137z" />
<glyph unicode="&#x31;" d="M871.374-57.575h-653.646c-33.842 0-61.287 27.442-61.287 61.287v171.392c0 33.842 27.442 61.287 61.287 61.287 33.842 0 61.287-27.417 61.287-61.287v-110.105h531.072v766.002h-531.072v-110.105c0-33.842-27.442-61.287-61.287-61.287-33.842 0-61.287 27.442-61.287 61.287v171.392c0 33.842 27.442 61.287 61.287 61.287h653.646c33.842 0 61.287-27.442 61.287-61.287v-888.601c-0.002-33.817-27.445-61.262-61.287-61.262zM669.927 489.422l-236.391 236.416c-22.862 22.834-59.982 22.834-82.791 0-22.912-22.862-22.912-59.879 0-82.738l133.838-133.81-331.957-0.002c-33.842 0-61.287-27.47-61.287-61.287 0-33.895 27.442-61.287 61.287-61.287h331.904l-133.785-133.838c-22.912-22.862-22.912-59.904 0-82.738 22.809-22.862 59.929-22.862 82.791 0l236.391 236.494c11.417 11.392 17.177 26.393 17.177 41.422 0 14.923-5.76 29.977-17.177 41.369z" />
<glyph unicode="&#x32;" d="M799.794 537.934h-17.998v149.863c0 148.761-121.010 269.799-269.799 269.799s-269.797-121.038-269.797-269.801v-149.863l-17.945 0.002c-39.602 0-71.961-32.384-71.961-71.936v-455.655c0-39.577 32.359-71.961 71.961-71.961h575.538c39.552 0 71.911 32.384 71.911 71.961v455.655c0 39.552-32.359 71.936-71.911 71.936zM559.95 142.258c0-26.496-21.454-47.975-47.95-47.975s-47.95 21.479-47.95 47.975v191.847c0 26.471 21.454 47.95 47.95 47.95s47.95-21.479 47.95-47.95v-191.847zM661.888 537.934h-299.776v149.863c0 82.663 67.25 149.888 149.888 149.888s149.888-67.25 149.888-149.888v-149.863z" />
<glyph unicode="&#x33;" d="M833.842 847.385h-411.979v63.797c0 21.326-17.28 38.656-38.606 38.656-21.326 0-38.631-17.305-38.631-38.656v-63.794h-51.481v63.794c0 21.326-17.28 38.656-38.631 38.656-21.326 0-38.606-17.305-38.606-38.656v-63.794l-25.751-0.002c-35.406 0-64.384-28.953-64.384-64.359v-772.43c0-35.431 28.978-64.409 64.384-64.409h257.458v257.536h128.743v-257.536h257.486c35.431 0 64.384 28.978 64.384 64.409l-0.002 772.405c0 35.431-28.953 64.384-64.384 64.384zM318.898 74.93h-128.741v128.768h128.718l-0.002-128.768zM318.898 332.416h-128.741v128.718h128.718l-0.002-128.718zM318.898 589.874h-128.741v128.743h128.718l-0.002-128.743zM576.384 332.416h-128.743v128.718h128.743v-128.718zM576.384 589.874h-128.743v128.743h128.743v-128.743zM833.842 74.93h-128.743v128.768h128.743v-128.768zM833.842 332.416h-128.743v128.718h128.743v-128.718zM833.842 589.874h-128.743l0.002 128.743h128.743l-0.002-128.743z" />
<glyph unicode="&#x34;" d="M0 825.6c0-74.227 60.173-134.4 134.4-134.4s134.4 60.173 134.4 134.4c0 74.227-60.173 134.4-134.4 134.4-74.227 0-134.4-60.173-134.4-134.4zM921.6 723.2h-443.726c-56.551 0-102.4 45.849-102.4 102.4s45.849 102.4 102.4 102.4h443.726c56.551 0 102.4-45.849 102.4-102.4s-45.849-102.4-102.4-102.4zM0 448c0-74.227 60.173-134.4 134.4-134.4s134.4 60.173 134.4 134.4c0 74.227-60.173 134.4-134.4 134.4-74.227 0-134.4-60.173-134.4-134.4zM921.6 345.6h-443.726c-56.551 0-102.4 45.849-102.4 102.4s45.849 102.4 102.4 102.4h443.726c56.551 0 102.4-45.849 102.4-102.4s-45.849-102.4-102.4-102.4zM0 70.4c0-74.227 60.173-134.4 134.4-134.4s134.4 60.173 134.4 134.4c0 74.227-60.173 134.4-134.4 134.4-74.227 0-134.4-60.173-134.4-134.4zM921.6-32h-443.726c-56.551 0-102.4 45.849-102.4 102.4s45.849 102.4 102.4 102.4h443.726c56.551 0 102.4-45.849 102.4-102.4s-45.849-102.4-102.4-102.4z" />
<glyph unicode="&#x35;" d="M549.554 497.024v1.536c-0.334-0.512-0.665-1.024-0.999-1.536h0.999zM935.961 962.023h-847.947c-47.897 0-86.887-38.169-86.887-85.12v-857.856c0-46.898 38.962-85.070 86.887-85.070h847.95c47.922 0 86.937 38.169 86.937 85.070l-0.002 857.856c-0.025 46.951-39.013 85.12-86.937 85.12zM316.11 110.439h-150.272v452.171h150.272v-452.171zM240.974 624.306h-0.974c-50.432 0-83.047 34.738-83.047 78.158 0 44.338 33.614 78.13 84.992 78.13 51.406 0 83.072-33.767 84.046-78.13 0-43.392-32.64-78.158-85.017-78.158zM858.009 110.439h-150.247v241.87c0 60.8-21.76 102.297-76.16 102.297-41.497 0-66.279-27.982-77.081-54.99-3.993-9.65-4.967-23.168-4.967-36.686v-252.494h-150.272c0 0 1.97 409.728 0 452.174h150.272v-64.050c19.943 30.823 55.68 74.649 135.449 74.649 98.866 0 173.006-64.59 173.006-203.495v-259.275z" />
<glyph unicode="&#x36;" d="M741.888 945.511c36.455 0 71.040-7.193 103.73-21.298 32.615-14.105 61.134-33.23 85.401-57.319 24.242-23.961 43.442-52.377 57.625-84.761 14.055-32.281 21.17-67.278 21.17-104.601 0-35.687-6.834-70.094-20.608-103.374-13.746-33.202-32.768-62.13-57.319-86.578-3.303-3.328-7.63-7.936-12.672-13.465-5.248-5.582-10.418-10.983-15.616-16.128-5.248-5.298-10.546-9.65-15.95-13.415-5.298-3.762-10.496-5.682-15.463-5.682-7.527 0-14.002 2.585-19.353 7.527-3.431 2.535-5.863 7.705-7.474 15.641-4.146 19.353-8.935 37.735-14.105 54.809-5.095 16.946-11.698 34.894-19.584 53.554-1.664 1.742-2.585 4.942-2.585 9.959 0 4.942 2.304 10.24 6.656 15.794 4.302 5.682 8.754 12.082 13.337 19.406 4.583 7.168 9.038 16.025 13.415 26.19 4.302 10.137 6.478 22.066 6.478 35.79 0 14.514-2.738 28.313-8.345 41.394-5.554 13.104-13.337 24.343-23.065 33.687-9.703 9.319-20.889 16.846-33.561 22.425-12.722 5.607-26.702 8.423-42.112 8.423-17.024 0-32.665-3.687-46.72-10.958-14.158-7.321-27.314-16.128-39.602-26.727-12.185-10.649-23.961-22.375-35.15-35.2-11.186-12.878-22.272-24.754-33.074-35.609l-110.798-112.128c-10.446-9.55-18.201-20.786-23.168-33.895-4.942-13.081-7.474-26.983-7.474-41.394 0-17.97 3.303-33.074 10.062-45.543 6.578-12.466 9.906-22.016 9.906-28.697 0-4.942-4.455-12.978-13.362-24.27-8.857-11.136-19.072-22.734-30.489-34.61-11.392-11.776-22.862-22.222-34.304-31.129-11.442-8.832-20.199-13.337-26.446-13.337-12.032 0-22.631 7.527-31.794 22.322-9.088 15.054-17.127 32.178-24.014 51.762-6.834 19.559-12.338 39.065-16.128 58.521-4.071 19.506-5.938 34.51-5.938 44.953 0 35.737 6.834 69.81 20.558 102.375 13.618 32.665 32.818 61.774 57.319 87.552l190.002 188.722c24.498 25.497 53.504 44.85 86.937 58.674 33.406 13.751 67.966 20.638 103.678 20.638zM740.633 408.398c0-35.737-6.834-70.144-20.608-103.424-13.543-33.177-32.768-62.080-57.319-86.528l-189.952-188.775c-24.551-25.422-53.504-44.953-86.784-58.599-33.561-13.721-68.174-20.608-103.858-20.608-37.376 0-72.167 6.962-104.345 20.889-32.178 13.902-60.494 32.974-84.658 57.319-24.423 24.345-43.57 52.864-57.728 85.632-14.055 32.871-21.198 67.584-21.198 104.114 0 35.687 7.118 70.094 21.198 102.937 14.158 33.074 33.458 62.105 57.984 86.99 3.303 3.303 7.374 7.758 12.238 13.44 4.711 5.607 9.906 10.752 15.538 15.95 5.554 4.839 11.008 9.294 16.487 13.262 5.298 3.968 10.752 5.991 16.128 5.991 7.474 0 13.337-2.816 17.433-8.114 3.431-2.535 5.81-7.474 7.577-15.001 4.071-19.506 8.807-37.735 14.002-54.809 5.095-17.024 12.082-34.894 20.839-53.554 1.689-4.942 2.585-8.526 2.585-10.546 0-4.992-2.329-10.343-6.631-15.95-4.352-5.582-8.91-11.982-13.362-19.047-4.558-7.015-9.010-15.538-13.465-25.6-4.302-9.856-6.478-21.863-6.478-35.968 0-29.952 10.343-55.090 30.745-75.392 20.583-20.402 45.646-30.542 75.136-30.542 17.049 0 32.768 3.481 47.385 10.546 14.514 7.065 27.726 16.334 39.552 27.47 11.776 11.186 23.374 22.887 34.56 35.25 11.186 12.185 22.272 23.808 33.074 35.2l112.078 110.77c20.302 22.119 30.77 47.463 31.079 76.647 0 17.895-3.506 32.974-10.88 45.234-7.218 12.185-10.802 21.863-10.802 29.006 0 4.942 4.455 12.85 13.362 23.808 8.857 11.086 18.994 22.528 30.464 34.304 11.392 11.879 23.118 22.322 34.944 31.129 11.801 8.96 20.455 13.415 25.753 13.415 12.082 0 22.681-7.424 31.769-22.119 9.166-14.695 17.177-31.719 24.064-51.328 6.834-19.559 12.263-39.040 16.128-58.674 4.071-19.305 5.966-34.306 5.966-44.725z" />
<glyph unicode="&#x37;" d="M904.295 527.538h-88.935c6.503-25.166 10.265-51.481 10.265-78.67 0-173.774-140.775-314.546-314.521-314.546-173.746 0-314.521 140.8-314.521 314.574 0 27.186 3.865 53.479 10.318 78.67h-88.987v-432.59c0-21.735 17.586-39.271 39.346-39.271h707.737c21.76 0 39.296 17.614 39.296 39.271l0.002 432.562zM904.295 802.766c0 21.71-17.614 39.296-39.296 39.296h-117.938c-21.71 0-39.296-17.586-39.296-39.296v-117.966c0-21.735 17.614-39.321 39.296-39.321h117.938c21.76 0 39.296 17.614 39.296 39.321v117.966zM511.129 645.479c-108.622 0-196.608-88.014-196.608-196.583 0-108.622 88.014-196.658 196.608-196.658 108.569 0 196.633 88.014 196.633 196.658-0.025 108.569-88.064 196.583-196.633 196.583M904.295-62.258h-786.382c-65.127 0-117.913 52.786-117.913 117.989v786.357c0 65.127 52.786 117.913 117.913 117.913h786.382c65.202 0 117.991-52.786 117.991-117.938v-786.354c-0.027-65.179-52.789-117.966-117.991-117.966" />
<glyph unicode="&#x38;" d="M512 960c-282.777 0-512-229.223-512-512s229.223-512 512-512 512 229.223 512 512-229.223 512-512 512zM573.337 108.569h-121.856v427.342h121.856v-427.342zM512.434 642.969c-40.014 0-72.217 32.206-72.217 72.242 0 39.143 32.206 72.217 72.217 72.217 40.039 0 72.242-33.074 72.242-72.217 0.002-40.037-32.203-72.242-72.242-72.242z" />
<glyph unicode="&#x39;" d="M94.489 770.279h75.495c17.177-57.344 70.322-99.15 133.273-99.15s116.071 41.806 133.273 99.15h492.978c23.040 0 41.753 18.688 41.753 41.753 0 23.065-18.663 41.753-41.753 41.753h-493.029c-17.23 56.857-70.322 97.408-133.223 97.408-61.721 0-113.998-41.344-132.199-97.408h-76.544c-23.015 0-41.753-18.688-41.753-41.753s18.713-41.753 41.728-41.753zM929.511 492.825h-47.694c-17.202 56.857-70.297 97.433-133.198 97.433-61.721 0-113.97-41.344-132.199-97.433h-521.931c-23.015 0-41.753-18.688-41.753-41.753s18.688-41.753 41.753-41.753h520.832c17.202-57.344 70.297-99.15 133.248-99.15s116.071 41.806 133.273 99.15h47.641c23.015 0 41.753 18.663 41.753 41.753 0.002 23.065-18.686 41.753-41.726 41.753zM929.511 126.642h-326.041c-17.23 56.857-70.322 97.433-133.223 97.433-61.721 0-113.998-41.319-132.199-97.433h-243.559c-23.015 0-41.753-18.688-41.753-41.753s18.688-41.753 41.753-41.753h242.51c17.202-57.344 70.322-99.15 133.273-99.15s116.071 41.806 133.273 99.15h325.938c23.040 0 41.753 18.663 41.753 41.753 0.002 23.065-18.686 41.753-41.726 41.753z" />
<glyph unicode="&#x3a;" d="M389.682-65.998v482.407h-127.488v173.646h127.488c0 0 0 71.168 0 148.377 0 116.558 75.342 223.566 248.91 223.566 70.35 0 122.343-6.706 122.343-6.706l-4.149-162.203c0 0-53.017 0.537-110.848 0.537-62.642 0-72.654-28.85-72.654-76.722 0-37.888 0 80.64 0-126.823h188.494l-8.142-173.671h-180.352v-482.382l-183.602-0.025z" />
<glyph unicode="&#x3b;" d="M829.774 438.681l106.674 106.162v-352.256c0-23.296-4.686-45.209-13.849-65.536-9.266-20.43-21.582-38.503-37.017-53.913-15.463-15.463-33.408-27.751-53.607-36.814-20.302-9.010-42.19-13.49-65.792-13.49h-594.357c-23.296 0-45.262 4.558-66.126 13.49-20.786 9.063-38.759 21.401-53.863 36.814-15.104 15.463-27.186 33.536-36.199 53.913-9.038 20.327-13.518 42.162-13.518 65.536l0.005 509.749c0 23.271 4.505 45.287 13.518 66.126 9.010 20.761 21.070 38.809 36.199 53.863 15.104 14.976 33.102 27.086 53.863 36.224 20.862 9.035 42.853 13.49 66.121 13.49h594.329c1.408 0 3.456-0.206 5.838-0.537 2.457-0.487 4.377-0.59 5.785-0.59l-105.6-105.522h-500.352c-17.358 0-32.231-6.194-44.466-18.663-12.366-12.238-18.56-27.189-18.56-44.391v-509.774c0-17.408 6.194-32.153 18.585-44.466 12.238-12.338 27.186-18.585 44.466-18.585h594.329c17.305 0 32.256 6.194 44.697 18.585 12.622 12.313 18.894 27.186 18.894 44.466l0.002 246.119zM893.337 621.646l-359.911-359.886-182.45-59.879 59.698 182.016 360.501 360.423 122.162-122.674zM1006.642 807.346c10.034-10.674 15.026-22.937 15.207-36.786 0.231-13.746-4.814-26.009-15.207-36.711l-52.48-50.866-122.19 122.265 50.841 51.865c10.752 10.702 23.296 16 37.632 16s26.318-5.326 35.918-16.025l25.394-24.832 24.885-24.91z" />
<glyph unicode="&#x3c;" d="M912.64 349.006h-801.28c-56.167 0-101.76 45.646-101.76 101.81 0 56.167 45.593 101.76 101.76 101.76h801.28c56.114 0 101.76-45.593 101.76-101.76s-45.593-101.81-101.76-101.81zM912.64 32h-801.28c-56.167 0-101.76 45.543-101.76 101.76 0 56.142 45.593 101.76 101.76 101.76h801.28c56.114 0 101.76-45.593 101.76-101.76 0-56.217-45.593-101.76-101.76-101.76zM912.64 660.48h-801.28c-56.167 0-101.76 45.593-101.76 101.76 0 56.192 45.593 101.76 101.76 101.76h801.28c56.114 0 101.76-45.568 101.76-101.76 0-56.142-45.593-101.76-101.76-101.76z" />
<glyph unicode="&#x3d;" d="M977.458 737.742h-930.917c-25.6 0-46.542-20.942-46.542-46.542v-465.458c0-25.627 20.942-46.542 46.542-46.542h93.081c25.6 0 46.542 20.914 46.542 46.542l-0.002 372.377h651.648v-372.352c0-25.625 20.914-46.542 46.542-46.542h93.081c25.625 0 46.542 20.914 46.542 46.542v465.433c0.025 25.6-20.889 46.542-46.517 46.542zM651.623 651.648h-279.271c-9.010 0-16.281 7.296-16.281 16.281s7.296 16.281 16.281 16.281h279.271c9.010 0 16.306-7.296 16.306-16.281s-7.296-16.281-16.306-16.281z" />
<glyph unicode="&#x3e;" d="M464.718 268.697c-0.001-0.087-0.001-0.19-0.001-0.293 0-20.699 16.78-37.479 37.479-37.479 20.39 0 36.977 16.283 37.468 36.555 0.011 1.303 0.011 1.406 0.011 1.509 0 20.699-16.78 37.479-37.479 37.479-20.39 0-36.977-16.283-37.468-36.555zM512 953.6c-278.809 0-505.6-226.816-505.6-505.6 0-278.809 226.791-505.6 505.6-505.6 278.809 0 505.6 226.791 505.6 505.6 0 278.809-226.791 505.6-505.6 505.6zM476.697 881.28c11.673 0.946 23.374 1.792 35.303 1.792 11.904 0 23.577-0.846 35.25-1.767v-53.12c0-19.481-15.794-35.278-35.278-35.278-19.481 0-35.278 15.794-35.278 35.278l0.002 53.095zM129.87 414.592v0l-51.225 0.050c-0.846 11.035-1.691 22.094-1.691 33.358 0 12.569 0.818 24.91 1.87 37.198l51.072-0.025c19.481 0 35.25-15.822 35.25-35.303 0-19.483-15.794-35.278-35.275-35.278zM267.52 693.223c-6.937-6.887-15.922-10.318-24.985-10.318-9.038 0-18.048 3.431-24.96 10.343l-36.455 36.53c15.31 17.92 31.95 34.61 49.92 49.842l36.48-36.53c13.774-13.771 13.774-36.121 0-49.867zM830.873 579.406l-250.471-360.526c-29.977-43.136-89.191-53.838-132.377-23.833-43.136 29.952-53.838 89.191-23.886 132.377 5.479 7.833 12.238 14.823 19.328 20.48l344.91 271.513c12.825 10.087 31.385 7.886 41.447-4.942 8.167-10.418 8.217-24.702 1.049-35.070zM805.17 690.51c-6.937-6.887-15.922-10.343-24.985-10.343s-18.048 3.456-24.96 10.343c-13.774 13.774-13.774 36.121 0 49.895l38.478 38.478c17.92-15.282 34.638-31.975 49.842-49.92l-38.375-38.453zM890.19 410.802c-19.456 0-35.25 15.794-35.25 35.278 0 19.481 15.794 35.278 35.25 35.278h55.090c0.846-11.058 1.689-22.094 1.689-33.358 0-12.569-0.818-24.91-1.87-37.198h-54.91z" />
<glyph unicode="&#x3f;" d="M956.263 511.95h-50.126c-27.854 169.65-162.638 303.36-332.722 329.753v50.635c0 34.638-28.007 62.592-62.642 62.592-34.638 0-62.617-27.954-62.617-62.592v-51.022c-169.806-27.442-303.847-161.817-330.674-331.776l-49.794 0.002c-34.56 0-62.617-28.032-62.617-62.567 0-34.663 28.032-62.72 62.617-62.72h49.87c27.186-170.546 162.254-305.255 333.031-331.776v-48.718c0-34.663 28.057-62.695 62.67-62.695 34.61 0 62.642 28.057 62.642 62.695v49.102c170.343 27.545 304.718 162.919 330.88 333.799h49.486c34.713 0 62.695 28.11 62.695 62.695-0.002 34.56-28.034 62.592-62.697 62.592zM575.897 168.729v63.975c0 34.663-28.007 62.695-62.642 62.695-34.585 0-62.67-28.057-62.67-62.695v-64.59c-107.879 23.73-192.896 108.466-217.191 216.142h63.36c34.638 0 62.72 28.007 62.72 62.72 0 34.535-28.057 62.567-62.72 62.567h-63.513c23.936 106.983 108.007 191.385 214.887 215.911v-62.158c0-34.688 28.007-62.72 62.617-62.72 34.688 0 62.642 28.082 62.642 62.77l0.002 62.747c107.214-23.577 191.847-107.47 216.729-214.144h-62.823c-34.56 0-62.72-28.032-62.72-62.617 0-34.56 28.082-62.695 62.72-62.695h63.897c-23.371-107.957-107.851-193.23-215.296-217.909z" />
<glyph unicode="&#x40;" d="M932.558 868.352c22.99 0 42.777-8.217 59.186-24.551 16.409-16.537 24.576-36.402 24.576-59.726v-672c0-23.040-8.167-42.905-24.576-59.417-16.409-16.59-36.174-25.063-59.186-25.063l-840.654 0.002c-22.962 0-42.802 8.345-59.367 24.704-16.665 16.462-24.832 36.274-24.832 59.776v672c0 22.99 8.167 42.752 24.576 59.367 16.384 16.715 36.249 24.907 59.623 24.907h840.654zM932.558 784.078h-840.654v-146.56h840.654v146.56zM932.558 426.702h-840.654v-314.599h840.654v314.599zM599.246 151.040h-213.017c-18.432 0-33.408 14.976-33.408 33.408 0 18.457 14.951 33.408 33.408 33.408h213.017c18.432 0 33.408-14.951 33.408-33.408 0-18.432-14.976-33.408-33.408-33.408zM291.687 151.040h-137.472c-18.432 0-33.408 14.976-33.408 33.408 0 18.457 14.951 33.408 33.408 33.408h137.472c18.432 0 33.408-14.951 33.408-33.408 0-18.432-14.976-33.408-33.408-33.408z" />
<glyph unicode="&#x41;" d="M744.857 809.625l-232.857-232.807-232.807 232.832c-35.609 35.584-93.234 35.609-128.846 0-35.584-35.584-35.559-93.287 0-128.846l232.832-232.832-232.832-232.832c-35.559-35.559-35.584-93.287 0-128.818 35.609-35.584 93.262-35.584 128.846-0.025l232.807 232.832 232.782-232.782c35.609-35.559 93.312-35.559 128.846 0 35.609 35.609 35.609 93.312 0 128.871l-232.731 232.782 232.754 232.782c35.609 35.559 35.609 93.262 0 128.846-35.557 35.557-93.312 35.557-128.793-0.002z" />
<glyph unicode="&#x42;" d="M511.975-56.014c-277.863 0-503.986 226.201-503.986 504.039 0 277.888 226.126 504.014 503.986 504.014 277.966 0 504.014-226.126 504.014-504.014 0.025-277.888-226.050-504.039-504.014-504.039zM511.975 789.71c-188.338 0-341.632-153.319-341.632-341.682s153.241-341.71 341.632-341.71c188.416 0 341.735 153.344 341.735 341.71 0 188.414-153.422 341.682-341.735 341.682zM677.863 327.424h-178.226c-44.85 0-81.177 36.377-81.177 81.177v236.391c0 44.825 36.302 81.177 81.177 81.177 44.825 0 81.177-36.352 81.177-81.177v-155.161h97.049c44.8 0 81.152-36.302 81.152-81.127-0.078-44.903-36.352-81.28-81.152-81.28z" />
<glyph unicode="&#x43;" d="M511.922 754.894c26.034 0 52.018-10.034 71.936-29.824l410.421-410.446c39.68-39.73 39.68-104.064 0-143.666-39.68-39.808-103.986-39.808-143.566 0l-338.841 338.635-338.56-338.635c-39.68-39.808-103.986-39.808-143.666 0-39.577 39.602-39.577 104.039 0 143.719l410.521 410.393c19.762 19.737 45.899 29.824 71.755 29.824z" />
<glyph unicode="&#x44;" d="M818.894 448.050c0-26.009-10.062-52.096-29.849-71.911l-410.421-410.443c-39.68-39.655-104.089-39.655-143.666 0-39.783 39.68-39.783 103.986 0 143.591l338.663 338.791-338.69 338.585c-39.783 39.68-39.783 103.986 0 143.666 39.577 39.577 104.039 39.577 143.719 0l410.393-410.546c19.765-19.712 29.851-45.849 29.851-71.733z" />
<glyph unicode="&#x45;" d="M205.106 447.95c0 26.009 10.062 52.096 29.849 71.886l410.421 410.443c39.68 39.655 104.064 39.655 143.641 0 39.808-39.68 39.808-103.986 0-143.591l-338.635-338.766 338.688-338.585c39.783-39.68 39.783-103.986 0-143.666-39.602-39.577-104.039-39.577-143.719 0l-410.393 410.521c-19.765 19.712-29.851 45.849-29.851 71.758z" />
<glyph unicode="&#x46;" d="M512.050 141.106c-26.009 0-52.071 10.062-71.936 29.849l-410.393 410.421c-39.63 39.68-39.63 104.089 0 143.666 39.68 39.783 103.986 39.783 143.591 0l338.816-338.638 338.535 338.665c39.705 39.783 103.986 39.783 143.666 0 39.577-39.577 39.577-104.039 0-143.719l-410.471-410.393c-19.813-19.765-45.899-29.851-71.808-29.851z" />
<glyph unicode="&#x47;" d="M372.658 80.562c-0.281 0-0.59 0-0.871 0-26.88 0.256-52.583 11.086-71.346 30.361l-260.455 266.549c-38.937 39.886-38.144 103.73 1.639 142.695 39.886 38.962 103.705 38.144 142.695-1.664l189.518-194.023 467.045 461.774c39.602 39.271 103.502 38.784 142.67-0.818 39.218-39.602 38.887-103.502-0.768-142.695l-539.111-533.045c-18.969-18.663-44.466-29.134-71.015-29.134z" />
<glyph unicode="&#x48;" d="M931.609 955.854h-839.040c-48.665 0-88.448-39.73-88.448-88.345v-309.145-88.295-176.615-88.345-176.59c0-48.64 39.783-88.345 88.448-88.345h839.015c48.59 0 88.27 39.705 88.27 88.345v839.015c0.025 48.613-39.655 88.32-88.245 88.32zM622.386 734.976v-176.64h-220.8v176.64h220.8zM622.386 470.066v-176.615h-220.8v176.615h220.8zM710.759 470.066h220.85v-176.615h-220.85v176.615zM710.759 558.386v176.64h220.85v-176.64h-220.85zM92.569 734.976h220.75v-176.64h-220.75v176.64zM92.569 470.066h220.75v-176.615l-220.75 0.002v176.613zM92.722 28.441c-0.153 0-0.153 0.103-0.153 0.103v176.537h220.75v-176.59l-220.597-0.050zM401.586 28.441v176.615h220.8v-176.59h-220.8zM931.431 28.441h-220.672v176.615h220.85v-176.512l-0.178-0.103z" />
<glyph unicode="&#x49;" d="M1055.385 213.273l133.095 132.992c8.526 8.654 13.927 20.224 14.464 32.999 0.050 0.512 0.153 1.024 0.153 1.486 0 0.359 0.103 0.665 0.103 0.921 0 5.479-1.049 10.727-2.738 15.641-0.256 0.615-0.409 1.28-0.615 1.87-2.023 5.554-4.992 10.418-8.729 14.72-0.256 0.334-0.334 0.743-0.562 0.999l-134.247 149.81c-18.304 20.455-49.87 22.194-70.375 3.815-11.008-9.856-16.59-23.474-16.59-37.223 0-11.826 4.199-23.758 12.775-33.255l59.598-66.56h-154.446c-27.57 0-49.92-22.222-49.92-49.817 0-27.648 22.375-49.87 49.92-49.87h145.561l-47.769-47.95c-19.559-19.534-19.559-51.072 0-70.606 19.328-19.479 50.969-19.479 70.322 0.027zM932.327 248.654c0 16.178 4.402 31.666 12.519 45.134h-19.584v-0.050h-220.288v176.231h220.288v-0.512h31.36l-2.816 3.175c-14.514 16.128-22.528 36.967-22.528 58.674 0 24.985 10.649 48.871 29.234 65.511 14.67 13.159 33.23 20.558 52.761 21.888v247.831c0.053 48.459-39.577 88.064-88.039 88.064h-837.017c-48.512 0-88.217-39.655-88.217-88.117v-308.402-88.089-176.231-88.114-176.128c0-48.512 39.705-88.142 88.217-88.142h836.992c48.434 0 88.064 39.63 88.064 88.114v131.84c-20.814 1.614-40.32 10.137-55.143 25.063-16.64 16.615-25.803 38.734-25.803 62.261zM704.921 734.286h220.288v-176.231h-220.288v176.231zM308.505 29.44l-220.107-0.050c-0.178 0-0.178 0.103-0.178 0.103v176.128h220.185v-176.178l0.101-0.002zM308.505 293.76h-220.288v176.231h220.238l0.025-176.231zM308.505 558.030h-220.288v176.203h220.238l0.025-176.203zM616.832 29.39h-220.288l-0.025 176.178h220.288l0.025-176.178zM616.832 293.76h-220.288v176.231h220.288v-176.231zM616.832 558.030h-220.288l-0.025 176.203h220.288l0.025-176.203zM925.234 29.49l-0.153-0.103h-220.16v176.181h220.288l0.025-176.078z" horiz-adv-x="1202" />
<glyph unicode="&#x4a;" d="M218.087 214.862l133.095 133.017c8.526 8.626 13.927 20.224 14.464 32.974 0.050 0.537 0.153 1.049 0.153 1.511 0 0.359 0.103 0.665 0.103 0.921 0 5.479-1.049 10.702-2.766 15.641-0.231 0.615-0.384 1.28-0.615 1.842-2.023 5.582-4.992 10.418-8.729 14.745-0.231 0.334-0.306 0.743-0.562 0.999l-134.247 149.785c-18.304 20.455-49.87 22.194-70.375 3.79-11.008-9.856-16.615-23.474-16.615-37.223 0-11.826 4.199-23.758 12.775-33.23l59.598-66.56h-154.446c-27.52 0-49.92-22.245-49.92-49.867s22.4-49.87 49.92-49.87h145.586l-47.769-47.95c-19.584-19.506-19.584-51.072 0-70.578 19.406-19.481 51.022-19.481 70.35 0.053zM1115.111 954.574h-836.942c-48.562 0-88.217-39.655-88.217-88.114v-246.478c21.938-2.048 42.546-11.801 57.319-28.313l109.056-121.65h142.080v-176.206h-147.609l-105.703-105.65c-14.873-15.054-34.304-23.552-55.143-25.241v-133.454c0-48.537 39.68-88.114 88.217-88.114h836.967c48.434 0 88.039 39.577 88.039 88.114l0.025 837.015c0 48.487-39.602 88.091-88.089 88.091zM498.382 29.49l-220.057-0.050c-0.153 0-0.153 0.103-0.153 0.103v176.128h220.185l0.025-176.181zM498.382 558.030h-220.185l-0.027 176.203h220.185l0.027-176.203zM806.706 29.44h-220.263v176.178h220.263v-176.178zM806.706 293.785h-220.263v176.206h220.263v-176.206zM806.706 558.030h-220.263l-0.025 176.203h220.263l0.025-176.203zM1115.111 29.49l-0.153-0.103h-220.135v176.181h220.263l0.025-176.078zM1115.111 293.785h-220.263v176.206h220.263v-176.206zM1115.111 558.080h-220.263l-0.025 176.206h220.263l0.025-176.206z" horiz-adv-x="1202" />
<glyph unicode="&#x4b;" d="M93.874 959.207h80.411v-1023.207h-80.411zM797.39 960h-21.863v-379.264l-112.050 101.938-112.050-101.938-0.002 379.264h-299.367v-1024h545.383c73.138 0 132.711 59.598 132.711 132.786v758.478c0 73.216-59.545 132.736-132.761 132.736z" />
<glyph unicode="&#x4c;" d="M992.921 520.96l-406.272 408.832c-19.175 19.303-45.287 30.208-72.473 30.258-26.521-0.128-53.351-10.702-72.654-29.927l-410.112-408.832c-40.089-39.986-40.192-104.91-0.206-144.974 19.993-20.121 46.311-30.183 72.601-30.183 26.19 0 52.352 9.984 72.37 29.927l234.574 233.856v-571.342c0-56.654 45.874-102.553 102.503-102.553s102.503 45.902 102.503 102.553l0.002 570.96 231.655-233.113c39.911-40.242 104.832-40.398 144.974-0.512 40.215 39.936 40.421 104.857 0.535 145.049z" />
<glyph unicode="&#x4d;" d="M584.935-32.921l408.832 406.272c19.303 19.175 30.208 45.287 30.258 72.498-0.128 26.521-10.702 53.351-29.927 72.654l-408.832 410.112c-39.986 40.089-104.91 40.192-144.974 0.206-20.146-20.021-30.181-46.338-30.181-72.629 0-26.19 9.984-52.352 29.927-72.37l233.856-234.574h-571.367c-56.654 0-102.553-45.874-102.553-102.503 0-56.654 45.902-102.528 102.553-102.528h570.983l-233.113-231.655c-40.242-39.911-40.398-104.832-0.512-144.974 39.936-40.19 104.857-40.395 145.049-0.51z" />
<glyph unicode="&#x4e;" d="M439.065 928.946l-408.832-406.272c-19.303-19.2-30.208-45.285-30.233-72.473 0.128-26.546 10.702-53.351 29.927-72.654l408.832-410.112c39.986-40.089 104.882-40.192 144.974-0.206 20.121 19.993 30.183 46.311 30.183 72.601 0 26.19-9.984 52.352-29.927 72.37l-233.831 234.574h571.342c56.654 0 102.553 45.874 102.553 102.503 0 56.626-45.902 102.503-102.553 102.503l-571.010 0.002 233.113 231.655c40.242 39.911 40.398 104.832 0.512 144.974-39.961 40.19-104.882 40.395-145.049 0.535z" />
<glyph unicode="&#x4f;" d="M31.054 375.065l406.272-408.832c19.175-19.303 45.287-30.208 72.498-30.258 26.521 0.128 53.326 10.702 72.626 29.927l410.112 408.832c40.089 39.986 40.192 104.91 0.206 144.974-19.993 20.121-46.311 30.183-72.601 30.183-26.19 0-52.352-9.984-72.345-29.927l-234.599-233.856v571.365c0 56.654-45.849 102.553-102.503 102.553s-102.528-45.902-102.528-102.553v-570.983l-231.655 233.113c-39.911 40.242-104.832 40.398-144.974 0.512-40.19-39.936-40.395-104.857-0.51-145.049z" />
<glyph unicode="&#x50;" d="M1678.464 726.322c-22.35 0-32.178-20.814-32.178-40.782 0-22.962 13.056-40.295 31.463-40.295h0.206c18.254 0 31.872 17.074 31.872 40.985 0.023 17.744-8.859 40.091-31.362 40.091zM1534.13 388.839c-32.153 0-60.494-22.887-69.042-55.602-0.256-1.586-0.512-3.072-0.818-4.608-0.896-4.889-1.842-10.009-1.842-14.183v-46.105c0-7.246 0.743-13.696 2.023-18.535 7.73-31.385 35.431-53.145 67.481-53.145 46.898 0 76.057 37.554 76.057 97.97 0.050 46.951-22.786 94.208-73.858 94.208zM2584.192 645.273h0.256c18.201 0 31.822 17.074 31.822 40.985 0 17.742-8.882 40.064-31.385 40.064-22.297 0-32.078-20.786-32.078-40.782 0.050-23.013 12.928-40.267 31.385-40.267zM1217.742 663.246c0-12.569 8.192-18.254 17.767-18.254 13.902 0 22.759 8.679 25.806 17.561 0.69 1.97 0.896 4.174 0.896 6.094v18.201c-20.816 0.462-44.469-3.225-44.469-23.602zM384.615 192.153c0.001-19.935 16.161-36.095 36.096-36.095s36.096 16.161 36.096 36.096c0 0 0 0.001 0 0.001 0 19.935-16.161 36.096-36.096 36.096-19.935 0-36.096-16.161-36.096-36.096zM924.594 472.014c-4.633-18.638-9.55-36.402-14.745-52.633l-34.176-100.967h98.61l-34.638 100.302c-6.039 18.942-10.725 36.503-15.051 53.298zM1239.321 388.839c-32.178 0-60.494-22.887-69.017-55.602-0.256-1.586-0.615-3.072-0.871-4.658-0.896-4.914-1.842-9.934-1.842-14.105v-46.105c0-7.246 0.768-13.696 2.048-18.535 7.73-31.385 35.431-53.145 67.481-53.145 46.926 0 76.007 37.554 76.007 97.97 0.075 46.923-22.809 94.181-73.806 94.181zM1359.31 725.657c-13.031 0-25.166-9.088-28.825-23.399-0.69-2.407-1.102-4.967-1.102-8.039v-18.866c0-2.382 0.206-4.736 0.665-6.912 3.737-13.262 14.976-22.375 28.622-22.375 20.224 0 31.897 16.281 31.897 40.37-0.053 21.25-10.88 39.221-31.257 39.221zM284.185 653.849h272.999v-407.961h-272.999zM837.607 736.103c-2.994 9.575-5.17 18.201-7.346 26.674h-0.69c-1.92-8.473-4.377-17.561-7.118-26.471l-14.311-42.29h43.982l-14.517 42.087zM2146.841 727.218c-19.456 0-27.673-17.742-29.262-31.079h55.602c0.13 11.982-5.040 31.079-26.341 31.079zM2760.857 393.216c-42.88 0-63.513-36.302-68.864-69.351h130.638c-0.409 11.854-3.25 36.558-19.737 53.298-10.471 10.677-24.576 16.053-42.037 16.053zM2380.416 736.743c0 19.559-13.618 28.85-34.51 28.85-8.167 0-14.489-0.818-17.742-1.536v-56.754c4.096-1.074 9.575-1.561 15.641-1.561 23.017-0.027 36.61 11.289 36.61 31.001zM2945.998 949.326h-2794.368c-74.83 0-135.552-60.622-135.552-135.502v-731.673c0-74.802 60.722-135.449 135.552-135.449h2794.446c74.802 0 135.474 60.647 135.474 135.449v731.723c0 74.83-60.699 135.451-135.552 135.451zM2820.146 740.864c34.254 0 43.086-30.183 43.086-49.458 0-3.89-0.256-6.912-0.59-9.088l-73.55 0.231c0.512-25.831 16.743-36.48 35.737-36.48 13.671 0 22.144 2.407 29.081 5.198l3.559-13.415c-6.784-2.994-18.51-6.681-35.15-6.681-32.078 0-51.584 21.504-51.584 52.839-0.048 31.92 18.846 56.855 49.41 56.855zM2675.047 738.279l1.152-17.127h0.462c5.223 9.778 17.305 19.534 34.638 19.534 14.489 0 37.145-8.679 37.145-44.672v-62.642h-19.097v60.494c0 16.896-6.272 31.207-24.27 31.207-12.366 0-22.144-8.935-25.522-19.534-0.946-2.382-1.408-5.863-1.408-8.882v-63.282h-18.994l-0.002 76.489c0 11.086-0.306 19.712-0.896 28.416h16.793zM2585.55 740.658c30.13 0 50.56-21.938 50.56-53.81 0-38.99-27.111-55.886-52.046-55.886h-0.206c-28.21 0-50.432 20.736-50.432 53.991 0.027 35.097 23.296 55.705 52.123 55.705zM2309.326 777.472c9.113 1.742 20.992 3.047 36.249 3.047 18.638 0 32.334-4.377 40.96-12.16 8.014-6.912 13.184-17.561 13.184-30.592 0-13.262-3.993-23.68-11.57-31.232-10.034-10.624-26.265-16.025-44.672-16.025-5.632 0-10.88 0.231-15.154 1.305v-58.546h-18.841l-0.027 144.203h-0.128zM2268.569 782.002c7.374 0 12.135-5.401 12.135-12.16 0-6.706-4.736-12.338-12.366-12.338h-0.153c-7.168 0-11.929 5.632-11.929 12.338-0.078 6.759 4.889 12.16 12.313 12.16zM2278.094 738.279v-104.96h-19.15v104.96h19.15zM1987.378 787.225h19.022v-65.458h0.487c3.047 5.401 7.808 10.368 13.618 13.44 5.71 3.456 12.366 5.401 19.584 5.401 14.080 0 36.583-8.679 36.583-44.928v-62.414h-19.047v60.263c0 17.074-6.272 31.257-24.27 31.257-12.338 0-21.863-8.729-25.522-19.122-1.102-2.61-1.358-5.401-1.358-9.088v-63.282h-19.047l-0.023 153.931h-0.027zM1904.768 738.279h16.281v19.275l18.61 5.838 0.002-25.113h27.314v-14.514h-27.314v-56.601c0-13.031 3.712-20.43 14.311-20.43 5.248 0 8.167 0.434 11.186 1.305l0.846-14.542c-3.737-1.28-9.575-2.61-16.896-2.61-9.038 0-16.103 3.022-20.711 7.961-5.12 5.888-7.346 15.257-7.346 27.598l-0.002 57.291h-16.281v14.542 0zM1524.071 740.864c34.279 0 43.111-30.183 43.111-49.458 0-3.89-0.231-6.912-0.64-9.088l-73.497 0.231c0.434-25.831 16.69-36.48 35.762-36.48 13.696 0 22.119 2.407 29.081 5.198l3.481-13.415c-6.681-2.994-18.457-6.681-35.097-6.681-32.103 0-51.609 21.504-51.609 52.839-0.053 31.92 18.816 56.855 49.408 56.855zM1432.601 787.225h19.047v-153.959h-19.047v153.959zM1237.888 726.528c-9.959 0-20.174-2.738-27.57-7.808l-4.377 12.825c8.679 5.426 21.504 9.113 34.688 9.113 32.359 0 40.114-21.938 40.114-42.958v-39.271c0-9.088 0.487-17.945 1.561-25.113h-17.177l-1.689 13.209h-0.64c-5.657-8.167-17.127-15.513-32.153-15.513-21.223 0-32.050 14.926-32.050 30.105 0 25.394 22.528 39.246 63.104 39.015v2.176c0.023 8.603-2.281 24.425-23.81 24.219zM1157.248 787.225h19.072v-153.959h-19.072v153.959zM1035.161 726.528c-10.009 0-20.224-2.738-27.57-7.808l-4.402 12.825c8.679 5.426 21.504 9.113 34.688 9.113 32.306 0 40.089-21.938 40.089-42.958v-39.271c0-9.088 0.462-17.945 1.561-25.113h-17.127l-1.742 13.209h-0.562c-5.607-8.167-17.127-15.513-32.103-15.513-21.273 0-32.103 14.926-32.103 30.105 0 25.394 22.528 39.246 63.104 39.015v2.176c0 8.603-2.405 24.425-23.833 24.219zM911.36 738.279l20.608-58.83c3.481-9.753 6.272-18.432 8.473-27.086h0.615c2.457 8.654 5.401 17.33 8.882 27.086l20.43 58.83h19.968l-41.266-104.96h-18.176l-39.963 104.96h20.43zM819.15 779.417h22.834l49.842-146.126h-20.199l-15.566 45.977h-51.815l-15.154-45.977h-19.481l49.538 146.126zM599.783 170.521c0-29.977-24.242-54.169-54.247-54.169h-249.65c-29.927 0-54.194 24.192-54.194 54.169l-0.027 553.141c0 29.952 24.217 54.222 54.194 54.222h249.65c29.977 0 54.247-24.242 54.247-54.222l0.027-553.141zM1026.688 155.904l-39.449 116.199h-124.494l-38.375-116.199h-58.905l128.59 378.368h63.975l129.127-378.368h-60.469zM1117.081 782.002c7.399 0 12.16-5.401 12.16-12.16 0-6.706-4.736-12.338-12.313-12.338h-0.306c-7.090 0-11.904 5.632-11.904 12.338 0 6.759 5.093 12.16 12.363 12.16zM1107.584 738.279h19.072v-104.96h-19.072v104.96zM1332.686 186.777c-22.478-23.783-53.273-36.839-86.734-36.839-32.153 0-60.544 12.313-78.286 33.586v-136.114h-57.266l0.025 291.662c0 37.042-0.64 62.823-2.201 86.322l-0.334 4.786h52.377l2.304-37.607c20.786 28.647 52.046 43.623 91.008 43.623 32.946 0 62.823-13.774 84.146-38.809 21.81-25.55 33.28-60.366 33.28-100.53 0.002-45.49-13.285-83.609-38.32-110.080zM1362.61 630.937c-15.154 0-27.136 5.838-35.122 19.712h-0.462l-1.102-17.358h-16.462c0.64 7.168 0.846 17.767 0.846 27.111l-0.023 126.823h19.072v-65.714h0.462c6.706 11.698 18.841 19.122 35.762 19.122 26.009 0 44.21-21.76 44.21-53.376 0-37.707-23.833-56.32-47.182-56.32zM1627.52 186.777c-22.503-23.783-53.298-36.839-86.759-36.839-32.128 0-60.494 12.313-78.233 33.586v-136.114h-57.266l0.025 291.662c0 37.042-0.69 62.823-2.226 86.322l-0.306 4.786h52.377l2.254-37.607c20.814 28.647 52.046 43.623 91.033 43.623 32.946 0 62.798-13.774 84.174-38.809 21.76-25.522 33.202-60.366 33.202-100.53 0.023-45.49-13.186-83.609-38.274-110.080zM1677.568 630.937h-0.256c-28.16 0-50.354 20.736-50.354 53.991 0 35.097 23.193 55.73 52.096 55.73 30.13 0 50.51-21.938 50.51-53.81-0.002-39.015-27.035-55.911-51.995-55.911zM1772.878 705.486c-0.793-2.382-1.255-5.863-1.255-8.91v-63.282h-18.994l0.025 76.569c0 11.086-0.256 19.712-0.921 28.416h16.921l0.999-17.127h0.537c5.198 9.778 17.28 19.534 34.663 19.534 14.542 0 37.095-8.679 37.095-44.672v-62.642h-19.15v60.494c0 16.896-6.169 31.207-24.192 31.207-12.469-0.055-22.171-8.99-25.728-19.586zM1881.038 149.888c-34.535 0-75.136 10.393-96.743 24.857l-2.841 1.92 15.36 48.846 4.942-3.175c23.218-14.848 53.248-23.374 82.535-23.374 44.825 0 72.729 22.375 72.729 58.521 0 31.897-18.048 50.535-66.638 68.658-68.583 24.882-100.53 59.648-100.53 109.362 0 61.696 50.969 104.832 123.954 104.832 46.489 0 73.856-13.106 83.378-18.713l3.2-1.895-16.153-47.794-4.786 2.994c-6.375 3.993-30.13 16.871-67.278 16.871-44.978 0-65.074-25.522-65.074-50.816 0-30.080 17.152-46.336 70.578-67.047 68.633-27.058 96.562-59.726 96.562-112.64 0.128-51.401-34.763-111.408-133.195-111.408zM2186.446 384.512h-69.019v-138.546c0-32.921 9.472-47.001 31.616-47.001 12.032 0 19.456 0.818 26.624 3.097l5.479 1.664 2.791-45.927-3.175-1.102c-7.271-2.585-22.656-6.834-44.313-6.834-22.862 0-42.521 7.73-55.399 21.81-13.312 14.926-19.762 38.706-19.762 72.601v140.185h-41.138l-0.002 45.671h41.138v47.566l56.114 17.614-0.023-65.179h69.070v-45.618zM2190.926 682.29l-73.497 0.206c0.409-25.806 16.64-36.455 35.737-36.455 13.618 0 22.144 2.407 29.081 5.198l3.559-13.415c-6.784-2.994-18.51-6.681-35.15-6.681-32.178 0-51.634 21.479-51.634 52.839 0 31.897 18.841 56.832 49.511 56.832 34.201 0 43.111-30.183 43.111-49.458-0.027-3.867-0.283-6.889-0.718-9.065zM2324.455 149.888h-0.512c-77.543 0-131.634 57.881-131.634 140.953 0 85.632 55.936 145.305 135.961 145.305 38.656 0 71.783-13.465 95.794-39.090 23.886-25.575 36.505-60.494 36.505-101.326 0-100.197-70.528-145.842-136.114-145.842zM2467.79 724.839c-12.263 0-21.838-8.704-25.522-19.097-1.049-2.61-1.358-5.426-1.358-9.088v-63.282h-18.994l-0.002 153.854h18.994v-65.458h0.512c3.047 5.401 7.886 10.368 13.618 13.44 5.682 3.456 12.416 5.401 19.559 5.401 14.105 0 36.608-8.679 36.608-44.928v-62.414h-18.994v60.263c-0.050 17.152-6.373 31.31-24.421 31.31zM2614.425 381.696c-30.13 0-53.735-22.631-60.238-57.728-0.946-6.706-1.561-14.208-1.561-22.194v-145.945h-57.241l0.512 187.008c0 34.432-0.64 59.801-2.151 82.457l-0.331 4.837h51.353l1.689-40.064c14.951 28.441 41.856 46.080 71.783 46.080 5.017 0 9.166-0.537 14.258-1.742l3.406-0.896v-53.376l-6.119 0.665c-4.839 0.437-9.447 0.898-15.36 0.898zM2876.544 283.47l-0.793-3.712-184.782 0.537c3.559-74.88 60.878-83.022 85.71-83.022 35.456 0 56.142 6.478 71.758 12.775l4.786 1.998 10.983-42.727-3.406-1.511c-17.561-7.961-47.513-17.358-90.649-17.358-81.97 0-134.912 54.297-134.912 138.162 0 87.218 53.198 148.071 129.486 148.071 83.815 0 113.486-69.682 113.486-129.383 0.048-10.263-0.514-18.123-1.666-23.831zM2818.61 727.218c-19.506 0-27.726-17.742-29.262-31.079h55.502c0.231 11.982-4.992 31.079-26.24 31.079zM1014.99 663.246c0-12.569 8.217-18.254 17.767-18.254 13.902 0 22.809 8.679 25.806 17.561 0.69 1.97 0.896 4.174 0.896 6.094v18.201c-20.816 0.462-44.469-3.225-44.469-23.602zM2326.706 391.090c-52.889 0-76.594-49.486-76.594-98.51 0-56.498 31.513-97.408 74.958-97.408h0.59c44.032 0 76.057 41.703 76.057 99.072-0.002 46.594-23.451 96.846-75.010 96.846zM1522.585 727.218c-19.534 0-27.801-17.742-29.312-31.079h55.502c0.203 11.982-4.967 31.079-26.19 31.079z" horiz-adv-x="3097" />
<glyph unicode="&#x51;" d="M603.008 507.033h-213.070l0.027 213.070c0 32.512-26.393 58.93-58.958 58.93s-58.983-26.393-58.983-58.93v-213.070h-213.067c-32.59 0-58.958-26.418-58.958-58.983 0-32.512 26.393-59.033 58.958-59.033h213.095v-213.017c0-32.512 26.393-59.033 58.958-59.033s58.958 26.393 58.958 59.033v213.017h213.095c32.562 0 58.958 26.418 58.958 59.033-0.055 32.565-26.423 58.983-59.013 58.983zM1624.014 854.759h-419.584v64.974c0 21.71-17.614 39.374-39.321 39.374s-39.399-17.641-39.399-39.376v-64.946h-52.43v64.946c0 21.71-17.614 39.374-39.374 39.374-21.682 0-39.321-17.639-39.321-39.374v-64.946h-26.137c-36.071 0-65.536-29.49-65.536-65.536v-786.713c0-35.993 29.465-65.536 65.536-65.536h262.222v262.247h131.175v-262.35h262.247c36.071 0 65.536 29.415 65.536 65.536l-0.027 786.713c-0.050 36.121-29.518 65.614-65.586 65.614zM1099.52 67.993h-131.097v131.175h131.097v-131.175 0zM1099.52 330.215h-131.097v131.122h131.097v-131.122 0zM1099.52 592.487h-131.097v131.097h131.097v-131.097 0zM1361.767 330.215h-131.122v131.122h131.122v-131.122zM1361.767 592.487h-131.122l-0.002 131.097h131.122l0.002-131.097zM1624.014 67.993h-131.175v131.175h131.175v-131.175zM1624.014 330.215h-131.175v131.122h131.175v-131.122zM1624.014 592.487h-131.175v131.097h131.175v-131.097z" horiz-adv-x="1689" />
<glyph unicode="&#x52;" d="M319.584 477.614h-112.926l-0.002 112.914c0 17.23-13.995 31.225-31.239 31.225-17.243 0-31.266-13.995-31.266-31.225v-112.926l-112.926 0.011c-17.257 0-31.239-14.007-31.239-31.253 0-17.23 13.995-31.28 31.253-31.28h112.926v-112.898c0-17.23 13.995-31.28 31.253-31.28 17.23 0 31.239 13.968 31.239 31.28v112.898h112.939c17.243 0 31.239 14.009 31.239 31.28-0.011 17.246-13.993 31.253-31.25 31.253zM999.070 580.683h-493.093c-13.559 0-24.631-11.086-24.631-24.645v-246.537c0-13.584 11.072-24.645 24.631-24.645h49.317c13.559 0 24.645 11.058 24.645 24.645v197.234h345.143v-197.237c0-13.559 11.058-24.631 24.631-24.631h49.33c13.559 0 24.617 11.072 24.617 24.631l0.014 246.539c0.041 13.559-11.019 24.645-24.603 24.645zM826.478 535.095h-147.92c-4.793 0-8.629 3.863-8.629 8.629 0 4.779 3.863 8.642 8.629 8.642h147.92c4.807 0 8.642-3.863 8.642-8.642 0-4.766-3.851-8.629-8.642-8.629z" />
<glyph unicode="&#x53;" d="M808.96 487.474h-517.095c-94.798 0-172.366-77.568-172.366-172.313v-204.288c0-94.798 77.568-172.338 172.366-172.338h517.095c94.798 0 172.338 77.543 172.338 172.338v204.288c0 94.745-77.541 172.313-172.338 172.313zM328.96 736.078c0-122.298 99.142-221.44 221.44-221.44s221.44 99.142 221.44 221.44c0 122.298-99.142 221.44-221.44 221.44-122.298 0-221.44-99.142-221.44-221.44z" horiz-adv-x="1099" />
<glyph unicode="&#x54;" d="M1004.494 135.68l-409.397 709.145c-45.696 79.129-120.473 79.129-166.169 0l-409.422-709.145c-45.696-79.154-8.32-143.872 83.072-143.872h818.841c91.394 0 128.77 64.718 83.074 143.872zM462.080 651.314h99.122v-374.681h-99.122v374.681zM511.666 111.282c-34.176 0-62.105 28.594-62.105 62.798 0 34.176 27.904 61.362 62.105 61.362 34.151 0 62.055-27.186 62.055-61.362 0-34.201-27.904-62.798-62.055-62.798z" />
<glyph unicode="&#x55;" d="M292.571 374.857v-219.429h-146.286v219.429h146.286zM512 667.429v-512h-146.286v512h146.286zM731.429 521.143v-365.714h-146.286v365.714h146.286zM950.857 740.571v-585.143h-146.286v585.143h146.286zM1024 100.571v694.857q0 7.429-5.429 12.857t-12.857 5.429h-914.286q-7.429 0-12.857-5.429t-5.429-12.857v-694.857q0-7.429 5.429-12.857t12.857-5.429h914.286q7.429 0 12.857 5.429t5.429 12.857zM1097.143 795.429v-694.857q0-37.714-26.857-64.571t-64.571-26.857h-914.286q-37.714 0-64.571 26.857t-26.857 64.571v694.857q0 37.714 26.857 64.571t64.571 26.857h914.286q37.714 0 64.571-26.857t26.857-64.571z" horiz-adv-x="1097" />
<glyph unicode="&#x56;" d="M219.429 192q0-45.714-32-77.714t-77.714-32-77.714 32-32 77.714 32 77.714 77.714 32 77.714-32 32-77.714zM512 121.714q1.143-16-9.714-27.429-10.286-12-26.857-12h-77.143q-14.286 0-24.571 9.429t-11.429 23.714q-12.571 130.857-105.429 223.714t-223.714 105.429q-14.286 1.143-23.714 11.429t-9.429 24.571v77.143q0 16.571 12 26.857 9.714 9.714 24.571 9.714h2.857q91.429-7.429 174.857-46t148-103.714q65.143-64.571 103.714-148t46-174.857zM804.571 120.571q1.143-15.429-10.286-26.857-10.286-11.429-26.286-11.429h-81.714q-14.857 0-25.429 10t-11.143 24.286q-6.857 122.857-57.714 233.429t-132.286 192-192 132.286-233.429 58.286q-14.286 0.571-24.286 11.143t-10 24.857v81.714q0 16 11.429 26.286 10.286 10.286 25.143 10.286h1.714q149.714-7.429 286.571-68.571t243.143-168q106.857-106.286 168-243.143t68.571-286.571z" horiz-adv-x="805" />
<glyph unicode="&#x57;" d="M731.429 118.857q0 14.857-10.857 25.714t-25.714 10.857-25.714-10.857-10.857-25.714 10.857-25.714 25.714-10.857 25.714 10.857 10.857 25.714zM877.714 118.857q0 14.857-10.857 25.714t-25.714 10.857-25.714-10.857-10.857-25.714 10.857-25.714 25.714-10.857 25.714 10.857 10.857 25.714zM950.857 246.857v-182.857q0-22.857-16-38.857t-38.857-16h-841.143q-22.857 0-38.857 16t-16 38.857v182.857q0 22.857 16 38.857t38.857 16h244q12-32 40.286-52.571t63.143-20.571h146.286q34.857 0 63.143 20.571t40.286 52.571h244q22.857 0 38.857-16t16-38.857zM765.143 617.143q-9.714-22.857-33.714-22.857h-146.286v-256q0-14.857-10.857-25.714t-25.714-10.857h-146.286q-14.857 0-25.714 10.857t-10.857 25.714v256h-146.286q-24 0-33.714 22.857-9.714 22.286 8 39.429l256 256q10.286 10.857 25.714 10.857t25.714-10.857l256-256q17.714-17.143 8-39.429z" horiz-adv-x="951" />
<glyph unicode="&#x58;" d="M950.857 411.429q-86.857 134.857-217.714 201.714 34.857-59.429 34.857-128.571 0-105.714-75.143-180.857t-180.857-75.143-180.857 75.143-75.143 180.857q0 69.143 34.857 128.571-130.857-66.857-217.714-201.714 76-117.143 190.571-186.571t248.286-69.429 248.286 69.429 190.571 186.571zM539.429 630.857q0 11.429-8 19.429t-19.429 8q-71.429 0-122.571-51.143t-51.143-122.571q0-11.429 8-19.429t19.429-8 19.429 8 8 19.429q0 49.143 34.857 84t84 34.857q11.429 0 19.429 8t8 19.429zM1024 411.429q0-19.429-11.429-39.429-80-131.429-215.143-210.571t-285.429-79.143-285.429 79.429-215.143 210.286q-11.429 20-11.429 39.429t11.429 39.429q80 130.857 215.143 210.286t285.429 79.429 285.429-79.429 215.143-210.286q11.429-20 11.429-39.429z" />
<glyph unicode="&#x59;" d="M863.429 356.571q0-2.857-0.571-4-36.571-153.143-153.143-248.286t-273.143-95.143q-83.429 0-161.429 31.429t-139.143 89.714l-73.714-73.714q-10.857-10.857-25.714-10.857t-25.714 10.857-10.857 25.714v256q0 14.857 10.857 25.714t25.714 10.857h256q14.857 0 25.714-10.857t10.857-25.714-10.857-25.714l-78.286-78.286q40.571-37.714 92-58.286t106.857-20.571q76.571 0 142.857 37.143t106.286 102.286q6.286 9.714 30.286 66.857 4.571 13.143 17.143 13.143h109.714q7.429 0 12.857-5.429t5.429-12.857zM877.714 813.714v-256q0-14.857-10.857-25.714t-25.714-10.857h-256q-14.857 0-25.714 10.857t-10.857 25.714 10.857 25.714l78.857 78.857q-84.571 78.286-199.429 78.286-76.571 0-142.857-37.143t-106.286-102.286q-6.286-9.714-30.286-66.857-4.571-13.143-17.143-13.143h-113.714q-7.429 0-12.857 5.429t-5.429 12.857v4q37.143 153.143 154.286 248.286t274.286 95.143q83.429 0 162.286-31.714t140-89.429l74.286 73.714q10.857 10.857 25.714 10.857t25.714-10.857 10.857-25.714z" horiz-adv-x="878" />
<glyph unicode="&#x5a;" d="M968.24 958.464h-912.48c-30.608 0-55.248-24.64-55.248-55.248v-912.48c0-30.608 24.64-55.248 55.248-55.248h490.992v396.537h-133.664v154.158h133.664v117.625c0 123.303 76.441 199.941 196.848 199.941 72.482 0 121.271-5.682 121.271-5.682l0.002-139.010h-81.662c-51.751 0-76.062-18.201-76.062-73.070v-99.803h152.377l-19.605-154.16-132.773 0.002v-396.537h261.090c30.608 0 55.248 24.64 55.248 55.248v912.48c0 30.608-24.64 55.248-55.248 55.248z" />
<glyph unicode="&#x5b;" d="M877.714 192v-73.143q0-14.857-10.857-25.714t-25.714-10.857h-804.571q-14.857 0-25.714 10.857t-10.857 25.714v73.143q0 14.857 10.857 25.714t25.714 10.857h804.571q14.857 0 25.714-10.857t10.857-25.714zM877.714 484.571v-73.143q0-14.857-10.857-25.714t-25.714-10.857h-804.571q-14.857 0-25.714 10.857t-10.857 25.714v73.143q0 14.857 10.857 25.714t25.714 10.857h804.571q14.857 0 25.714-10.857t10.857-25.714zM877.714 777.143v-73.143q0-14.857-10.857-25.714t-25.714-10.857h-804.571q-14.857 0-25.714 10.857t-10.857 25.714v73.143q0 14.857 10.857 25.714t25.714 10.857h804.571q14.857 0 25.714-10.857t10.857-25.714z" horiz-adv-x="878" />
<glyph unicode="&#x5c;" d="M157.755 960h708.489c87.371 0 157.755-70.631 157.755-157.755v-708.489c0-87.371-70.631-157.755-157.755-157.755h-708.489c-87.371 0-157.755 70.631-157.755 157.755v708.489c0 87.371 70.631 157.755 157.755 157.755zM471.696 188.601c10.35-10.393 24.446-16.265 39.136-16.293 14.315 0.069 28.786 5.76 39.207 16.112l221.39 220.13c21.641 21.531 21.696 56.487 0.11 78.059-10.793 10.834-24.999 16.251-39.191 16.251-14.137 0-28.261-5.376-39.054-16.112l-126.642-125.918v307.643c0 30.503-24.75 55.218-55.333 55.218s-55.346-24.713-55.346-55.218v-307.435l-125.054 125.518c-21.543 21.669-56.592 21.751-78.261 0.277-21.696-21.504-21.808-56.459-0.277-78.101zM471.696 188.601z" />
<glyph unicode="&#x5d;" d="M733.143 650.857l-202.857-202.857 202.857-202.857 82.286 82.286q16.571 17.714 40 8 22.286-9.714 22.286-33.714v-256q0-14.857-10.857-25.714t-25.714-10.857h-256q-24 0-33.714 22.857-9.714 22.286 8 39.429l82.286 82.286-202.857 202.857-202.857-202.857 82.286-82.286q17.714-17.143 8-39.429-9.714-22.857-33.714-22.857h-256q-14.857 0-25.714 10.857t-10.857 25.714v256q0 24 22.857 33.714 22.286 9.714 39.429-8l82.286-82.286 202.857 202.857-202.857 202.857-82.286-82.286q-10.857-10.857-25.714-10.857-6.857 0-13.714 2.857-22.857 9.714-22.857 33.714v256q0 14.857 10.857 25.714t25.714 10.857h256q24 0 33.714-22.857 9.714-22.286-8-39.429l-82.286-82.286 202.857-202.857 202.857 202.857-82.286 82.286q-17.714 17.143-8 39.429 9.714 22.857 33.714 22.857h256q14.857 0 25.714-10.857t10.857-25.714v-256q0-24-22.286-33.714-7.429-2.857-14.286-2.857-14.857 0-25.714 10.857z" horiz-adv-x="878" />
<glyph unicode="&#x5e;" d="M512 713.143v-256q0-8-5.143-13.143t-13.143-5.143h-182.857q-8 0-13.143 5.143t-5.143 13.143v36.571q0 8 5.143 13.143t13.143 5.143h128v201.143q0 8 5.143 13.143t13.143 5.143h36.571q8 0 13.143-5.143t5.143-13.143zM749.714 512q0 84.571-41.714 156t-113.143 113.143-156 41.714-156-41.714-113.143-113.143-41.714-156 41.714-156 113.143-113.143 156-41.714 156 41.714 113.143 113.143 41.714 156zM877.714 512q0-119.429-58.857-220.286t-159.714-159.714-220.286-58.857-220.286 58.857-159.714 159.714-58.857 220.286 58.857 220.286 159.714 159.714 220.286 58.857 220.286-58.857 159.714-159.714 58.857-220.286z" horiz-adv-x="878" />
<glyph unicode="&#xf000;" d="M0 960l1024-1024h-1024z" />
</font>
</defs>
</svg>
