<?xml version="1.0" standalone="no"?>
<!DOCTYPE svg PUBLIC "-//W3C//DTD SVG 1.1//EN" "http://www.w3.org/Graphics/SVG/1.1/DTD/svg11.dtd" >
<svg xmlns="http://www.w3.org/2000/svg">
<metadata>
This is a custom SVG font generated by IcoMoon.
<iconset grid="14"></iconset>
</metadata>
<defs>
<font id="icon-font" horiz-adv-x="448" >
<font-face units-per-em="448" ascent="384" descent="-64" />
<missing-glyph horiz-adv-x="448" />
<glyph class="hidden" unicode="&#xf000;" d="M0,384L 448 -64L0 -64 z" horiz-adv-x="0" />
<glyph unicode="&#x21;" d="M 658.224,221.566c-46.435,0-84.246-37.789-84.246-84.246c0-46.469, 37.8-84.246, 84.246-84.246c 46.458,0, 84.246,37.778, 84.246,84.246
		C 742.47,183.778, 704.682,221.566, 658.224,221.566zM 895.384,307.403l-86.229,0 c0,0-21.246-0.022-34.328,15.501l-29.848,41.776C 738.315,373.976, 720.742,381.581, 705.902,381.581l-108.080,0 
		c-14.885,0-32.458-7.605-39.099-16.89l-29.837-41.776c-13.070-15.333-34.518-15.501-34.518-15.501l-78.187,0 c-31.136,0-56.594-25.469-56.594-56.594
		l0-237.563 c0-31.125, 25.48-56.582, 56.594-56.582l 479.226,0 c 31.147,0, 56.594,25.469, 56.594,56.582L 952,250.821 C 951.989,281.934, 926.531,307.403, 895.384,307.403z
		 M 658.224,19.854c-64.87,0-117.477,52.606-117.477,117.477c0,64.882, 52.618,117.477, 117.477,117.477s 117.477-52.606, 117.477-117.477
		C 775.701,72.461, 723.083,19.854, 658.224,19.854zM 269.73,186.152l-95.312,0 L 174.418,281.442 c0,14.549-11.805,26.365-26.365,26.365s-26.365-11.816-26.365-26.365l0-95.29 L 26.365,186.152 C 11.782,186.152,0,174.314,0,159.776
	s 11.794-26.398, 26.365-26.398l 95.323,0 l0-95.278 c0-14.56, 11.794-26.387, 26.354-26.387s 26.365,11.771, 26.365,26.387l0,95.278 l 95.323,0 
	c 14.56,0, 26.354,11.827, 26.354,26.398C 296.072,174.314, 284.278,186.152, 269.73,186.152z" horiz-adv-x="952" data-tags="upload-photos" />
<glyph unicode="&#x22;" d="M 447.832,298.835c-16.43-7.28-34.149-12.242-52.763-14.459c 18.973,11.368, 33.555,29.389, 40.387,50.826
	c-17.774-10.528-37.397-18.178-58.307-22.254c-16.755,17.808-40.611,28.974-67.021,28.974c-50.714,0-91.896-41.126-91.896-91.874
	c0-7.179, 0.862-14.213, 2.419-20.91c-76.294,3.819-143.987,40.387-189.314,95.962C 23.464,311.558, 18.928,295.8, 18.928,278.944
	c0-31.864, 16.206-59.965, 40.835-76.462c-15.030,0.482-29.221,4.614-41.574,11.469c0-0.381,0-0.762,0-1.142c0-44.52, 31.674-81.614, 73.64-90.059
	c-7.694-2.106-15.803-3.203-24.214-3.203c-5.88,0-11.659,0.594-17.259,1.646c 11.693-36.512, 45.562-63.090, 85.803-63.829
	C 104.742,32.779, 65.094,18.096, 22.086,18.096c-7.426,0-14.717,0.437-21.918,1.221c 40.622-26.029, 88.928-41.261, 140.784-41.261
	c 168.941,0, 261.33,139.955, 261.33,261.341c0,3.965-0.067,7.941-0.235,11.883C 419.978,264.261, 435.568,280.422, 447.832,298.835z" data-tags="twitter" />
<glyph unicode="&#x23;" d="M 315.75,264.821L 132.272,264.821 c-21.627,0-39.312-17.696-39.312-39.312l0-248.954 c0-21.638, 17.685-39.323, 39.312-39.323l 183.49,0 
		c 21.616,0, 39.29,17.685, 39.29,39.323L 355.051,225.52 C 355.040,247.125, 337.366,264.821, 315.75,264.821z M 171.573-18.517c0-7.235-5.858-13.093-13.104-13.093
		c-7.235,0-13.104,5.858-13.104,13.093L 145.365,220.603 c0,7.235, 5.869,13.104, 13.104,13.104c 7.235,0, 13.104-5.858, 13.104-13.104L 171.573-18.517 z M 237.093-18.517
		c0-7.235-5.858-13.093-13.104-13.093s-13.104,5.858-13.104,13.093L 210.885,220.603 c0,7.235, 5.858,13.104, 13.104,13.104s 13.104-5.858, 13.104-13.104L 237.093-18.517 z
		 M 302.613-18.517c0-7.235-5.858-13.093-13.104-13.093c-7.246,0-13.104,5.858-13.104,13.093L 276.405,220.603 c0,7.235, 5.846,13.104, 13.104,13.104
		c 7.235,0, 13.104-5.858, 13.104-13.104L 302.613-18.517 zM 355.051,317.226l-45.875,0 L 309.176,363.112 c0,10.853-8.792,19.645-19.645,19.645L 158.458,382.757 c-10.853,0-19.656-8.803-19.656-19.645
		l0-45.886 L 92.926,317.226 c-10.853,0-19.645-8.792-19.645-19.656s 8.803-19.656, 19.645-19.656l 262.125,0 c 10.875,0, 19.667,8.792, 19.667,19.656
		S 365.926,317.226, 355.051,317.226z M 178.114,343.445l 91.75,0 l0-26.219 l-91.75,0 L 178.114,343.445 z" data-tags="trash" />
<glyph unicode="&#x24;" d="M 315.739,225.621L 132.272,225.621 c-21.627,0-39.312-15.579-39.312-34.608l0-219.162 c0-19.051, 17.685-34.63, 39.312-34.63l 183.49,0 
	c 21.616,0, 39.29,15.579, 39.29,34.63L 355.051,191.024 C 355.040,210.042, 337.366,225.621, 315.739,225.621z M 171.573-23.814c0-6.362-5.858-11.514-13.104-11.514
	c-7.235,0-13.104,5.152-13.104,11.514L 145.365,186.701 c0,6.362, 5.869,11.536, 13.104,11.536s 13.104-5.152, 13.104-11.536L 171.573-23.814 z M 237.093-23.814
	c0-6.362-5.846-11.514-13.104-11.514c-7.246,0-13.104,5.152-13.104,11.514L 210.885,186.701 c0,6.362, 5.858,11.536, 13.104,11.536c 7.246,0, 13.104-5.152, 13.104-11.536
	L 237.093-23.814 z M 302.624-23.814c0-6.362-5.858-11.514-13.104-11.514c-7.246,0-13.104,5.152-13.104,11.514L 276.416,186.701 c0,6.362, 5.835,11.536, 13.104,11.536
	c 7.235,0, 13.104-5.152, 13.104-11.536L 302.624-23.814 zM 364.426,284.544l-45.158,8.086l 8.098,45.17c 1.904,10.674-5.197,20.877-15.882,22.792l-129.024,23.094
	c-10.685,1.915-20.899-5.208-22.814-15.87l-8.086-45.17L 106.4,330.733C 95.715,332.648, 85.512,325.536, 83.597,314.851
	C 81.682,304.155, 88.805,293.941, 99.467,292.037l 258.037-46.189c 10.696-1.926, 20.899,5.186, 22.814,15.882C 382.234,272.414, 375.133,282.618, 364.426,284.544z
	 M 194.869,341.53l 90.328-16.162l-4.626-25.816l-90.328,16.173L 194.869,341.53z" data-tags="trash-open" />
<glyph unicode="&#x25;" d="M 663.813,177.27L 437.573,177.27 c-41.462,0-75.387-33.958-75.387-75.41l0-89.365 c0-41.474, 33.925-75.398, 75.387-75.398l 226.229,0 
		c 41.474,0, 75.387,33.925, 75.387,75.398l0,89.365 C 739.222,143.312, 705.286,177.27, 663.813,177.27zM 453.802,286.022A96.88,96.88 180 1 1 647.562,286.022A96.88,96.88 180 1 1 453.802,286.022zM 263.962,185.838L 170.688,185.838 L 170.688,279.112 c0,14.235-11.558,25.794-25.816,25.794c-14.235,0-25.805-11.558-25.805-25.794l0-93.274 L 25.805,185.838 
	C 11.547,185.838,0,174.269,0,160.022c0-14.235, 11.558-25.838, 25.805-25.838l 93.274,0 l0-93.251 c0-14.235, 11.558-25.838, 25.805-25.838
	s 25.816,11.558, 25.816,25.838l0,93.251 l 93.274,0 c 14.258,0, 25.816,11.57, 25.816,25.838C 289.778,174.269, 278.23,185.838, 263.962,185.838z" horiz-adv-x="739.2" data-tags="sign-up" />
<glyph unicode="&#x26;" d="M 367.786,239.744c 6.037-10.058, 10.73-21.28, 13.966-33.69c 8.96-1.859, 18.458-3.013, 28.414-3.584s 19.242-2.352, 27.787-5.499
		c 2.968-0.706, 4.413-2.352, 4.413-4.917l0-64.669 c0-2.162-2.744-4.122-8.098-5.891c-5.443-1.77-11.704-3.091-18.794-4.211
		c-7.112-1.154-14.056-1.904-20.877-2.486c-6.698-0.571-11.166-1.019-13.429-1.411c-2.565-10.382-6.798-21.056-12.846-31.998
		c 10.058-14.986, 21.146-29.389, 33.152-43.098l 1.635-4.122c0-1.456-2.486-4.95-7.493-10.506c-5.051-5.589-10.718-11.57-17.102-17.987
		c-6.429-6.384-12.522-12.107-18.222-17.114c-5.824-5.051-9.531-7.493-11.122-7.493c-0.392,0-2.789,1.635-7.258,5.006
		c-4.57,3.371-9.475,7.19-14.851,11.267c-5.365,4.077-10.506,8.019-15.288,11.794c-4.883,3.718-7.963,5.981-9.173,6.698
		c-5.365-2.89-10.685-5.41-16.106-7.538c-5.365-2.094-10.797-3.864-16.274-5.331c-0.392-2.206-0.818-6.698-1.523-13.563
		c-0.65-6.866-1.49-13.821-2.565-20.877c-1.12-7.045-2.397-13.328-3.864-19.006c-1.49-5.723-3.394-8.512-5.768-8.512l-64.938,0 
		c-2.61,0-4.346,1.602-5.23,4.648c-2.554,8.96-4.301,18.402-5.186,28.235c-0.907,9.845-1.904,19.242-3.013,28.235
		c-11.211,3.326-21.806,7.896-32.088,13.709c-7.493-5.678-14.896-11.178-22.21-16.542c-7.314-5.443-14.493-11.122-21.638-17.147l-3.315-1.075
		c-1.042,0-4.458,2.442-10.102,7.493c-5.701,5.006-11.57,10.73-17.685,17.114c-6.138,6.418-11.726,12.398-16.755,17.987
		c-5.029,5.544-7.515,9.050-7.515,10.506c0,0.403, 1.456,2.8, 4.368,7.269s 6.384,9.397, 10.282,14.627c 3.942,5.331, 7.795,10.427, 11.547,15.21
		c 3.741,4.872, 6.138,8.064, 7.269,9.531c-6.048,10.058-10.741,21.235-13.989,33.734c-9.352,1.814-18.906,2.968-28.638,3.494
		c-9.834,0.582-19.018,2.397-27.563,5.499c-2.979,0.75-4.435,2.386-4.435,4.962l0,64.714 c0,2.173, 2.834,4.122, 8.422,5.846
		s 11.838,3.192, 18.771,4.256c 6.933,1.064, 13.698,1.949, 20.238,2.442c 6.597,0.571, 10.965,1.019, 13.205,1.411
		c 3.237,11.133, 7.706,21.806, 13.406,32.043c-10.058,14.986-21.034,29.344-32.894,43.042L 44.912,286.325c0,1.467, 2.531,5.051, 7.627,10.595
		c 5.13,5.544, 10.819,11.57, 17.136,17.909c 6.339,6.384, 12.354,12.107, 18.245,17.158c 5.846,5.006, 9.486,7.582, 10.954,7.582
		c 0.392,0, 2.811-1.725, 7.269-5.096c 4.48-3.416, 9.442-7.134, 14.93-11.211c 5.499-4.122, 10.64-8.064, 15.512-11.794
		c 4.838-3.763, 7.806-5.981, 8.87-6.742c 5.32,2.923, 10.685,5.32, 16.094,7.269c 5.365,1.904, 10.853,3.763, 16.576,5.589
		c0,2.218, 0.224,6.686, 0.75,13.474c 0.571,6.742, 1.411,13.608, 2.486,20.563c 1.109,6.922, 2.565,13.216, 4.256,18.928
		c 1.792,5.589, 3.741,8.467, 5.936,8.467L 256.48,379.016 c 2.587,0, 4.278-1.378, 5.208-4.077c 2.195-8.949, 3.752-18.357, 4.659-28.28
		C 267.232,336.77, 268.576,327.104, 270.2,317.584c 5.656-1.422, 11.155-3.192, 16.274-5.186c 5.253-1.994, 10.394-4.57, 15.534-7.672
		c 1.467,1.064, 4.547,3.539, 9.285,7.269c 4.771,3.763, 9.845,7.672, 15.221,11.794c 5.365,4.122, 10.293,7.762, 14.549,10.987
		c 4.301,3.192, 6.978,4.794, 8.109,4.794c 1.075,0, 4.48-2.565, 10.102-7.582c 5.678-5.051, 11.637-10.774, 17.842-17.158
		c 6.194-6.339, 11.794-12.365, 16.822-17.909c 5.029-5.544, 7.538-9.128, 7.538-10.595c0-0.706-1.59-3.326-4.738-7.795
		c-3.237-4.48-6.821-9.352-10.73-14.672c-3.909-5.23-7.773-10.326-11.525-15.198C 370.742,243.821, 368.491,240.853, 367.786,239.744L 367.786,239.744z
		 M 224.19,94.222c 8.926,0, 17.438,1.77, 25.491,5.365c 8.008,3.494, 14.874,8.333, 20.686,14.358c 5.712,6.026, 10.416,13.037, 13.955,21.101
		c 3.539,8.030, 5.331,16.542, 5.331,25.491c0,8.96-1.781,17.326-5.331,25.222s-8.243,14.806-13.955,20.832
		c-5.813,6.070-12.678,10.763-20.686,14.090c-8.053,3.371-16.565,5.096-25.491,5.096c-9.016,0-17.573-1.725-25.67-5.096
		C 190.4,217.355, 183.344,212.662, 177.43,206.592c-5.914-6.037-10.618-12.947-13.989-20.832c-3.394-7.896-5.074-16.262-5.074-25.222
		c0-8.949, 1.68-17.461, 5.074-25.491c 3.371-8.064, 8.064-15.075, 13.989-21.101s 12.97-10.864, 21.101-14.358
		C 206.618,95.992, 215.174,94.222, 224.19,94.222z" data-tags="settings" />
<glyph unicode="&#x27;" d="M 434.358,12.384L 337.68,107.92c 7.806,13.048, 14.302,26.734, 18.794,41.429c 5.152,17.035, 7.829,34.451, 7.829,52.371
	c0,24.92-4.794,48.44-14.258,70.459c-9.475,22.098-22.579,41.35-39.245,57.96c-16.666,16.565-35.974,29.658-57.938,39.234
	c-21.986,9.531-45.416,14.347-70.392,14.347c-25.155,0-48.664-4.805-70.638-14.347C 89.846,359.83, 70.571,346.738, 53.894,330.15
	C 37.173,313.552, 24.102,294.277, 14.627,272.202c-9.464-22.042-14.213-45.539-14.213-70.459c0-24.998, 4.749-48.552, 14.213-70.526
	c 9.486-22.131, 22.557-41.362, 39.278-57.96c 16.677-16.587, 36.008-29.669, 58.027-39.144c 22.086-9.475, 45.562-14.168, 70.549-14.168
	c 17.864,0, 35.235,2.565, 52.181,7.818c 13.978,4.222, 27.104,10.438, 39.738,17.718l 97.485-96.354c 8.658-8.613, 19.925-12.846, 31.282-12.846
	c 11.458,0, 22.893,4.39, 31.606,13.25C 451.998-33.043, 451.853-4.875, 434.358,12.384z M 224.694,101.234c-13.238-5.746-27.272-8.613-42.202-8.613
	s-29.064,2.867-42.347,8.613c-13.328,5.768-24.898,13.462-34.72,23.274c-9.845,9.733-17.685,21.246-23.554,34.406
	c-5.869,13.182-8.77,27.462-8.77,42.806c0,14.941, 2.901,28.986, 8.77,42.168c 5.869,13.261, 13.686,24.83, 23.554,34.742
	c 9.766,9.878, 21.392,17.707, 34.72,23.475C 153.485,307.84, 167.552,310.752, 182.493,310.752c 14.952,0, 28.986-2.912, 42.202-8.635
	c 13.205-5.757, 24.763-13.518, 34.574-23.475c 9.867-9.912, 17.662-21.526, 23.554-34.742c 5.88-13.205, 8.792-27.272, 8.792-42.168
	c0-15.322-2.912-29.635-8.792-42.806c-5.88-13.16-13.619-24.674-23.554-34.406C 249.502,114.741, 237.922,107.002, 224.694,101.234z" data-tags="search" />
<glyph unicode="&#x28;" d="M 409.69,302.851l-42.838,42.838C 362.202,350.339, 353.024,354.129, 346.449,354.129l-17.92,0 L 328.529,204.8 L 119.471,204.8 L 119.471,354.129 L 41.809,354.129 c-6.575,0-11.951-5.376-11.951-11.951L 29.871-22.191 c0-6.575, 5.376-11.951, 11.951-11.951L 406.191-34.129 
		c 6.575,0, 11.951,5.376, 11.951,11.951L 418.129,282.449 C 418.129,289.024, 414.339,298.202, 409.69,302.851z M 358.4,7.68c0-6.575-5.376-11.951-11.951-11.951L 101.551-4.271 c-6.575,0-11.951,5.376-11.951,11.951L 89.6,13.649 
		c0,6.575, 5.376,11.951, 11.951,11.951L 346.449,25.6 c 6.575,0, 11.951-5.376, 11.951-11.951L 358.4,7.68 z M 358.4,67.409c0-6.575-5.376-11.951-11.951-11.951L 101.551,55.471 c-6.575,0-11.951,5.376-11.951,11.951L 89.6,73.391 c0,6.575, 5.376,11.951, 11.951,11.951L 346.449,85.329 
		c 6.575,0, 11.951-5.376, 11.951-11.951L 358.4,67.409 z M 358.4,127.151c0-6.575-5.376-11.951-11.951-11.951L 101.551,115.2 c-6.575,0-11.951,5.376-11.951,11.951L 89.6,133.12 c0,6.575, 5.376,11.951, 11.951,11.951L 346.449,145.071 c 6.575,0, 11.951-5.376, 11.951-11.951L 358.4,127.151 zM 238.929,324.271L 298.671,324.271L 298.671,234.671L 238.929,234.671z" data-tags="save" />
<glyph unicode="&#x29;" d="M 672,339.2c0,24.64-20.171,44.8-44.8,44.8L 44.8,384 c-24.64,0-44.8-20.16-44.8-44.8L0-19.2c0-24.64, 20.16-44.8, 44.8-44.8l 582.4,0 c 24.629,0, 44.8,20.16, 44.8,44.8L 672,339.2 z M 199.214,327.406
	c 38.83,0, 70.314-31.483, 70.314-70.325c0-38.83-31.494-70.314-70.314-70.314c-38.842,0-70.314,31.483-70.314,70.314
	C 128.89,295.923, 160.373,327.406, 199.214,327.406z M 336.045,58.539c0-30.106-24.629-54.734-54.734-54.734L 117.107,3.805 c-30.106,0-54.734,24.618-54.734,54.734
	l0,64.859 c0,30.106, 24.606,54.734, 54.734,54.734l 164.214,0 c 30.106,0, 54.734-24.64, 54.734-54.734L 336.056,58.539 z M 616.045,28.4c0-12.32-10.080-22.4-22.4-22.4l-179.2,0 
	c-12.32,0-22.4,10.080-22.4,22.4l0,11.2 c0,12.32, 10.080,22.4, 22.4,22.4l 179.2,0 c 12.32,0, 22.4-10.080, 22.4-22.4L 616.045,28.4 z M 616.045,154.4c0-12.32-10.080-22.4-22.4-22.4l-179.2,0 c-12.32,0-22.4,10.080-22.4,22.4l0,11.2 
	c0,12.32, 10.080,22.4, 22.4,22.4l 179.2,0 c 12.32,0, 22.4-10.080, 22.4-22.4L 616.045,154.4 z M 616.045,280.4c0-12.32-10.080-22.4-22.4-22.4l-179.2,0 c-12.32,0-22.4,10.080-22.4,22.4l0,11.2 c0,12.32, 10.080,22.4, 22.4,22.4l 179.2,0 
	c 12.32,0, 22.4-10.080, 22.4-22.4L 616.045,280.4 z" horiz-adv-x="672" data-tags="profile" />
<glyph unicode="&#x2a;" d="M 407.915,199.85L 263.872,199.85 L 263.872,343.893 c0,22.019-17.83,39.872-39.861,39.872c-22.019,0-39.872-17.864-39.872-39.872l0-144.043 L 40.096,199.85 
	c-21.997,0-39.872-17.853-39.872-39.872c 0.022-22.008, 17.853-39.838, 39.872-39.861l 144.043,0 L 184.139-23.904 c0-22.008, 17.864-39.861, 39.872-39.861
	c 22.030,0, 39.883,17.853, 39.883,39.861L 263.894,120.117 l 144.021,0 c 21.997,0, 39.861,17.853, 39.861,39.861S 429.912,199.85, 407.915,199.85z" data-tags="plus" />
<glyph unicode="&#x2b;" d="M 338.475,100.181c 1.781,0, 6.518-2.027, 14.179-6.182c 7.638-4.155, 15.859-8.792, 24.651-13.776
	c 8.837-5.074, 17.349-10.125, 25.57-15.266c 8.355-5.174, 13.955-8.501, 16.845-9.957c 2.957-1.792, 7.157-4.155, 12.667-7.022
	c 5.51-2.845, 9.139-6.059, 11.066-9.789c 0.347-1.109, 0.526-3.192, 0.526-6.306c0-2.968-0.269-6.294-0.874-10.035
	c-0.526-3.808-1.165-7.739-2.195-11.838c-0.851-4.155-2.027-8.075-3.304-11.838c-1.221-3.763-2.464-7.056-3.595-9.834
	c-3.237-7.157-8.747-13.686-16.33-19.656c-7.594-6.003-16.173-11.043-25.491-15.176c-9.363-4.178-18.95-7.414-28.806-9.934
	c-9.822-2.453-18.267-3.674-25.435-3.674c-14.75,0-28.795,2.318-42.314,6.978c-13.518,4.749-26.813,9.677-40.074,15.030
	c-22.613,8.198-43.971,19.118-64.098,32.525c-20.082,13.339-38.752,28.448-56.078,45.17c-17.17,16.688-33.219,34.765-48.126,54.118
	c-14.907,19.376-28.112,39.178-39.693,59.427c-4.603,7.47-9.397,16.251-14.459,26.298c-5.051,10.002-9.778,20.25-14.034,30.8
	c-4.379,10.55-7.93,21.022-10.774,31.293c-2.822,10.293-4.267,19.97-4.267,28.952c0,10.046, 1.344,20.574, 4.043,31.494
	c 2.587,10.898, 6.541,21.426, 11.76,31.416c 5.298,10.035, 11.592,19.074, 18.906,27.138c 7.246,8.053, 15.826,14.392, 25.626,19.018
	c 2.184-0.403, 4.614-0.403, 7.302,0c 2.643,0.381, 5.040,0.56, 7.28,0.56c 1.814,0, 4.592-0.134, 8.277-0.269
	c 3.618-0.235, 7.381-0.403, 10.998-0.56C 101.92,379.083, 105.403,378.646, 108.853,378.042c 3.36-0.683, 5.891-1.378, 7.56-2.106
	c 1.434-1.075, 2.845-2.744, 4.144-4.928c 1.288-2.195, 2.33-4.693, 3.293-7.314c 0.918-2.598, 1.736-5.443, 2.61-8.277
	c 0.84-2.845, 1.579-5.107, 2.33-6.966c 1.075-3.338, 3.259-9.341, 6.462-18.043c 3.248-8.792, 6.53-17.718, 9.778-26.858
	c 3.315-9.195, 6.294-17.774, 8.982-25.648c 2.654-7.851, 3.965-12.757, 3.965-14.594c0-6.798-2.285-13.048-6.765-18.738
	c-4.502-5.678-9.43-10.954-14.818-15.859c-5.421-4.894-10.461-9.475-15.086-13.731c-4.547-4.346-6.866-8.557-6.866-12.533
	c0-3.718, 1.512-8.232, 4.558-13.518c 3.035-5.354, 5.421-9.554, 7.302-12.678c 15.456-26.634, 32.76-49.47, 51.923-68.488
	c 19.141-19.018, 42.336-36.243, 69.563-51.643c 3.338-1.859, 7.448-4.402, 12.544-7.616c 5.040-3.192, 9.688-4.816, 13.91-4.816
	c 4.178,0, 9.016,2.89, 14.437,8.814c 5.443,5.858, 10.931,12.376, 16.565,19.41c 5.555,7.056, 11.312,13.496, 17.091,19.387
	C 328.126,97.224, 333.558,100.181, 338.475,100.181z" data-tags="phone" />
<glyph unicode="&#x2c;" d="M 283.976,9.226c0-6.72-5.488-12.208-12.208-12.208L 73.226-2.982 c-6.709,0-12.208,5.488-12.208,12.208L 61.018,207.779 
			c0,6.698, 5.499,12.197, 12.208,12.197l 121.24,0 l 61.018,61.018L 73.226,280.994 C 32.85,281.005,0,248.155,0,207.779l0-198.554 C0-31.15, 32.85-64, 73.226-64
			l 198.554,0 c 40.376,0, 73.226,32.85, 73.226,73.226L 345.005,191.494 l-61.018-61.018L 283.987,9.226 zM 436.677,372.195c-7.157,7.078-17.17,11.446-27.518,11.458L 189.515,384c-21.47,0.022-38.909-17.349-38.931-38.83
			c-0.034-10.752, 4.323-20.518, 11.379-27.563c 7-7.022, 16.71-11.368, 27.406-11.379l 125.653-0.19l-26.936-26.936l-59.114-59.114l-67.2-67.2
			c-15.187-15.21-15.21-39.816,0-54.992c 15.187-15.198, 39.794-15.176, 54.992,0l 67.211,67.211l0-0.011 l 59.114,59.114l0,0l 26.835,26.835l-0.403-124.667
			c-0.101-21.493, 17.282-38.954, 38.741-38.987c 21.493-0.078, 38.965,17.282, 39.043,38.752L 448,344.643C 448.045,354.97, 443.979,364.882, 436.677,372.195z" data-tags="open-link" />
<glyph unicode="&#x2d;" d="M 381.853,225.184c0-15.658-2.296-30.531-6.821-44.677c-4.57-14.056-10.741-27.474-18.334-40.118l-106.075-184.979
	c-7.661-12.69-16.52-19.006-26.566-19.006c-10.125,0-18.794,6.317-26.040,19.006L 91.381,140.949c-7.65,12.734-13.731,26.018-18.323,40.074
	c-4.603,13.989-6.899,28.717-6.899,44.195c0,21.795, 4.088,42.403, 12.342,61.723c 8.21,19.275, 19.522,36.12, 33.902,50.512
	c 14.336,14.291, 31.158,25.603, 50.456,33.835c 19.298,8.221, 39.85,12.32, 61.421,12.32c 21.851,0, 42.347-4.099, 61.41-12.32
	c 19.208-8.198, 35.851-19.533, 50.12-33.835c 14.28-14.392, 25.525-31.237, 33.712-50.512C 377.742,267.598, 381.853,247.013, 381.853,225.184z M 224.291,147.355
	c 10.64,0, 20.765,2.016, 30.374,6.082c 9.61,3.976, 17.976,9.554, 25.043,16.598c 7.090,7.123, 12.645,15.434, 16.621,24.931
	c 4.043,9.498, 6.059,19.6, 6.059,30.24c0,10.584-2.016,20.765-6.059,30.374c-3.976,9.587-9.542,17.998-16.621,25.357
	c-7.067,7.235-15.322,12.891-24.853,16.89c-9.565,4.032-19.712,6.070-30.565,6.070c-10.965,0-21.078-2.038-30.442-6.070
	c-9.363-3.987-17.662-9.632-24.909-16.89c-7.291-7.336-12.902-15.714-16.934-25.256c-3.976-9.464-5.97-19.656-5.97-30.453
	c0-10.629, 2.005-20.742, 5.981-30.24c 4.054-9.498, 9.643-17.83, 16.934-24.92c 7.246-7.067, 15.546-12.622, 24.909-16.61
	C 203.213,149.371, 213.326,147.355, 224.291,147.355z" data-tags="marker" />
<glyph unicode="&#x2e;" d="M 348.096,382.6L 102.726,382.6 l0-445.2 L 348.096-62.6 c 31.819,0, 57.702,25.894, 57.702,57.691L 405.798,324.898 C 405.798,356.717, 379.915,382.6, 348.096,382.6z
		 M 147.168,165.186c-0.784,0.784-1.602,1.478-2.554,2.072L 144.614,184.528 c0,1.355, 0.056,3.17, 0.112,5.376c 0.067,2.24, 0.47,4.402, 1.154,6.418
		c 0.694,2.050, 1.814,3.808, 3.36,5.286c 1.557,1.49, 3.73,2.218, 6.496,2.218c-3.371,2.195-6.070,5.074-8.086,8.59
		s-3.035,7.482-3.035,11.85c0,3.27, 0.638,6.373, 1.882,9.33c 1.243,2.957, 2.979,5.533, 5.219,7.795
		c 2.251,2.24, 4.838,3.965, 7.784,5.219c 2.957,1.266, 6.059,1.882, 9.318,1.882c 3.427,0, 6.597-0.616, 9.542-1.882
		c 2.968-1.254, 5.522-2.979, 7.694-5.219c 2.139-2.251, 3.909-4.838, 5.208-7.784c 1.333-2.934, 1.994-6.037, 1.994-9.33
		c0-4.29-1.008-8.266-3.102-11.805c-2.094-3.55-4.816-6.44-8.232-8.646c 2.811,0, 4.973-0.728, 6.541-2.218
		c 1.557-1.478, 2.677-3.248, 3.326-5.286c 0.694-2.027, 1.109-4.178, 1.232-6.418c 0.179-2.206, 0.235-4.021, 0.235-5.376l0-17.282 
		c-1.075-0.571-1.938-1.266-2.643-2.072c-0.728-0.818-1.77-1.21-3.147-1.21L 150.192,163.965 C 148.982,163.965, 147.997,164.368, 147.168,165.186z
		 M 340.256,76.963c-0.918-0.448-1.646-0.963-2.24-1.49c-0.627-0.538-1.31-1.042-2.106-1.613c-0.818-0.504-1.702-1.075-2.677-1.635
		c-0.963-0.582-2.352-1.165-4.066-1.747L 173.734,70.478 c-2.654,0-4.715,0.84-6.194,2.554c-1.501,1.725-3.114,3.035-4.95,3.942l0,43.949 
		c0,5.914, 1.68,11.155, 5.13,15.736c 3.394,4.581, 7.090,8.736, 11.122,12.454c 0.739,0.717, 14.784,5.253, 16.464,5.555
		c 4.637,0.728, 9.554,1.478, 14.773,2.229c 5.242,0.694, 10.338,1.422, 15.344,2.195c-6.798,4.346-12.298,10.046-16.408,17.237
		c-4.144,7.112-6.216,15.008-6.216,23.554c0,6.675, 1.288,12.958, 3.886,18.917c 2.565,5.97, 6.026,11.099, 10.45,15.445
		c 4.402,4.346, 9.542,7.806, 15.422,10.382c 5.925,2.587, 12.186,3.875, 18.872,3.875s 12.936-1.266, 18.894-3.875
		c 5.891-2.576, 11.032-6.037, 15.445-10.382c 4.402-4.346, 7.862-9.486, 10.472-15.445c 2.565-5.97, 3.853-12.253, 3.853-18.917
		c0-8.546-2.050-16.363-6.126-23.531c-4.099-7.112-9.565-12.869-16.464-17.259c 4.962-0.75, 10.058-1.467, 15.243-2.15
		c 5.208-0.694, 10.158-1.445, 14.829-2.274c 1.747-0.291, 3.438-0.482, 5.096-0.549c 1.658-0.101, 3.259-0.347, 4.67-0.806
		c 1.355-0.291, 2.632-0.851, 3.819-1.758c 1.165-0.851, 2.218-1.669, 3.102-2.419c 4.984-4.491, 8.938-8.904, 11.782-13.283
		c 2.822-4.334, 4.245-9.296, 4.245-14.918L 340.256,76.963L 340.256,76.963z M 353.494,201.619c 1.445-1.478, 2.531-3.248, 3.214-5.286
		c 0.694-2.027, 1.12-4.178, 1.232-6.418c 0.168-2.206, 0.235-4.021, 0.235-5.376l0-17.282 c-0.896-0.571-1.725-1.266-2.565-2.072
		c-0.784-0.818-1.803-1.21-3.024-1.21l-37.251,0 c-1.344,0-2.408,0.392-3.114,1.21c-0.728,0.784-1.613,1.478-2.677,2.072L 309.546,184.528 
		c0,1.355, 0.112,3.17, 0.235,5.376c 0.134,2.24, 0.582,4.402, 1.288,6.418c 0.739,2.050, 1.859,3.808, 3.427,5.286
		c 1.534,1.49, 3.685,2.218, 6.395,2.218c-3.394,2.206-6.149,5.074-8.232,8.59s-3.114,7.482-3.114,11.85
		c0,3.27, 0.638,6.373, 1.859,9.33c 1.254,2.946, 3.013,5.533, 5.23,7.784c 2.251,2.24, 4.872,3.965, 7.784,5.219
		c 2.957,1.254, 6.149,1.882, 9.542,1.882c 3.259,0, 6.362-0.627, 9.341-1.882c 2.957-1.243, 5.555-2.979, 7.784-5.219
		c 2.206-2.251, 3.976-4.838, 5.23-7.784c 1.254-2.946, 1.859-6.048, 1.859-9.33c0-4.29-1.008-8.266-3.035-11.805
		c-1.982-3.55-4.682-6.44-8.109-8.646C 349.866,203.837, 352.016,203.109, 353.494,201.619zM 42.202,382.264L 68.914,382.264L 68.914-62.6L 42.202-62.6z" data-tags="manage-guests" />
<glyph unicode="&#x2f;" d="M 224.011,166.406L 419.922,318.245c 2.509,1.938, 5.365,3.024, 8.254,3.629c-6.451,4.446-14.258,7.101-22.669,7.101L 42.504,328.974 
		c-8.411,0-16.206-2.643-22.68-7.101c 2.923-0.605, 5.768-1.658, 8.299-3.629L 224.011,166.406zM 444.506,286.526l-208.208-161.37c-7.235-5.622-17.338-5.622-24.584,0L 3.506,286.526C 3.024,286.896, 2.789,287.445, 2.352,287.859l0-256.67 
		c0-22.086, 18.054-40.152, 40.141-40.152l 362.992,0 c 22.064,0, 40.141,18.066, 40.141,40.152L 445.626,287.859 C 445.211,287.445, 444.965,286.896, 444.506,286.526z" data-tags="mail" />
<glyph unicode="&#x30;" d="M 355.186-65.4L 63.784-65.4 c-15.086,0-27.317,12.23-27.317,27.317L 36.467,358.083 c0,15.086, 12.23,27.317, 27.317,27.317l 291.402,0 
		c 15.098,0, 27.317-12.23, 27.317-27.317l0-76.418 c0-15.086-12.23-27.317-27.317-27.317c-15.086,0-27.306,12.23-27.306,27.317L 327.88,330.755 L 91.101,330.755 l0-341.51 
		l 236.768,0 l0,49.090 c0,15.098, 12.253,27.317, 27.306,27.317c 15.109,0, 27.306-12.23, 27.306-27.317l0-76.406 C 382.502-53.17, 370.283-65.4, 355.186-65.4z
		M 541.139,178.446l-105.392,105.403c-10.17,10.181-26.757,10.181-36.904,0c-10.192-10.192-10.192-26.69,0-36.882l 59.651-59.662
	L 310.52,187.306 c-15.086,0-27.317-12.242-27.317-27.317c0-15.109, 12.242-27.306, 27.317-27.306l 147.963,0 l-59.651-59.674c-10.192-10.17-10.192-26.69,0-36.882
	c 10.17-10.17, 26.734-10.17, 36.926,0l 105.392,105.437C 546.235,146.638, 548.8,153.325, 548.8,160.011C 548.8,166.653, 546.235,173.362, 541.139,178.446z" data-tags="logout" />
<glyph unicode="&#x31;" d="M 381.226-61.189L 95.256-61.189 c-14.806,0-26.813,12.006-26.813,26.813L 68.443,40.608 c0,14.806, 12.006,26.813, 26.813,26.813
			c 14.806,0, 26.813-11.995, 26.813-26.813l0-48.171 l 232.344,0 L 354.413,327.563 L 122.069,327.563 L 122.069,279.392 c0-14.806-12.006-26.813-26.813-26.813
			c-14.806,0-26.813,12.006-26.813,26.813L 68.443,354.376 c0,14.806, 12.006,26.813, 26.813,26.813l 285.97,0 c 14.806,0, 26.813-12.006, 26.813-26.813l0-388.763 
			C 408.038-49.182, 396.032-61.189, 381.226-61.189zM 293.093,178.122l-103.421,103.432c-10.002,9.99-26.242,9.99-36.221,0c-10.024-10.002-10.024-26.197,0-36.198
			l 58.554-58.542L 66.774,186.813 c-14.806,0-26.813-12.018-26.813-26.813c0-14.829, 12.006-26.813, 26.813-26.813l 145.208,0 l-58.531-58.554
			c-10.024-10.002-10.024-26.208,0-36.198c 9.979-10.002, 26.219-10.002, 36.221,0l 103.421,103.466c 4.995,4.984, 7.515,11.547, 7.515,18.122
			C 300.608,166.552, 298.088,173.138, 293.093,178.122z" data-tags="login" />
<glyph unicode="&#x32;" d="M 349.91,199.346l-7.874,0 l0,65.565 c0,65.083-52.942,118.037-118.037,118.037S 105.963,329.994, 105.963,264.91l0-65.565 L 98.112,199.346 
	c-17.326,0-31.483-14.168-31.483-31.472l0-199.349 c0-17.315, 14.157-31.483, 31.483-31.483l 251.798,0 c 17.304,0, 31.461,14.168, 31.461,31.483L 381.371,167.874 
	C 381.371,185.178, 367.214,199.346, 349.91,199.346z M 244.978,26.238c0-11.592-9.386-20.989-20.978-20.989s-20.978,9.397-20.978,20.989l0,83.933 
	c0,11.581, 9.386,20.978, 20.978,20.978s 20.978-9.397, 20.978-20.978L 244.978,26.238 z M 289.576,199.346L 158.424,199.346 l0,65.565 c0,36.165, 29.422,65.576, 65.576,65.576
	s 65.576-29.422, 65.576-65.576L 289.576,199.346 z" data-tags="lock" />
<glyph unicode="&#x33;" d="M 364.806,334.731L 184.565,334.731 L 184.565,362.642 c0,9.33-7.56,16.912-16.89,16.912c-9.33,0-16.901-7.571-16.901-16.912l0-27.91 l-22.523,0 L 128.251,362.642 
	c0,9.33-7.56,16.912-16.901,16.912c-9.33,0-16.89-7.571-16.89-16.912l0-27.91 L 83.194,334.731 c-15.49,0-28.168-12.667-28.168-28.157l0-337.938 
	c0-15.501, 12.678-28.179, 28.168-28.179l 112.638,0 l0,112.672 l 56.325,0 l0-112.672 l 112.65,0 c 15.501,0, 28.168,12.678, 28.168,28.179L 392.974,306.563 
	C 392.974,322.064, 380.307,334.731, 364.806,334.731z M 139.518-3.218L 83.194-3.218 l0,56.336 l 56.314,0 L 139.507-3.218 z M 139.518,109.432L 83.194,109.432 l0,56.314 l 56.314,0 L 139.507,109.432 z
	 M 139.518,222.070L 83.194,222.070 L 83.194,278.395 l 56.314,0 L 139.507,222.070 z M 252.168,109.432l-56.325,0 l0,56.314 l 56.325,0 L 252.168,109.432 z M 252.168,222.070l-56.325,0 L 195.843,278.395 l 56.325,0 L 252.168,222.070 z
	 M 364.806-3.218l-56.325,0 l0,56.336 l 56.325,0 L 364.806-3.218 z M 364.806,109.432l-56.325,0 l0,56.314 l 56.325,0 L 364.806,109.432 z M 364.806,222.070l-56.325,0 L 308.482,278.395 l 56.325,0 L 364.806,222.070 z
	" data-tags="location" />
<glyph unicode="&#x34;" d="M0,325.2A58.8,58.8 180 1 1 117.6,325.2A58.8,58.8 180 1 1 0,325.2zM 403.2,280.4L 209.070,280.4 c-24.741,0-44.8,20.059-44.8,44.8s 20.059,44.8, 44.8,44.8L 403.2,370 c 24.741,0, 44.8-20.059, 44.8-44.8S 427.941,280.4, 403.2,280.4zM0,160A58.8,58.8 180 1 1 117.6,160A58.8,58.8 180 1 1 0,160zM 403.2,115.2L 209.070,115.2 c-24.741,0-44.8,20.059-44.8,44.8s 20.059,44.8, 44.8,44.8L 403.2,204.8 c 24.741,0, 44.8-20.059, 44.8-44.8S 427.941,115.2, 403.2,115.2zM0-5.2A58.8,58.8 180 1 1 117.6-5.199999999999989A58.8,58.8 180 1 1 0-5.199999999999989zM 403.2-50L 209.070-50 c-24.741,0-44.8,20.059-44.8,44.8s 20.059,44.8, 44.8,44.8L 403.2,39.6 c 24.741,0, 44.8-20.059, 44.8-44.8S 427.941-50, 403.2-50z" data-tags="list" />
<glyph unicode="&#x35;" d="M 240.43,181.448l0,0.672 c-0.146-0.224-0.291-0.448-0.437-0.672L 240.43,181.448 zM 409.483,384.885L 38.506,384.885 c-20.955,0-38.013-16.699-38.013-37.24l0-375.312 c0-20.518, 17.046-37.218, 38.013-37.218l 370.978,0 
		c 20.966,0, 38.035,16.699, 38.035,37.218L 447.518,347.645 C 447.507,368.186, 430.45,384.885, 409.483,384.885z M 138.298,12.317l-65.744,0 L 72.554,210.142 l 65.744,0 L 138.298,12.317 z
		 M 105.426,237.134L 105,237.134 c-22.064,0-36.333,15.198-36.333,34.194c0,19.398, 14.706,34.182, 37.184,34.182c 22.49,0, 36.344-14.773, 36.77-34.182
		C 142.621,252.344, 128.341,237.134, 105.426,237.134z M 375.379,12.317l-65.733,0 l0,105.818 c0,26.6-9.52,44.755-33.32,44.755
		c-18.155,0-28.997-12.242-33.723-24.058c-1.747-4.222-2.173-10.136-2.173-16.050l0-110.466 l-65.744,0 c0,0, 0.862,179.256,0,197.826l 65.744,0 l0-28.022 
		c 8.725,13.485, 24.36,32.659, 59.259,32.659c 43.254,0, 75.69-28.258, 75.69-89.029L 375.379,12.317 z" data-tags="linkedin" />
<glyph unicode="&#x36;" d="M 324.576,377.661c 15.949,0, 31.080-3.147, 45.382-9.318c 14.269-6.171, 26.746-14.538, 37.363-25.077
	c 10.606-10.483, 19.006-22.915, 25.211-37.083c 6.149-14.123, 9.262-29.434, 9.262-45.763c0-15.613-2.99-30.666-9.016-45.226
	c-6.014-14.526-14.336-27.182-25.077-37.878c-1.445-1.456-3.338-3.472-5.544-5.891c-2.296-2.442-4.558-4.805-6.832-7.056
	c-2.296-2.318-4.614-4.222-6.978-5.869c-2.318-1.646-4.592-2.486-6.765-2.486c-3.293,0-6.126,1.131-8.467,3.293
	c-1.501,1.109-2.565,3.371-3.27,6.843c-1.814,8.467-3.909,16.509-6.171,23.979c-2.229,7.414-5.118,15.266-8.568,23.43
	c-0.728,0.762-1.131,2.162-1.131,4.357c0,2.162, 1.008,4.48, 2.912,6.91c 1.882,2.486, 3.83,5.286, 5.835,8.49
	c 2.005,3.136, 3.954,7.011, 5.869,11.458c 1.882,4.435, 2.834,9.654, 2.834,15.658c0,6.35-1.198,12.387-3.651,18.11
	C 365.344,284.275, 361.939,289.192, 357.683,293.28c-4.245,4.077-9.139,7.37-14.683,9.811c-5.566,2.453-11.682,3.685-18.424,3.685
	c-7.448,0-14.291-1.613-20.44-4.794c-6.194-3.203-11.95-7.056-17.326-11.693c-5.331-4.659-10.483-9.789-15.378-15.4
	c-4.894-5.634-9.744-10.83-14.47-15.579l-48.474-49.056c-4.57-4.178-7.963-9.094-10.136-14.829c-2.162-5.723-3.27-11.805-3.27-18.11
	c0-7.862, 1.445-14.47, 4.402-19.925c 2.878-5.454, 4.334-9.632, 4.334-12.555c0-2.162-1.949-5.678-5.846-10.618
	c-3.875-4.872-8.344-9.946-13.339-15.142c-4.984-5.152-10.002-9.722-15.008-13.619c-5.006-3.864-8.837-5.835-11.57-5.835
	c-5.264,0-9.901,3.293-13.91,9.766c-3.976,6.586-7.493,14.078-10.506,22.646c-2.99,8.557-5.398,17.091-7.056,25.603
	c-1.781,8.534-2.598,15.098-2.598,19.667c0,15.635, 2.99,30.542, 8.994,44.789c 5.958,14.291, 14.358,27.026, 25.077,38.304l 83.126,82.566
	c 10.718,11.155, 23.408,19.622, 38.035,25.67C 293.832,374.648, 308.952,377.661, 324.576,377.661z M 324.027,142.674c0-15.635-2.99-30.688-9.016-45.248
	c-5.925-14.515-14.336-27.16-25.077-37.856l-83.104-82.589c-10.741-11.122-23.408-19.667-37.968-25.637c-14.683-6.003-29.826-9.016-45.438-9.016
	c-16.352,0-31.573,3.046-45.651,9.139c-14.078,6.082-26.466,14.426-37.038,25.077c-10.685,10.651-19.062,23.128-25.256,37.464
	c-6.149,14.381-9.274,29.568-9.274,45.55c0,15.613, 3.114,30.666, 9.274,45.035c 6.194,14.47, 14.638,27.171, 25.368,38.058
	c 1.445,1.445, 3.226,3.394, 5.354,5.88c 2.061,2.453, 4.334,4.704, 6.798,6.978c 2.43,2.117, 4.816,4.066, 7.213,5.802
	c 2.318,1.736, 4.704,2.621, 7.056,2.621c 3.27,0, 5.835-1.232, 7.627-3.55c 1.501-1.109, 2.542-3.27, 3.315-6.563
	c 1.781-8.534, 3.853-16.509, 6.126-23.979c 2.229-7.448, 5.286-15.266, 9.117-23.43c 0.739-2.162, 1.131-3.73, 1.131-4.614
	c0-2.184-1.019-4.525-2.901-6.978c-1.904-2.442-3.898-5.242-5.846-8.333c-1.994-3.069-3.942-6.798-5.891-11.2
	c-1.882-4.312-2.834-9.565-2.834-15.736c0-13.104, 4.525-24.102, 13.451-32.984c 9.005-8.926, 19.97-13.362, 32.872-13.362
	c 7.459,0, 14.336,1.523, 20.731,4.614c 6.35,3.091, 12.13,7.146, 17.304,12.018c 5.152,4.894, 10.226,10.013, 15.12,15.422
	c 4.894,5.331, 9.744,10.416, 14.47,15.4l 49.034,48.462c 8.882,9.677, 13.462,20.765, 13.597,33.533c0,7.829-1.534,14.426-4.76,19.79
	c-3.158,5.331-4.726,9.565-4.726,12.69c0,2.162, 1.949,5.622, 5.846,10.416c 3.875,4.85, 8.31,9.856, 13.328,15.008
	c 4.984,5.197, 10.114,9.766, 15.288,13.619c 5.163,3.92, 8.949,5.869, 11.267,5.869c 5.286,0, 9.923-3.248, 13.899-9.677
	c 4.010-6.429, 7.515-13.877, 10.528-22.456c 2.99-8.557, 5.365-17.080, 7.056-25.67C 323.198,153.795, 324.027,147.232, 324.027,142.674z" data-tags="link" />
<glyph unicode="&#x37;" d="M 395.629,194.798L 356.72,194.798 c 2.845-11.010, 4.491-22.523, 4.491-34.418
				c0-76.026-61.589-137.614-137.603-137.614c-76.014,0-137.603,61.6-137.603,137.626c0,11.894, 1.691,23.397, 4.514,34.418L 51.587,194.81 L 51.587,5.552 
				c0-9.509, 7.694-17.181, 17.214-17.181l 309.635,0 c 9.52,0, 17.192,7.706, 17.192,17.181L 395.629,194.798 z M 395.629,315.21c0,9.498-7.706,17.192-17.192,17.192
				l-51.598,0 c-9.498,0-17.192-7.694-17.192-17.192l0-51.61 c0-9.509, 7.706-17.203, 17.192-17.203l 51.598,0 c 9.52,0, 17.192,7.706, 17.192,17.203L 395.629,315.21 z
				 M 223.619,246.397c-47.522,0-86.016-38.506-86.016-86.005c0-47.522, 38.506-86.038, 86.016-86.038c 47.499,0, 86.027,38.506, 86.027,86.038
				C 309.635,207.891, 271.118,246.397, 223.619,246.397 M 395.629-63.238L 51.587-63.238 C 23.094-63.238,0-40.144,0-11.618L0,332.413 C0,360.906, 23.094,384, 51.587,384
				l 344.042,0 c 28.526,0, 51.621-23.094, 51.621-51.598l0-344.030 C 447.238-40.144, 424.155-63.238, 395.629-63.238" data-tags="instagram" />
<glyph unicode="&#x38;" d="M 224,384C 100.285,384,0,283.715,0,160s 100.285-224, 224-224s 224,100.285, 224,224S 347.715,384, 224,384z M 250.835,11.499l-53.312,0 L 197.523,198.461 l 53.312,0 L 250.835,11.499 z
	 M 224.19,245.299c-17.506,0-31.595,14.090-31.595,31.606c0,17.125, 14.090,31.595, 31.595,31.595c 17.517,0, 31.606-14.47, 31.606-31.595
	C 255.797,259.389, 241.707,245.299, 224.19,245.299z" data-tags="info" />
<glyph unicode="&#x39;" d="M 41.339,300.997L 74.368,300.997 c 7.515-25.088, 30.766-43.378, 58.307-43.378s 50.781,18.29, 58.307,43.378l 215.678,0 
		c 10.080,0, 18.267,8.176, 18.267,18.267c0,10.091-8.165,18.267-18.267,18.267L 190.96,337.531 c-7.538,24.875-30.766,42.616-58.285,42.616
		c-27.003,0-49.874-18.088-57.837-42.616l-33.488,0 c-10.069,0-18.267-8.176-18.267-18.267C 23.083,309.173, 31.27,300.997, 41.339,300.997zM 406.661,179.611l-20.866,0 c-7.526,24.875-30.755,42.627-58.274,42.627c-27.003,0-49.862-18.088-57.837-42.627L 41.339,179.611 
		c-10.069,0-18.267-8.176-18.267-18.267c0-10.091, 8.176-18.267, 18.267-18.267l 227.864,0 c 7.526-25.088, 30.755-43.378, 58.296-43.378
		s 50.781,18.29, 58.307,43.378l 20.843,0 c 10.069,0, 18.267,8.165, 18.267,18.267C 424.917,171.435, 416.741,179.611, 406.661,179.611zM 406.661,19.406L 264.018,19.406 c-7.538,24.875-30.766,42.627-58.285,42.627c-27.003,0-49.874-18.077-57.837-42.627L 41.339,19.406 
		c-10.069,0-18.267-8.176-18.267-18.267c0-10.091, 8.176-18.267, 18.267-18.267l 106.098,0 c 7.526-25.088, 30.766-43.378, 58.307-43.378
		s 50.781,18.29, 58.307,43.378l 142.598,0 c 10.080,0, 18.267,8.165, 18.267,18.267C 424.917,11.23, 416.741,19.406, 406.661,19.406z" data-tags="filter" />
<glyph unicode="&#x3a;" d="M 170.486-64.874L 170.486,146.179 l-55.776,0 l0,75.97 l 55.776,0 c0,0,0,31.136,0,64.915c0,50.994, 32.962,97.81, 108.898,97.81
	c 30.778,0, 53.525-2.934, 53.525-2.934L 331.094,310.976c0,0-23.195,0.235-48.496,0.235c-27.406,0-31.786-12.622-31.786-33.566c0-16.576,0,35.28,0-55.485
	l 82.466,0 l-3.562-75.981l-78.904,0 l0-211.042 L 170.486-64.874L 170.486-64.874z" data-tags="facebook" />
<glyph unicode="&#x3b;" d="M 363.026,155.923l 46.67,46.446l0-154.112 c0-10.192-2.050-19.779-6.059-28.672c-4.054-8.938-9.442-16.845-16.195-23.587
	c-6.765-6.765-14.616-12.141-23.453-16.106c-8.882-3.942-18.458-5.902-28.784-5.902L 75.174-26.010 c-10.192,0-19.802,1.994-28.93,5.902
	c-9.094,3.965-16.957,9.363-23.565,16.106c-6.608,6.765-11.894,14.672-15.837,23.587c-3.954,8.893-5.914,18.446-5.914,28.672L 0.93,271.272 
	c0,10.181, 1.971,19.813, 5.914,28.93c 3.942,9.083, 9.218,16.979, 15.837,23.565c 6.608,6.552, 14.482,11.85, 23.565,15.848
	C 55.373,343.568, 64.994,345.517, 75.174,345.517l 260.019,0 c 0.616,0, 1.512-0.090, 2.554-0.235c 1.075-0.213, 1.915-0.258, 2.531-0.258l-46.2-46.166
	L 75.174,298.858 c-7.594,0-14.101-2.71-19.454-8.165C 50.31,285.339, 47.6,278.798, 47.6,271.272l0-223.026 c0-7.616, 2.71-14.067, 8.131-19.454
	c 5.354-5.398, 11.894-8.131, 19.454-8.131l 260.019,0 c 7.571,0, 14.112,2.71, 19.555,8.131c 5.522,5.387, 8.266,11.894, 8.266,19.454L 363.026,155.923 z
	 M 390.835,235.97L 233.374,78.52l-79.822-26.197l 26.118,79.632L 337.389,289.64L 390.835,235.97z M 440.406,317.214
	c 4.39-4.67, 6.574-10.035, 6.653-16.094c 0.101-6.014-2.106-11.379-6.653-16.061l-22.96-22.254l-53.458,53.491l 22.243,22.691
	c 4.704,4.682, 10.192,7, 16.464,7s 11.514-2.33, 15.714-7.011l 11.11-10.864L 440.406,317.214L 440.406,317.214z" data-tags="edit" />
<glyph unicode="&#x3c;" d="M 399.28,116.69L 48.72,116.69 c-24.573,0-44.52,19.97-44.52,44.542c0,24.573, 19.947,44.52, 44.52,44.52l 350.56,0 
		c 24.55,0, 44.52-19.947, 44.52-44.52C 443.8,136.659, 423.853,116.69, 399.28,116.69zM 399.28-22L 48.72-22 c-24.573,0-44.52,19.925-44.52,44.52c0,24.562, 19.947,44.52, 44.52,44.52l 350.56,0 
		c 24.55,0, 44.52-19.947, 44.52-44.52C 443.8-2.075, 423.853-22, 399.28-22zM 399.28,252.96L 48.72,252.96 c-24.573,0-44.52,19.947-44.52,44.52c0,24.584, 19.947,44.52, 44.52,44.52l 350.56,0 
		c 24.55,0, 44.52-19.936, 44.52-44.52C 443.8,272.918, 423.853,252.96, 399.28,252.96z" data-tags="drawer" />
<glyph unicode="&#x3d;" d="M 427.638,286.762l-40.723,0 L 61.096,286.762 L 20.362,286.762 C 9.162,286.762,0,277.6,0,266.4l0-203.638 C0,51.55, 9.162,42.4, 20.362,42.4l 40.723,0 
	c 11.2,0, 20.362,9.15, 20.362,20.362L 81.446,225.677 l 285.096,0 l0-162.904 c0-11.211, 9.15-20.362, 20.362-20.362l 40.723,0 c 11.211,0, 20.362,9.15, 20.362,20.362L 447.989,266.4 
	C 448,277.6, 438.85,286.762, 427.638,286.762z M 285.085,249.096L 162.904,249.096 c-3.942,0-7.123,3.192-7.123,7.123s 3.192,7.123, 7.123,7.123l 122.181,0 
	c 3.942,0, 7.134-3.192, 7.134-7.123S 289.027,249.096, 285.085,249.096z" data-tags="desk" />
<glyph unicode="&#x3e;" d="M 203.314,81.555A16.397,16.397 180 1 1 236.107,81.555A16.397,16.397 180 1 1 203.314,81.555zM 224,381.2C 102.021,381.2, 2.8,281.968, 2.8,160c0-121.979, 99.221-221.2, 221.2-221.2c 121.979,0, 221.2,99.221, 221.2,221.2
		C 445.2,281.979, 345.979,381.2, 224,381.2z M 208.555,349.56c 5.107,0.414, 10.226,0.784, 15.445,0.784c 5.208,0, 10.315-0.37, 15.422-0.773l0-23.24 
		c0-8.523-6.91-15.434-15.434-15.434c-8.523,0-15.434,6.91-15.434,15.434L 208.555,349.56 z M 56.818,145.384L 56.818,145.384l-22.411,0.022
		C 34.037,150.234, 33.667,155.072, 33.667,160c0,5.499, 0.358,10.898, 0.818,16.274l 22.344-0.011c 8.523,0, 15.422-6.922, 15.422-15.445
		C 72.251,152.294, 65.341,145.384, 56.818,145.384z M 117.040,267.285c-3.035-3.013-6.966-4.514-10.931-4.514c-3.954,0-7.896,1.501-10.92,4.525
		L 79.24,283.278c 6.698,7.84, 13.978,15.142, 21.84,21.806l 15.96-15.982C 123.066,283.077, 123.066,273.299, 117.040,267.285z M 363.507,217.49L 253.926,59.76
		c-13.115-18.872-39.021-23.554-57.915-10.427c-18.872,13.104-23.554,39.021-10.45,57.915c 2.397,3.427, 5.354,6.485, 8.456,8.96l 150.898,118.787
		c 5.611,4.413, 13.731,3.45, 18.133-2.162C 366.621,228.275, 366.643,222.026, 363.507,217.49z M 352.262,266.098
		c-3.035-3.013-6.966-4.525-10.931-4.525s-7.896,1.512-10.92,4.525c-6.026,6.026-6.026,15.803,0,21.829l 16.834,16.834
		c 7.84-6.686, 15.154-13.989, 21.806-21.84L 352.262,266.098z M 389.458,143.726c-8.512,0-15.422,6.91-15.422,15.434
		c0,8.523, 6.91,15.434, 15.422,15.434l 24.102,0 c 0.37-4.838, 0.739-9.666, 0.739-14.594c0-5.499-0.358-10.898-0.818-16.274L 389.458,143.726 z" data-tags="dashboard" />
<glyph unicode="&#x3f;" d="M 418.365,187.978l-21.93,0 c-12.186,74.222-71.154,132.72-145.566,144.267L 250.869,354.398 c0,15.154-12.253,27.384-27.406,27.384
	c-15.154,0-27.395-12.23-27.395-27.384l0-22.322 c-74.29-12.006-132.933-70.795-144.67-145.152L 29.613,186.925 c-15.12,0-27.395-12.264-27.395-27.373
	c0-15.165, 12.264-27.44, 27.395-27.44l 21.818,0 c 11.894-74.614, 70.986-133.549, 145.701-145.152l0-21.314 c0-15.165, 12.275-27.429, 27.418-27.429
	c 15.142,0, 27.406,12.275, 27.406,27.429l0,21.482 c 74.525,12.051, 133.314,71.277, 144.76,146.037l 21.65,0 c 15.187,0, 27.429,12.298, 27.429,27.429
	C 445.794,175.714, 433.53,187.978, 418.365,187.978z M 251.955,37.819L 251.955,65.808 c0,15.165-12.253,27.429-27.406,27.429
	c-15.131,0-27.418-12.275-27.418-27.429l0-28.258 c-47.197,10.382-84.392,47.454-95.021,94.562l 27.72,0 c 15.154,0, 27.44,12.253, 27.44,27.44
	c0,15.109-12.275,27.373-27.44,27.373L 102.043,186.925 c 10.472,46.805, 47.253,83.731, 94.013,94.461l0-27.194 c0-15.176, 12.253-27.44, 27.395-27.44
	c 15.176,0, 27.406,12.286, 27.406,27.462L 250.858,281.666 c 46.906-10.315, 83.933-47.018, 94.819-93.688L 318.192,187.978 c-15.12,0-27.44-12.264-27.44-27.395
	c0-15.12, 12.286-27.429, 27.44-27.429l 27.955,0 C 335.922,85.923, 298.962,48.616, 251.955,37.819z" data-tags="crosshairs" />
<glyph unicode="&#x40;" d="M 407.994,343.904c 10.058,0, 18.715-3.595, 25.894-10.741c 7.179-7.235, 10.752-15.926, 10.752-26.13l0-294 
			c0-10.080-3.573-18.771-10.752-25.995c-7.179-7.258-15.826-10.965-25.894-10.965L 40.208-23.926 c-10.046,0-18.726,3.651-25.973,10.808
			c-7.291,7.202-10.864,15.87-10.864,26.152L 3.371,307.034 c0,10.058, 3.573,18.704, 10.752,25.973C 21.291,340.32, 29.982,343.904, 40.208,343.904L 407.994,343.904 L 407.994,343.904z
			 M 407.994,307.034L 40.208,307.034 l0-64.12 l 367.786,0 L 407.994,307.034 z M 407.994,150.682L 40.208,150.682 l0-137.637 l 367.786,0 L 407.994,150.682 zM 262.17,30.080l-93.195,0 c-8.064,0-14.616,6.552-14.616,14.616c0,8.075, 6.541,14.616, 14.616,14.616l 93.195,0 
			c 8.064,0, 14.616-6.541, 14.616-14.616C 276.786,36.632, 270.234,30.080, 262.17,30.080zM 127.613,30.080l-60.144,0 c-8.064,0-14.616,6.552-14.616,14.616c0,8.075, 6.541,14.616, 14.616,14.616l 60.144,0 
			c 8.064,0, 14.616-6.541, 14.616-14.616C 142.229,36.632, 135.677,30.080, 127.613,30.080z" data-tags="credit-card" />
<glyph unicode="&#x41;" d="M 325.875,318.211L 224,216.358l-101.853,101.864c-15.579,15.568-40.79,15.579-56.37,0c-15.568-15.568-15.557-40.813,0-56.37
	l 101.864-101.864l-101.864-101.864c-15.557-15.557-15.568-40.813,0-56.358c 15.579-15.568, 40.802-15.568, 56.37-0.011L 224,103.619l 101.842-101.842
	c 15.579-15.557, 40.824-15.557, 56.37,0c 15.579,15.579, 15.579,40.824,0,56.381L 280.392,160l 101.83,101.842c 15.579,15.557, 15.579,40.802,0,56.37
	C 366.666,333.768, 341.398,333.768, 325.875,318.211z" data-tags="close" />
<glyph unicode="&#x42;" d="M 223.989-60.506c-121.565,0-220.494,98.963-220.494,220.517c0,121.576, 98.93,220.506, 220.494,220.506
			c 121.61,0, 220.506-98.93, 220.506-220.506C 444.506,38.435, 345.598-60.506, 223.989-60.506z M 223.989,309.498
			c-82.398,0-149.464-67.077-149.464-149.486s 67.043-149.498, 149.464-149.498c 82.432,0, 149.509,67.088, 149.509,149.498
			C 373.498,242.443, 306.376,309.498, 223.989,309.498zM 296.565,107.248l-77.974,0 c-19.622,0-35.515,15.915-35.515,35.515l0,103.421 c0,19.611, 15.882,35.515, 35.515,35.515
			c 19.611,0, 35.515-15.904, 35.515-35.515l0-67.883 l 42.459,0 c 19.6,0, 35.504-15.882, 35.504-35.493C 332.035,123.163, 316.165,107.248, 296.565,107.248z" data-tags="clock" />
<glyph unicode="&#x43;" d="M 223.966,294.266c 11.39,0, 22.758-4.39, 31.472-13.048L 434.997,101.648c 17.36-17.382, 17.36-45.528,0-62.854
		c-17.36-17.416-45.494-17.416-62.81,0L 223.944,186.947L 75.824,38.794c-17.36-17.416-45.494-17.416-62.854,0c-17.315,17.326-17.315,45.517,0,62.877
		L 192.573,281.218C 201.219,289.853, 212.654,294.266, 223.966,294.266z" data-tags="chevron-up" />
<glyph unicode="&#x44;" d="M 358.266,160.022c0-11.379-4.402-22.792-13.059-31.461L 165.648-51.008c-17.36-17.349-45.539-17.349-62.854,0
		c-17.405,17.36-17.405,45.494,0,62.821l 148.165,148.221L 102.782,308.165c-17.405,17.36-17.405,45.494,0,62.854c 17.315,17.315, 45.517,17.315, 62.877,0
		l 179.547-179.614C 353.853,182.781, 358.266,171.346, 358.266,160.022z" data-tags="chevron-right" />
<glyph unicode="&#x45;" d="M 89.734,159.978c0,11.379, 4.402,22.792, 13.059,31.45L 282.352,370.997c 17.36,17.349, 45.528,17.349, 62.843,0
		c 17.416-17.36, 17.416-45.494,0-62.821L 197.042,159.966l 148.176-148.131c 17.405-17.36, 17.405-45.494,0-62.854c-17.326-17.315-45.517-17.315-62.877,0
		L 102.794,128.584C 94.147,137.208, 89.734,148.643, 89.734,159.978z" data-tags="chevron-left" />
<glyph unicode="&#x46;" d="M 224.022,25.734c-11.379,0-22.781,4.402-31.472,13.059L 13.003,218.352c-17.338,17.36-17.338,45.539,0,62.854
		c 17.36,17.405, 45.494,17.405, 62.821,0l 148.232-148.154L 372.165,281.218c 17.371,17.405, 45.494,17.405, 62.854,0c 17.315-17.315, 17.315-45.517,0-62.877
		L 255.438,38.794C 246.77,30.147, 235.357,25.734, 224.022,25.734z" data-tags="chevron-down" />
<glyph unicode="&#x47;" d="M 163.038-0.754c-0.123,0-0.258,0-0.381,0c-11.76,0.112-23.005,4.85-31.214,13.283L 17.494,129.144
		c-17.035,17.45-16.688,45.382, 0.717,62.429c 17.45,17.046, 45.371,16.688, 62.429-0.728l 82.914-84.885L 367.886,307.986
		c 17.326,17.181, 45.282,16.968, 62.418-0.358c 17.158-17.326, 17.013-45.282-0.336-62.429L 194.107,11.992C 185.808,3.827, 174.653-0.754, 163.038-0.754
		z" data-tags="check" />
<glyph unicode="&#x48;" d="M 407.579,382.186L 40.499,382.186 c-21.291,0-38.696-17.382-38.696-38.651l0-135.251 l0-38.629 l0-77.269 l0-38.651 l0-77.258 
	c0-21.28, 17.405-38.651, 38.696-38.651l 367.069,0 c 21.258,0, 38.618,17.371, 38.618,38.651L 446.186,343.546 C 446.197,364.814, 428.837,382.186, 407.579,382.186z
	 M 272.294,285.552l0-77.28 l-96.6,0 l0,77.28 L 272.294,285.552 z M 272.294,169.654l0-77.269 l-96.6,0 l0,77.269 L 272.294,169.654 z M 310.957,169.654l 96.622,0 l0-77.269 l-96.622,0 L 310.957,169.654 z
	 M 310.957,208.294l0,77.28 l 96.622,0 l0-77.28 L 310.957,208.294 z M 40.499,285.552l 96.578,0 l0-77.28 L 40.499,208.272 L 40.499,285.552 z M 40.499,169.654l 96.578,0 l0-77.269 L 40.499,92.386 L 40.499,169.654 z M 40.566-23.557
	c-0.067,0-0.067,0.045-0.067,0.045l0,77.235 l 96.578,0 l0-77.258 L 40.566-23.534 L 40.566-23.557 z M 175.694-23.557L 175.694,53.712 l 96.6,0 l0-77.258 L 175.694-23.546 z M 407.501-23.557
	l-96.544,0 L 310.957,53.712 l 96.622,0 l0-77.224 L 407.501-23.557z" data-tags="calendar" />
<glyph unicode="&#x49;" d="M 461.731,57.307l 58.229,58.184c 3.73,3.786, 6.093,8.848, 6.328,14.437c 0.022,0.224, 0.067,0.448, 0.067,0.65
			c0,0.157, 0.045,0.291, 0.045,0.403c0,2.397-0.459,4.693-1.198,6.843c-0.112,0.269-0.179,0.56-0.269,0.818
			c-0.885,2.43-2.184,4.558-3.819,6.44c-0.112,0.146-0.146,0.325-0.246,0.437l-58.733,65.542c-8.008,8.949-21.818,9.71-30.789,1.669
			c-4.816-4.312-7.258-10.27-7.258-16.285c0-5.174, 1.837-10.394, 5.589-14.549l 26.074-29.12l-67.57,0 c-12.062,0-21.84-9.722-21.84-21.795
			c0-12.096, 9.789-21.818, 21.84-21.818l 63.683,0 l-20.899-20.978c-8.557-8.546-8.557-22.344,0-30.89
			C 439.421,48.773, 453.264,48.773, 461.731,57.307zM 407.893,72.786c0,7.078, 1.926,13.854, 5.477,19.746l-8.568,0 l0-0.022 l-96.376,0 l0,77.101 l 96.376,0 l0-0.224 l 13.72,0 l-1.232,1.389
		c-6.35,7.056-9.856,16.173-9.856,25.67c0,10.931, 4.659,21.381, 12.79,28.661c 6.418,5.757, 14.538,8.994, 23.083,9.576L 443.307,343.109 
		C 443.33,364.31, 425.992,381.637, 404.79,381.637L 38.595,381.637 C 17.371,381.637,0,364.288,0,343.086l0-134.926 l0-38.539 l0-77.101 l0-38.55 l0-77.056 C0-44.31, 17.371-61.648, 38.595-61.648l 366.184,0 
		c 21.19,0, 38.528,17.338, 38.528,38.55l0,57.68 c-9.106,0.706-17.64,4.435-24.125,10.965C 411.902,52.816, 407.893,62.493, 407.893,72.786z
		 M 308.403,285.25l 96.376,0 l0-77.101 l-96.376,0 L 308.403,285.25 z M 134.971-23.12L 38.674-23.12 l0-0.022 c-0.078,0-0.078,0.045-0.078,0.045l0,77.056 l 96.331,0 l0-77.078 L 134.971-23.12 z
		 M 134.971,92.52L 38.595,92.52 l0,77.101 l 96.354,0 L 134.96,92.52 z M 134.971,208.138L 38.595,208.138 L 38.595,285.227 l 96.354,0 L 134.96,208.138 z M 269.864-23.142l-96.376,0 L 173.477,53.936 l 96.376,0 L 269.864-23.142 z
		 M 269.864,92.52l-96.376,0 l0,77.101 l 96.376,0 L 269.864,92.52 z M 269.864,208.138l-96.376,0 L 173.477,285.227 l 96.376,0 L 269.864,208.138 z M 404.79-23.098l-0.067-0.045l-96.32,0 L 308.403,53.936 
		l 96.376,0 L 404.79-23.098 L 404.79-23.098z" horiz-adv-x="526.4" data-tags="calender-start" />
<glyph unicode="&#x4a;" d="M 95.413,58.002l 58.229,58.195c 3.73,3.774, 6.093,8.848, 6.328,14.426c 0.022,0.235, 0.067,0.459, 0.067,0.661
			c0,0.157, 0.045,0.291, 0.045,0.403c0,2.397-0.459,4.682-1.21,6.843c-0.101,0.269-0.168,0.56-0.269,0.806
			c-0.885,2.442-2.184,4.558-3.819,6.451c-0.101,0.146-0.134,0.325-0.246,0.437l-58.733,65.531c-8.008,8.949-21.818,9.71-30.789,1.658
			c-4.816-4.312-7.269-10.27-7.269-16.285c0-5.174, 1.837-10.394, 5.589-14.538l 26.074-29.12L 21.84,153.47 C 9.8,153.47,0,143.738,0,131.653
			s 9.8-21.818, 21.84-21.818l 63.694,0 l-20.899-20.978c-8.568-8.534-8.568-22.344,0-30.878C 73.125,49.456, 86.957,49.456, 95.413,58.002zM 487.861,381.626L 121.699,381.626 c-21.246,0-38.595-17.349-38.595-38.55l0-107.834 c 9.598-0.896, 18.614-5.163, 25.077-12.387l 47.712-53.222l 62.16,0 l0-77.090 
		l-64.579,0 l-46.245-46.222c-6.507-6.586-15.008-10.304-24.125-11.043l0-58.386 c0-21.235, 17.36-38.55, 38.595-38.55l 366.173,0 
		c 21.19,0, 38.517,17.315, 38.517,38.55L 526.4,343.086 C 526.4,364.299, 509.074,381.626, 487.861,381.626z M 218.042-23.098l-96.275,0 l0-0.022 
		c-0.067,0-0.067,0.045-0.067,0.045l0,77.056 l 96.331,0 L 218.042-23.098 z M 218.042,208.138l-96.331,0 L 121.699,285.227 l 96.331,0 L 218.042,208.138 z M 352.934-23.12l-96.365,0 l0,77.078 
		l 96.365,0 L 352.934-23.12 z M 352.934,92.531l-96.365,0 l0,77.090 l 96.365,0 L 352.934,92.531 z M 352.934,208.138l-96.365,0 L 256.558,285.227 l 96.365,0 L 352.934,208.138 z M 487.861-23.098l-0.067-0.045
		l-96.309,0 L 391.485,53.936 l 96.365,0 L 487.861-23.098 z M 487.861,92.531l-96.365,0 l0,77.090 l 96.365,0 L 487.861,92.531 z M 487.861,208.16l-96.365,0 L 391.485,285.25 l 96.365,0 L 487.861,208.16 z" horiz-adv-x="526.4" data-tags="calender-end" />
<glyph unicode="&#x4b;" d="M 41.070,383.653L 76.25,383.653L 76.25-64L 41.070-64zM 348.858,384l-9.565,0 l0-165.928 l-49.022,44.598l-49.022-44.598L 241.248,384 L 110.275,384 l0-448 L 348.88-64 c 31.998,0, 58.061,26.074, 58.061,58.094L 406.941,325.928 
		C 406.941,357.96, 380.89,384, 348.858,384z" data-tags="bookings" />
<glyph unicode="&#x4c;" d="M 434.403,191.92l-177.744,178.864c-8.389,8.445-19.813,13.216-31.707,13.238c-11.603-0.056-23.341-4.682-31.786-13.093
	l-179.424-178.864c-17.539-17.494-17.584-45.898-0.090-63.426c 8.747-8.803, 20.261-13.205, 31.763-13.205c 11.458,0, 22.904,4.368, 31.662,13.093
	l 102.626,102.312l0-249.962 c0-24.786, 20.070-44.867, 44.845-44.867s 44.845,20.082, 44.845,44.867L 269.394,230.672 l 101.349-101.987
	c 17.461-17.606, 45.864-17.674, 63.426-0.224C 451.763,145.933, 451.853,174.336, 434.403,191.92z" data-tags="arrow-up" />
<glyph unicode="&#x4d;" d="M 255.909-50.403l 178.864,177.744c 8.445,8.389, 13.216,19.813, 13.238,31.718c-0.056,11.603-4.682,23.341-13.093,31.786
	l-178.864,179.424c-17.494,17.539-45.898,17.584-63.426,0.090C 183.814,361.6, 179.424,350.086, 179.424,338.584c0-11.458, 4.368-22.904, 13.093-31.662l 102.312-102.626
	L 44.856,204.296 c-24.786,0-44.867-20.070-44.867-44.845c0-24.786, 20.082-44.856, 44.867-44.856l 249.805,0 l-101.987-101.349c-17.606-17.461-17.674-45.864-0.224-63.426
	C 209.922-67.763, 238.325-67.853, 255.909-50.403z" data-tags="arrow-right" />
<glyph unicode="&#x4e;" d="M 192.091,370.414l-178.864-177.744C 4.782,184.27, 0.011,172.858,0,160.963c 0.056-11.614, 4.682-23.341, 13.093-31.786
	l 178.864-179.424c 17.494-17.539, 45.886-17.584, 63.426-0.090c 8.803,8.747, 13.205,20.261, 13.205,31.763c0,11.458-4.368,22.904-13.093,31.662l-102.301,102.626
	l 249.962,0 c 24.786,0, 44.867,20.070, 44.867,44.845c0,24.774-20.082,44.845-44.867,44.845L 153.339,205.405 l 101.987,101.349c 17.606,17.461, 17.674,45.864, 0.224,63.426
	C 238.067,387.763, 209.664,387.853, 192.091,370.414z" data-tags="arrow-left" />
<glyph unicode="&#x4f;" d="M 13.586,128.091l 177.744-178.864c 8.389-8.445, 19.813-13.216, 31.718-13.238c 11.603,0.056, 23.33,4.682, 31.774,13.093
	l 179.424,178.864c 17.539,17.494, 17.584,45.898, 0.090,63.426c-8.747,8.803-20.261,13.205-31.763,13.205c-11.458,0-22.904-4.368-31.651-13.093
	l-102.637-102.312L 268.285,339.144 c0,24.786-20.059,44.867-44.845,44.867s-44.856-20.082-44.856-44.867l0-249.805 l-101.349,101.987
	c-17.461,17.606-45.864,17.674-63.426,0.224C-3.774,174.078-3.864,145.675, 13.586,128.091z" data-tags="arrow-down" />
<glyph unicode="&#x50;" d="M 734.328,281.766c-9.778,0-14.078-9.106-14.078-17.842c0-10.046, 5.712-17.629, 13.765-17.629l 0.090,0 
		c 7.986,0, 13.944,7.47, 13.944,17.931C 748.059,271.989, 744.173,281.766, 734.328,281.766zM 671.182,134.117c-14.067,0-26.466-10.013-30.206-24.326c-0.112-0.694-0.224-1.344-0.358-2.016
		c-0.392-2.139-0.806-4.379-0.806-6.205l0-20.171 c0-3.17, 0.325-5.992, 0.885-8.109c 3.382-13.731, 15.501-23.251, 29.523-23.251
		c 20.518,0, 33.275,16.43, 33.275,42.862C 703.517,113.442, 693.526,134.117, 671.182,134.117zM 1130.584,246.307l 0.112,0 c 7.963,0, 13.922,7.47, 13.922,17.931c0,7.762-3.886,17.528-13.731,17.528
		c-9.755,0-14.034-9.094-14.034-17.842C 1116.875,253.856, 1122.509,246.307, 1130.584,246.307zM 532.762,254.17c0-5.499, 3.584-7.986, 7.773-7.986c 6.082,0, 9.957,3.797, 11.29,7.683
		c 0.302,0.862, 0.392,1.826, 0.392,2.666l0,7.963 C 543.11,264.698, 532.762,263.085, 532.762,254.17zM 168.269,48.067A15.792,15.792 180 1 1 199.853,48.067999999999984A15.792,15.792 180 1 1 168.269,48.067999999999984zM 404.51,170.506c-2.027-8.154-4.178-15.926-6.451-23.027l-14.952-44.173l 43.142,0 l-15.154,43.882
		C 408.453,155.475, 406.403,163.158, 404.51,170.506zM 542.203,134.117c-14.078,0-26.466-10.013-30.195-24.326c-0.112-0.694-0.269-1.344-0.381-2.038
		c-0.392-2.15-0.806-4.346-0.806-6.171l0-20.171 c0-3.17, 0.336-5.992, 0.896-8.109c 3.382-13.731, 15.501-23.251, 29.523-23.251
		c 20.53,0, 33.253,16.43, 33.253,42.862C 574.526,113.442, 564.514,134.117, 542.203,134.117zM 594.698,281.475c-5.701,0-11.010-3.976-12.611-10.237c-0.302-1.053-0.482-2.173-0.482-3.517l0-8.254 
		c0-1.042, 0.090-2.072, 0.291-3.024c 1.635-5.802, 6.552-9.789, 12.522-9.789c 8.848,0, 13.955,7.123, 13.955,17.662
		C 608.35,273.613, 603.613,281.475, 594.698,281.475zM 124.331,250.059L 243.768,250.059L 243.768,71.576L 124.331,71.576zM 366.453,286.045c-1.31,4.189-2.262,7.963-3.214,11.67l-0.302,0 c-0.84-3.707-1.915-7.683-3.114-11.581
		l-6.261-18.502l 19.242,0 L 366.453,286.045zM 939.243,282.158c-8.512,0-12.107-7.762-12.802-13.597l 24.326,0 C 950.824,273.803, 948.562,282.158, 939.243,282.158zM 1207.875,136.032c-18.76,0-27.787-15.882-30.128-30.341l 57.154,0 c-0.179,5.186-1.422,15.994-8.635,23.318
		C 1221.685,133.68, 1215.514,136.032, 1207.875,136.032zM 1041.432,286.325c0,8.557-5.958,12.622-15.098,12.622c-3.573,0-6.339-0.358-7.762-0.672l0-24.83 
		c 1.792-0.47, 4.189-0.683, 6.843-0.683C 1035.485,272.75, 1041.432,277.701, 1041.432,286.325zM 1288.874,379.33L 66.338,379.33 c-32.738,0-59.304-26.522-59.304-59.282l0-320.107 c0-32.726, 26.566-59.259, 59.304-59.259l 1222.57,0 
		c 32.726,0, 59.27,26.533, 59.27,59.259L 1348.178,320.070 C 1348.178,352.808, 1321.622,379.33, 1288.874,379.33z M 1233.814,288.128
		c 14.986,0, 18.85-13.205, 18.85-21.638c0-1.702-0.112-3.024-0.258-3.976l-32.178,0.101c 0.224-11.301, 7.325-15.96, 15.635-15.96
		c 5.981,0, 9.688,1.053, 12.723,2.274l 1.557-5.869c-2.968-1.31-8.098-2.923-15.378-2.923c-14.034,0-22.568,9.408-22.568,23.117
		C 1212.176,277.219, 1220.442,288.128, 1233.814,288.128z M 1170.333,286.997l 0.504-7.493l 0.202,0 c 2.285,4.278, 7.571,8.546, 15.154,8.546
		c 6.339,0, 16.251-3.797, 16.251-19.544l0-27.406 l-8.355,0 l0,26.466 c0,7.392-2.744,13.653-10.618,13.653c-5.41,0-9.688-3.909-11.166-8.546
		c-0.414-1.042-0.616-2.565-0.616-3.886l0-27.686 l-8.31,0 L 1163.378,274.565 c0,4.85-0.134,8.624-0.392,12.432L 1170.333,286.997 z M 1131.178,288.038
		c 13.182,0, 22.12-9.598, 22.12-23.542c0-17.058-11.861-24.45-22.77-24.45l-0.090,0 c-12.342,0-22.064,9.072-22.064,23.621
		C 1108.386,279.022, 1118.566,288.038, 1131.178,288.038z M 1010.33,304.144c 3.987,0.762, 9.184,1.333, 15.859,1.333c 8.154,0, 14.146-1.915, 17.92-5.32
		c 3.506-3.024, 5.768-7.683, 5.768-13.384c0-5.802-1.747-10.36-5.062-13.664c-4.39-4.648-11.491-7.011-19.544-7.011
		c-2.464,0-4.76,0.101-6.63,0.571l0-25.614 l-8.243,0 L 1010.386,304.144 L 1010.33,304.144 z M 992.499,306.126c 3.226,0, 5.309-2.363, 5.309-5.32
		c0-2.934-2.072-5.398-5.41-5.398l-0.067,0 c-3.136,0-5.219,2.464-5.219,5.398C 987.078,303.763, 989.251,306.126, 992.499,306.126z M 996.666,286.997
		l0-45.92 l-8.378,0 L 988.288,286.997 L 996.666,286.997 z M 869.478,308.411l 8.322,0 l0-28.638 l 0.213,0 c 1.333,2.363, 3.416,4.536, 5.958,5.88
		c 2.498,1.512, 5.41,2.363, 8.568,2.363c 6.16,0, 16.005-3.797, 16.005-19.656l0-27.306 l-8.333,0 l0,26.365 c0,7.47-2.744,13.675-10.618,13.675
		c-5.398,0-9.565-3.819-11.166-8.366c-0.482-1.142-0.594-2.363-0.594-3.976l0-27.686 l-8.333,0 L 869.49,308.411 L 869.478,308.411z M 833.336,286.997l 7.123,0 L 840.459,295.43 
		l 8.142,2.554L 848.602,286.997 l 11.95,0 l0-6.35 l-11.95,0 l0-24.763 c0-5.701, 1.624-8.938, 6.261-8.938c 2.296,0, 3.573,0.19, 4.894,0.571l 0.37-6.362
		c-1.635-0.56-4.189-1.142-7.392-1.142c-3.954,0-7.045,1.322-9.061,3.483c-2.24,2.576-3.214,6.675-3.214,12.074L 840.459,280.635 L 833.336,280.635 L 833.336,286.997 
		L 833.336,286.997z M 666.781,288.128c 14.997,0, 18.861-13.205, 18.861-21.638c0-1.702-0.101-3.024-0.28-3.976l-32.155,0.101
		c 0.19-11.301, 7.302-15.96, 15.646-15.96c 5.992,0, 9.677,1.053, 12.723,2.274l 1.523-5.869c-2.923-1.31-8.075-2.923-15.355-2.923
		c-14.045,0-22.579,9.408-22.579,23.117C 645.142,277.219, 653.397,288.128, 666.781,288.128z M 626.763,308.411l 8.333,0 l0-67.357 l-8.333,0 L 626.763,308.411 z M 541.576,281.856
		c-4.357,0-8.826-1.198-12.062-3.416l-1.915,5.611c 3.797,2.374, 9.408,3.987, 15.176,3.987c 14.157,0, 17.55-9.598, 17.55-18.794l0-17.181 
		c0-3.976, 0.213-7.851, 0.683-10.987l-7.515,0 l-0.739,5.779l-0.28,0 c-2.475-3.573-7.493-6.787-14.067-6.787
		c-9.285,0-14.022,6.53-14.022,13.171c0,11.11, 9.856,17.17, 27.608,17.069l0,0.952 C 552.003,275.024, 550.995,281.946, 541.576,281.856z M 506.296,308.411
		l 8.344,0 l0-67.357 l-8.344,0 L 506.296,308.411 z M 452.883,281.856c-4.379,0-8.848-1.198-12.062-3.416l-1.926,5.611c 3.797,2.374, 9.408,3.987, 15.176,3.987
		c 14.134,0, 17.539-9.598, 17.539-18.794l0-17.181 c0-3.976, 0.202-7.851, 0.683-10.987l-7.493,0 l-0.762,5.779l-0.246,0 
		c-2.453-3.573-7.493-6.787-14.045-6.787c-9.307,0-14.045,6.53-14.045,13.171c0,11.11, 9.856,17.17, 27.608,17.069l0,0.952 
		C 463.31,275.024, 462.258,281.946, 452.883,281.856z M 398.72,286.997l 9.016-25.738c 1.523-4.267, 2.744-8.064, 3.707-11.85l 0.269,0 
		c 1.075,3.786, 2.363,7.582, 3.886,11.85l 8.938,25.738l 8.736,0 l-18.054-45.92l-7.952,0 L 389.782,286.997L 398.72,286.997 z M 358.378,304.995l 9.99,0 l 21.806-63.93
		l-8.837,0 l-6.81,20.115l-22.669,0 l-6.63-20.115l-8.523,0 L 358.378,304.995z M 262.405,38.603c0-13.115-10.606-23.699-23.733-23.699l-109.222,0 
		c-13.093,0-23.71,10.584-23.71,23.699L 105.728,280.602 c0,13.104, 10.595,23.722, 23.71,23.722l 109.222,0 c 13.115,0, 23.733-10.606, 23.733-23.722L 262.405,38.603 z
		 M 449.176,32.208l-17.259,50.837l-54.466,0 l-16.789-50.837l-25.771,0 l 56.258,165.536l 27.989,0 l 56.493-165.536L 449.176,32.208 z M 488.723,306.126
		c 3.237,0, 5.32-2.363, 5.32-5.32c0-2.934-2.072-5.398-5.387-5.398l-0.134,0 c-3.102,0-5.208,2.464-5.208,5.398
		C 483.314,303.763, 485.542,306.126, 488.723,306.126z M 484.568,286.997l 8.344,0 l0-45.92 l-8.344,0 L 484.568,286.997 z M 583.050,45.715
		c-9.834-10.405-23.307-16.117-37.946-16.117c-14.067,0-26.488,5.387-34.25,14.694l0-59.55 l-25.054,0 L 485.811,112.344 c0,16.206-0.28,27.485-0.963,37.766
		l-0.146,2.094l 22.915,0 l 1.008-16.453c 9.094,12.533, 22.77,19.085, 39.816,19.085c 14.414,0, 27.485-6.026, 36.814-16.979
		c 9.542-11.178, 14.56-26.41, 14.56-43.982C 599.816,73.973, 594.003,57.296, 583.050,45.715z M 596.142,240.035
		c-6.63,0-11.872,2.554-15.366,8.624l-0.202,0 l-0.482-7.594l-7.202,0 c 0.28,3.136, 0.37,7.773, 0.37,11.861L 573.25,308.411 l 8.344,0 l0-28.75 l 0.202,0 
		c 2.934,5.118, 8.243,8.366, 15.646,8.366c 11.379,0, 19.342-9.52, 19.342-23.352C 616.784,248.178, 606.357,240.035, 596.142,240.035z M 712.040,45.715
		c-9.845-10.405-23.318-16.117-37.957-16.117c-14.056,0-26.466,5.387-34.227,14.694l0-59.55 l-25.054,0 L 614.813,112.344 c0,16.206-0.302,27.485-0.974,37.766
		l-0.134,2.094l 22.915,0 l 0.986-16.453c 9.106,12.533, 22.77,19.085, 39.827,19.085c 14.414,0, 27.474-6.026, 36.826-16.979
		c 9.52-11.166, 14.526-26.41, 14.526-43.982C 728.795,73.973, 723.016,57.296, 712.040,45.715z M 733.936,240.035l-0.112,0 c-12.32,0-22.030,9.072-22.030,23.621
		c0,15.355, 10.147,24.382, 22.792,24.382c 13.182,0, 22.098-9.598, 22.098-23.542C 756.683,247.427, 744.856,240.035, 733.936,240.035z M 775.634,272.65
		c-0.347-1.042-0.549-2.565-0.549-3.898l0-27.686 l-8.31,0 L 766.786,274.565 c0,4.85-0.112,8.624-0.403,12.432l 7.403,0 l 0.437-7.493l 0.235,0 
		c 2.274,4.278, 7.56,8.546, 15.165,8.546c 6.362,0, 16.229-3.797, 16.229-19.544l0-27.406 l-8.378,0 l0,26.466 c0,7.392-2.699,13.653-10.584,13.653
		C 781.435,281.195, 777.19,277.286, 775.634,272.65z M 822.954,29.576c-15.109,0-32.872,4.547-42.325,10.875l-1.243,0.84l 6.72,21.37l 2.162-1.389
		c 10.158-6.496, 23.296-10.226, 36.109-10.226c 19.611,0, 31.819,9.789, 31.819,25.603c0,13.955-7.896,22.109-29.154,30.038
		c-30.005,10.886-43.982,26.096-43.982,47.846c0,26.992, 22.299,45.864, 54.23,45.864c 20.339,0, 32.312-5.734, 36.478-8.187l 1.4-0.829l-7.067-20.91
		l-2.094,1.31c-2.789,1.747-13.182,7.381-29.434,7.381c-19.678,0-28.47-11.166-28.47-22.232c0-13.16, 7.504-20.272, 30.878-29.333
		c 30.027-11.838, 42.246-26.13, 42.246-49.28C 881.283,55.829, 866.018,29.576, 822.954,29.576z M 956.57,132.224L 926.374,132.224 l0-60.614 
		c0-14.403, 4.144-20.563, 13.832-20.563c 5.264,0, 8.512,0.358, 11.648,1.355l 2.397,0.728l 1.221-20.093L 954.083,32.555
		c-3.181-1.131-9.912-2.99-19.387-2.99c-10.002,0-18.603,3.382-24.237,9.542c-5.824,6.53-8.646,16.934-8.646,31.763l0,61.331 l-17.998,0 L 883.814,152.182 
		l 17.998,0 l0,20.81 l 24.55,7.706L 926.352,152.182 l 30.218,0 L 956.57,132.224 L 956.57,132.224z M 958.53,262.502l-32.155,0.090c 0.179-11.29, 7.28-15.949, 15.635-15.949
		c 5.958,0, 9.688,1.053, 12.723,2.274l 1.557-5.869c-2.968-1.31-8.098-2.923-15.378-2.923c-14.078,0-22.59,9.397-22.59,23.117
		c0,13.955, 8.243,24.864, 21.661,24.864c 14.963,0, 18.861-13.205, 18.861-21.638C 958.832,264.776, 958.72,263.454, 958.53,262.502z M 1016.949,29.576
		l-0.224,0 c-33.925,0-57.59,25.323-57.59,61.667c0,37.464, 24.472,63.571, 59.483,63.571c 16.912,0, 31.405-5.891, 41.91-17.102
		c 10.45-11.189, 15.971-26.466, 15.971-44.33C 1076.499,49.546, 1045.643,29.576, 1016.949,29.576z M 1079.658,281.117c-5.365,0-9.554-3.808-11.166-8.355
		c-0.459-1.142-0.594-2.374-0.594-3.976l0-27.686 l-8.31,0 L 1059.587,308.411 l 8.31,0 l0-28.638 l 0.224,0 c 1.333,2.363, 3.45,4.536, 5.958,5.88
		c 2.486,1.512, 5.432,2.363, 8.557,2.363c 6.171,0, 16.016-3.797, 16.016-19.656l0-27.306 L 1090.342,241.054 l0,26.365 C 1090.32,274.923, 1087.554,281.117, 1079.658,281.117z
		 M 1143.811,130.992c-13.182,0-23.509-9.901-26.354-25.256c-0.414-2.934-0.683-6.216-0.683-9.71l0-63.851 l-25.043,0 l 0.224,81.816
		c0,15.064-0.28,26.163-0.941,36.075L 1090.869,152.182l 22.467,0 l 0.739-17.528c 6.541,12.443, 18.312,20.16, 31.405,20.16
		c 2.195,0, 4.010-0.235, 6.238-0.762l 1.49-0.392l0-23.352 l-2.677,0.291C 1148.414,130.79, 1146.398,130.992, 1143.811,130.992z M 1258.488,88.018
		l-0.347-1.624l-80.842,0.235c 1.557-32.76, 26.634-36.322, 37.498-36.322c 15.512,0, 24.562,2.834, 31.394,5.589l 2.094,0.874l 4.805-18.693
		l-1.49-0.661c-7.683-3.483-20.787-7.594-39.659-7.594c-35.862,0-59.024,23.755-59.024,60.446c0,38.158, 23.274,64.781, 56.65,64.781
		c 36.669,0, 49.65-30.486, 49.65-56.605C 1259.238,93.954, 1258.992,90.515, 1258.488,88.018zM 1233.142,282.158c-8.534,0-12.13-7.762-12.802-13.597l 24.282,0 C 1244.723,273.803, 1242.438,282.158, 1233.142,282.158zM 444.058,254.17c0-5.499, 3.595-7.986, 7.773-7.986c 6.082,0, 9.979,3.797, 11.29,7.683
		c 0.302,0.862, 0.392,1.826, 0.392,2.666l0,7.963 C 454.406,264.698, 444.058,263.085, 444.058,254.17zM 1017.934,135.102c-23.139,0-33.51-21.65-33.51-43.098c0-24.718, 13.787-42.616, 32.794-42.616l 0.258,0 
		c 19.264,0, 33.275,18.245, 33.275,43.344C 1050.75,113.117, 1040.491,135.102, 1017.934,135.102zM 666.131,282.158c-8.546,0-12.163-7.762-12.824-13.597l 24.282,0 C 677.678,273.803, 675.416,282.158, 666.131,282.158z" horiz-adv-x="1355.2" data-tags="app-store" />
<glyph unicode="&#x51;" d="M 263.816,185.827l-93.218,0 L 170.61,279.045 c0,14.224-11.547,25.782-25.794,25.782s-25.805-11.547-25.805-25.782l0-93.218 L 25.794,185.827 
	C 11.536,185.827,0,174.269,0,160.022c0-14.224, 11.547-25.827, 25.794-25.827l 93.229,0 l0-93.195 c0-14.224, 11.547-25.827, 25.794-25.827
	s 25.794,11.547, 25.794,25.827l0,93.195 l 93.229,0 c 14.246,0, 25.794,11.558, 25.794,25.827C 289.61,174.269, 278.074,185.827, 263.816,185.827zM 710.506,337.957l-183.568,0 l0,28.426 c0,9.498-7.706,17.226-17.203,17.226S 492.498,375.891, 492.498,366.382l0-28.414 l-22.938,0 L 469.56,366.382 
	c0,9.498-7.706,17.226-17.226,17.226c-9.486,0-17.203-7.717-17.203-17.226l0-28.414 l-11.435,0 c-15.781,0-28.672-12.902-28.672-28.672l0-344.187 
	c0-15.747, 12.891-28.672, 28.672-28.672l 114.722,0 l0,114.733 l 57.389,0 l0-114.778 l 114.733,0 c 15.781,0, 28.672,12.869, 28.672,28.672L 739.2,309.251 
	C 739.178,325.054, 726.286,337.957, 710.506,337.957z M 481.040-6.253l-57.355,0 l0,57.389 l 57.355,0 L 481.040-6.253 L 481.040-6.253z M 481.040,108.469l-57.355,0 l0,57.366 
	l 57.355,0 L 481.040,108.469 L 481.040,108.469z M 481.040,223.213l-57.355,0 L 423.685,280.568 l 57.355,0 L 481.040,223.213 L 481.040,223.213z M 595.773,108.469l-57.366,0 l0,57.366 l 57.366,0 L 595.773,108.469 z
	 M 595.773,223.213l-57.366,0 L 538.406,280.568 l 57.366,0 L 595.773,223.213 z M 710.506-6.253L 653.117-6.253 l0,57.389 l 57.389,0 L 710.506-6.253 z M 710.506,108.469L 653.117,108.469 l0,57.366 l 57.389,0 L 710.506,108.469 z
	 M 710.506,223.213L 653.117,223.213 L 653.117,280.568 l 57.389,0 L 710.506,223.213 z" horiz-adv-x="739.2" data-tags="add-location" />
<glyph unicode="&#x52;" d="M 139.818,172.956l-49.405,0 L 90.412,222.356 c0,7.538-6.123,13.661-13.667,13.661c-7.544,0-13.679-6.123-13.679-13.661l0-49.405 L 13.661,172.956 
	C 6.111,172.956,-0.006,166.828,-0.006,159.283c0-7.538, 6.123-13.685, 13.673-13.685l 49.405,0 l0-49.393 c0-7.538, 6.123-13.685, 13.673-13.685
	c 7.538,0, 13.667,6.111, 13.667,13.685l0,49.393 l 49.411,0 c 7.544,0, 13.667,6.129, 13.667,13.685C 153.485,166.828, 147.368,172.956, 139.818,172.956zM 437.093,218.049l-21.576,0 L 242.947,218.049 l-21.582,0 c-5.932,0-10.776-4.85-10.776-10.782l0-107.86 c0-5.943, 4.844-10.782, 10.776-10.782l 21.576,0 
	c 5.932,0, 10.782,4.838, 10.782,10.782L 253.723,185.697 l 151,0 l0-86.291 c0-5.932, 4.838-10.776, 10.776-10.776l 21.582,0 c 5.932,0, 10.77,4.844, 10.77,10.776L 447.857,207.267 
	C 447.875,213.199, 443.036,218.049, 437.093,218.049z M 361.584,198.104L 296.869,198.104 c-2.097,0-3.775,1.69-3.775,3.775
	c0,2.091, 1.69,3.781, 3.775,3.781l 64.715,0 c 2.103,0, 3.781-1.69, 3.781-3.781C 365.365,199.794, 363.68,198.104, 361.584,198.104z" data-tags="add-desk" />
<glyph unicode="&#x53;" d="M 353.92,177.27L 127.691,177.27 c-41.474,0-75.41-33.936-75.41-75.387l0-89.376 c0-41.474, 33.936-75.398, 75.41-75.398L 353.92-62.891 
		c 41.474,0, 75.398,33.925, 75.398,75.398l0,89.376 C 429.318,143.334, 395.394,177.27, 353.92,177.27zM 143.92,286.034A96.88,96.88 180 1 1 337.68,286.034A96.88,96.88 180 1 1 143.92,286.034z" horiz-adv-x="481.6" data-tags="user" />
<glyph unicode="&#x54;" d="M 439.466,23.36L 260.355,333.611c-19.992,34.619-52.707,34.619-72.699,0L 8.534,23.36c-19.992-34.63-3.64-62.944, 36.344-62.944l 358.243,0 
	C 443.106-39.584, 459.458-11.27, 439.466,23.36z M 202.16,248.95l 43.366,0 l0-163.923 L 202.16,85.027 L 202.16,248.95 z M 223.854,12.686
	c-14.952,0-27.171,12.51-27.171,27.474c0,14.952, 12.208,26.846, 27.171,26.846c 14.941,0, 27.149-11.894, 27.149-26.846
	C 251.003,25.197, 238.795,12.686, 223.854,12.686z" data-tags="warning" />
<glyph unicode="&#x55;" d="M 128,128l0-96 l-64,0 l0,96 l 64,0 zM 224,256l0-224 l-64,0 l0,224 l 64,0 zM 320,192l0-160 l-64,0 l0,160 l 64,0 zM 416,288l0-256 l-64,0 l0,256 l 64,0 zM 448,8l0,304 q0,3.25 -2.375,5.625t-5.625,2.375l-400,0 q-3.25,0 -5.625-2.375t-2.375-5.625l0-304 q0-3.25 2.375-5.625t 5.625-2.375l 400,0 q 3.25,0 5.625,2.375t 2.375,5.625z M 480,312l0-304 q0-16.5 -11.75-28.25t-28.25-11.75l-400,0 q-16.5,0 -28.25,11.75t-11.75,28.25l0,304 q0,16.5 11.75,28.25t 28.25,11.75l 400,0 q 16.5,0 28.25-11.75t 11.75-28.25z" horiz-adv-x="480" data-tags="bar-chart" />
<glyph unicode="&#x56;" d="M 96,48q0-20 -14-34t-34-14t-34,14t-14,34t 14,34t 34,14t 34-14t 14-34zM 224,17.25q 0.5-7 -4.25-12q-4.5-5.25 -11.75-5.25l-33.75,0 q-6.25,0 -10.75,4.125t-5,10.375q-5.5,57.25 -46.125,97.875t-97.875,46.125q-6.25,0.5 -10.375,5t-4.125,10.75l0,33.75 q0,7.25 5.25,11.75q 4.25,4.25 10.75,4.25l 1.25,0 q 40-3.25 76.5-20.125 t 64.75-45.375q 28.5-28.25 45.375-64.75t 20.125-76.5zM 352,16.75q 0.5-6.75 -4.5-11.75q-4.5-5 -11.5-5l-35.75,0 q-6.5,0 -11.125,4.375t-4.875,10.625q-3,53.75 -25.25,102.125t-57.875,84t-84,57.875t-102.125,25.5q-6.25,0.25 -10.625,4.875t-4.375,10.875l0,35.75 q0,7 5,11.5q 4.5,4.5 11,4.5l 0.75,0 q 65.5-3.25 125.375-30t 106.375-73.5 q 46.75-46.5 73.5-106.375t 30-125.375z" horiz-adv-x="352" data-tags="rss" />
<glyph unicode="&#x57;" d="M 320,16q0,6.5 -4.75,11.25t-11.25,4.75t-11.25-4.75t-4.75-11.25t 4.75-11.25t 11.25-4.75t 11.25,4.75t 4.75,11.25zM 384,16q0,6.5 -4.75,11.25t-11.25,4.75t-11.25-4.75t-4.75-11.25t 4.75-11.25t 11.25-4.75t 11.25,4.75t 4.75,11.25zM 416,72l0-80 q0-10 -7-17t-17-7l-368,0 q-10,0 -17,7t-7,17l0,80 q0,10 7,17t 17,7l 106.75,0 q 5.25-14 17.625-23 t 27.625-9l 64,0 q 15.25,0 27.625,9t 17.625,23l 106.75,0 q 10,0 17-7t 7-17zM 334.75,234q-4.25-10 -14.75-10l-64,0 l0-112 q0-6.5 -4.75-11.25t-11.25-4.75l-64,0 q-6.5,0 -11.25,4.75t-4.75,11.25l0,112 l-64,0 q-10.5,0 -14.75,10q-4.25,9.75 3.5,17.25l 112,112q 4.5,4.75 11.25,4.75t 11.25-4.75l 112-112q 7.75-7.5 3.5-17.25z" horiz-adv-x="416" data-tags="transfers" />
<glyph unicode="&#x58;" d="M 416,144q-38,59 -95.25,88.25q 15.25-26 15.25-56.25q0-46.25 -32.875-79.125t-79.125-32.875t-79.125,32.875t-32.875,79.125q0,30.25 15.25,56.25q-57.25-29.25 -95.25-88.25q 33.25-51.25 83.375-81.625t 108.625-30.375t 108.625,30.375t 83.375,81.625zM 236,240q0,5 -3.5,8.5t-8.5,3.5q-31.25,0 -53.625-22.375 t-22.375-53.625q0-5 3.5-8.5t 8.5-3.5t 8.5,3.5t 3.5,8.5q0,21.5 15.25,36.75t 36.75,15.25q 5,0 8.5,3.5t 3.5,8.5zM 448,144q0-8.5 -5-17.25q-35-57.5 -94.125-92.125t-124.875-34.625t-124.875,34.75t-94.125,92q-5,8.75 -5,17.25t 5,17.25q 35,57.25 94.125,92t 124.875,34.75t 124.875-34.75t 94.125-92q 5-8.75 5-17.25z" data-tags="eye" />
<glyph unicode="&#x59;" d="M 377.75,120q0-1.25 -0.25-1.75q-16-67 -67-108.625t-119.5-41.625q-36.5,0 -70.625,13.75t-60.875,39.25l-32.25-32.25q-4.75-4.75 -11.25-4.75t-11.25,4.75t-4.75,11.25l0,112 q0,6.5 4.75,11.25t 11.25,4.75l 112,0 q 6.5,0 11.25-4.75t 4.75-11.25t-4.75-11.25l-34.25-34.25q 17.75-16.5 40.25-25.5t 46.75-9q 33.5,0 62.5,16.25t 46.5,44.75q 2.75,4.25 13.25,29.25 q 2,5.75 7.5,5.75l 48,0 q 3.25,0 5.625-2.375t 2.375-5.625zM 384,320l0-112 q0-6.5 -4.75-11.25t-11.25-4.75l-112,0 q-6.5,0 -11.25,4.75t-4.75,11.25t 4.75,11.25l 34.5,34.5q-37,34.25 -87.25,34.25q-33.5,0 -62.5-16.25t-46.5-44.75q-2.75-4.25 -13.25-29.25q-2-5.75 -7.5-5.75l-49.75,0 q-3.25,0 -5.625,2.375t-2.375,5.625l0,1.75 q 16.25,67 67.5,108.625t 120,41.625 q 36.5,0 71-13.875t 61.25-39.125l 32.5,32.25q 4.75,4.75 11.25,4.75t 11.25-4.75t 4.75-11.25z" horiz-adv-x="384" data-tags="pending" />
<glyph unicode="&#x5a;" d="M 423.605,383.328L 24.395,383.328 C 11.004,383.328, 0.224,372.548, 0.224,359.157l0-399.21 c0-13.391, 10.78-24.171, 24.171-24.171l 214.809,0 
	L 239.204,109.261 L 180.726,109.261 L 180.726,176.705 l 58.478,0 L 239.204,228.166 c0,53.945, 33.443,87.474, 86.121,87.474c 31.711,0, 53.056-2.486, 53.056-2.486L 378.382,252.337 
	l-35.727,0 c-22.641,0-33.277-7.963-33.277-31.968l0-43.664 l 66.665,0 l-8.577-67.445L 309.378,109.261 L 309.378-64.224 l 114.227,0 
	c 13.391,0, 24.171,10.78, 24.171,24.171L 447.776,359.157 C 447.776,372.548, 436.996,383.328, 423.605,383.328z" data-tags="facebook-full" />
<glyph unicode="&#x5b;" d="M 384,48l0-32 q0-6.5 -4.75-11.25t-11.25-4.75l-352,0 q-6.5,0 -11.25,4.75t-4.75,11.25l0,32 q0,6.5 4.75,11.25t 11.25,4.75l 352,0 q 6.5,0 11.25-4.75t 4.75-11.25zM 384,176l0-32 q0-6.5 -4.75-11.25t-11.25-4.75l-352,0 q-6.5,0 -11.25,4.75t-4.75,11.25l0,32 q0,6.5 4.75,11.25t 11.25,4.75l 352,0 q 6.5,0 11.25-4.75t 4.75-11.25zM 384,304l0-32 q0-6.5 -4.75-11.25 t-11.25-4.75l-352,0 q-6.5,0 -11.25,4.75t-4.75,11.25l0,32 q0,6.5 4.75,11.25t 11.25,4.75l 352,0 q 6.5,0 11.25-4.75t 4.75-11.25z" horiz-adv-x="384" data-tags="menu" />
<glyph unicode="&#x5c;" d="M 69.018,384l 309.964,0 c 38.225,0 69.018-30.901 69.018-69.018l0-309.964 c0-38.225 -30.901-69.018 -69.018-69.018l-309.964,0 c-38.225,0 -69.018,30.901 -69.018,69.018l0,309.964 c0,38.225 30.901,69.018 69.018,69.018zM 206.367,46.513
c 4.528-4.547 10.695-7.116 17.122-7.128c 6.263,0.030 12.594,2.52 17.153,7.049l 96.858,96.307c 9.468,9.42 9.492,24.713 0.048,34.151c-4.722,4.74 -10.937,7.11 -17.146,7.11
c-6.185,0 -12.364-2.352 -17.086-7.049l-55.406-55.089l0,134.594 c0,13.345 -10.828,24.158 -24.208,24.158c-13.38,0 -24.214-10.812 -24.214-24.158l0-134.503 l-54.711,54.914c-9.425,9.48 -24.759,9.516 -34.239,0.121
c-9.492-9.408 -9.541-24.701 -0.121-34.169zM 206.367,46.513z" data-tags="download" />
<glyph unicode="&#x5d;" d="M 320.75,248.75l-88.75-88.75l 88.75-88.75l 36,36q 7.25,7.75 17.5,3.5q 9.75-4.25 9.75-14.75l0-112 q0-6.5 -4.75-11.25t-11.25-4.75l-112,0 q-10.5,0 -14.75,10q-4.25,9.75 3.5,17.25l 36,36l-88.75,88.75l-88.75-88.75l 36-36q 7.75-7.5 3.5-17.25q-4.25-10 -14.75-10l-112,0 q-6.5,0 -11.25,4.75t-4.75,11.25l0,112 q0,10.5 10,14.75q 9.75,4.25 17.25-3.5l 36-36 l 88.75,88.75l-88.75,88.75l-36-36q-4.75-4.75 -11.25-4.75q-3,0 -6,1.25q-10,4.25 -10,14.75l0,112 q0,6.5 4.75,11.25t 11.25,4.75l 112,0 q 10.5,0 14.75-10q 4.25-9.75 -3.5-17.25l-36-36l 88.75-88.75l 88.75,88.75l-36,36q-7.75,7.5 -3.5,17.25q 4.25,10 14.75,10l 112,0 q 6.5,0 11.25-4.75t 4.75-11.25l0-112 q0-10.5 -9.75-14.75q-3.25-1.25 -6.25-1.25q-6.5,0 -11.25,4.75z " horiz-adv-x="384" data-tags="enlarge" />
<glyph unicode="&#x20;" horiz-adv-x="224" />
</font>
</defs>
</svg>
