<svg xmlns="http://www.w3.org/2000/svg" viewBox="0 0 279.76 279.76"><defs><style>.a{fill:#c1c1c0;}.b{fill:#d6d6d6;fill-rule:evenodd;}</style></defs><rect class="a" width="279.76" height="279.76"/><path class="b" d="M213.08,89.59c-0.31-6.75-1.67-11.62-2.86-17.1C207.52,60,196.94,48,196.94,48h-0.11c-7.48-8.12-30.34-19-56.72-19h-0.22c-26.38.06-49.24,10.92-56.72,19H83.06S72.48,60,69.78,72.49c-1.19,5.49-2.55,10.35-2.86,17.1-0.29,6.44,1.24,18.83,1.24,18.83L74.55,137c-4.9,8.16-7,19.48-4.85,31.1,2.37,13.09,9.43,23.32,18.06,27.81L88,197.1c13.25,57.86-.24,68.6-10.24,74.63-4.89,2.95-9.63,5.61-14.22,8H216.43c-4.59-2.42-9.33-5.08-14.22-8-10-6-23.48-16.77-10.24-74.63l0.28-1.24c8.62-4.49,15.69-14.72,18.06-27.81,2.1-11.62.05-22.94-4.85-31.1l6.39-28.53S213.38,96,213.08,89.59Z" transform="translate(-0.12)"/></svg>
