<svg xmlns="http://www.w3.org/2000/svg" x="0px" y="0px"
	 viewBox="0 0 237.7 52">
   <style>
    polygon, path {
      fill: #fff;
    }
   </style>
<g>
	<polygon points="85.1,28.7 85,28.7 74.7,15.9 70.9,15.9 70.9,34.8 74.7,34.8 74.7,22.1 74.7,22.1 85.1,34.8 88.9,34.8 88.9,15.9
		85.1,15.9 	"/>
	<polygon points="102.9,26.9 109.8,26.9 109.8,23.1 102.9,23.1 102.9,19.7 115.9,19.7 115.9,15.9 99.1,15.9 99.1,34.8 116.3,34.8
		116.3,31 102.9,31 	"/>
	<path d="M131.6,15.9l-7.6,18.9h3.6l1.6-4h9.2l1.6,4h3.6l-7.7-18.9H131.6z M130.7,27l3-7.4l3,7.4H130.7z"/>
	<path d="M167.6,21.5c0-4.3-3.3-5.6-6.8-5.6h-12v18.9h3.8v-7.7h6l4.8,7.7h4.8l-4.8-7.7C165.2,26.4,167.6,25.1,167.6,21.5z
		 M160.8,23.3h-8.2v-3.6h8.2c1.3,0,3,0,3,1.8C163.8,23.2,161.9,23.3,160.8,23.3z"/>
	<polygon points="199.9,25.4 193.2,15.9 189.4,15.9 189.4,34.8 193.2,34.8 193.2,22.8 193.3,22.8 199.9,32.3 206.4,22.8 206.5,22.8
		206.5,34.8 210.3,34.8 210.3,15.9 206.5,15.9 	"/>
	<polygon points="224.3,31 224.3,26.9 231.2,26.9 231.2,23.1 224.3,23.1 224.3,19.7 237.3,19.7 237.3,15.9 220.5,15.9 220.5,34.8
		237.7,34.8 237.7,31 	"/>
	<path d="M0,52h53V0H0V52z M17.5,16.4h3.8l10.3,12.8h0.1V16.4h3.8v18.9h-3.8L21.4,22.5h-0.1v12.8h-3.8V16.4z"/>
</g>
</svg>
