<?xml version="1.0" encoding="utf-8"?>
<!-- Generated by IcoMoon.io -->
<!DOCTYPE svg PUBLIC "-//W3C//DTD SVG 1.1//EN" "http://www.w3.org/Graphics/SVG/1.1/DTD/svg11.dtd">
<svg version="1.1" xmlns="http://www.w3.org/2000/svg" xmlns:xlink="http://www.w3.org/1999/xlink" width="23" height="32" viewBox="0 0 23 32">
<path fill="#edb256" d="M12.723 0v0h-11.808c-0.505 0-0.915 0.41-0.915 0.915v30.17c0 0.505 0.41 0.915 0.915 0.915h21.027c0.505 0 0.915-0.41 0.915-0.915v-20.946h-10.133z"></path>
<path fill="#f7c077" d="M12.723 10.136h10.131l-10.131-10.131v10.131z"></path>
<path fill="#333" opacity="0.1" d="M22.857 20.27v-10.133h-10.133l10.133 10.133z"></path>
<path fill="#f1f2f2" d="M13.053 27.461h-1.335l-0.386-1.211h-1.939l-0.384 1.211h-1.327l1.983-5.444h1.454zM11.049 25.309l-0.586-1.83c-0.045-0.143-0.078-0.311-0.093-0.484l-0.032-0.009c-0.015 0.175-0.049 0.336-0.1 0.489l-0.589 1.831z"></path>
<path fill="#f1f2f2" d="M15.215 22.014v0.949h-0.456v3.546h0.456v0.949h-2.139v-0.949h0.456v-3.546h-0.456v-0.949z"></path>
</svg>
