<?xml version="1.0" encoding="utf-8"?>
<!-- Generated by IcoMoon.io -->
<!DOCTYPE svg PUBLIC "-//W3C//DTD SVG 1.1//EN" "http://www.w3.org/Graphics/SVG/1.1/DTD/svg11.dtd">
<svg version="1.1" xmlns="http://www.w3.org/2000/svg" xmlns:xlink="http://www.w3.org/1999/xlink" width="23" height="32" viewBox="0 0 23 32">
<path fill="#30bf77" d="M12.723 0v0h-11.808c-0.505 0-0.915 0.41-0.915 0.915v30.17c0 0.505 0.41 0.915 0.915 0.915h21.027c0.505 0 0.915-0.41 0.915-0.915v-20.946h-10.133z"></path>
<path fill="#49c985" d="M12.723 10.136h10.131l-10.131-10.131v10.131z"></path>
<path fill="#333" opacity="0.1" d="M22.857 20.27v-10.131l-0.003-0.003h-10.131l10.133 10.134z"></path>
<path fill="#f1f2f2" d="M9.332 27.461h-1.325l-0.386-1.211h-1.939l-0.384 1.211h-1.327l1.983-5.444h1.454zM7.329 25.309l-0.586-1.83c-0.044-0.143-0.076-0.31-0.090-0.481l-0.032-0.009c-0.015 0.175-0.049 0.336-0.1 0.489l-0.589 1.831z"></path>
<path fill="#f1f2f2" d="M11.049 25.584v1.877h-1.226v-5.444h1.921q2.058 0 2.058 1.737c0.001 0.017 0.001 0.038 0.001 0.058 0 0.505-0.225 0.957-0.579 1.262-0.4 0.326-0.913 0.523-1.472 0.523-0.038 0-0.077-0.001-0.114-0.003zM11.049 22.955v1.698h0.482q0.98 0 0.98-0.858t-0.98-0.84z"></path>
<path fill="#f1f2f2" d="M18.924 27.461h-1.555l-1.581-2.367c-0.050-0.084-0.098-0.183-0.14-0.285l-0.024-0.015v2.665h-1.229v-5.444h1.226v2.574h0.018q0.047-0.106 0.153-0.303l1.504-2.271h1.462l-1.908 2.598z"></path>
</svg>
