<?xml version="1.0" encoding="utf-8"?>
<!-- Generated by IcoMoon.io -->
<!DOCTYPE svg PUBLIC "-//W3C//DTD SVG 1.1//EN" "http://www.w3.org/Graphics/SVG/1.1/DTD/svg11.dtd">
<svg version="1.1" xmlns="http://www.w3.org/2000/svg" xmlns:xlink="http://www.w3.org/1999/xlink" width="23" height="32" viewBox="0 0 23 32">
<path fill="#30bf77" d="M12.723 0v0h-11.808c-0.505 0-0.915 0.41-0.915 0.915v30.17c0 0.505 0.41 0.915 0.915 0.915h21.027c0.505 0 0.915-0.41 0.915-0.915v-20.946h-10.133z"></path>
<path fill="#49c985" d="M12.723 10.136h10.131l-10.131-10.131v10.131z"></path>
<path fill="#333" opacity="0.1" d="M22.857 20.27v-10.131l-0.003-0.003h-10.131l10.133 10.134z"></path>
<path fill="#f1f2f2" d="M10.206 27.461h-1.335l-0.386-1.211h-1.939l-0.384 1.211h-1.33l1.983-5.444h1.454zM8.202 25.309l-0.586-1.83c-0.046-0.143-0.081-0.31-0.098-0.483l-0.032-0.010c-0.015 0.175-0.049 0.336-0.1 0.489l-0.589 1.831z"></path>
<path fill="#f1f2f2" d="M10.434 27.251v-1.216c0.203 0.17 0.439 0.308 0.697 0.402 0.247 0.092 0.514 0.143 0.793 0.145 0.009 0 0.018 0 0.028 0 0.134 0 0.264-0.015 0.389-0.044 0.097-0.022 0.193-0.063 0.28-0.117 0.068-0.041 0.126-0.1 0.168-0.169 0.037-0.064 0.058-0.138 0.058-0.218 0-0.001 0-0.002 0-0.002 0-0.002 0-0.004 0-0.007 0-0.105-0.034-0.201-0.092-0.28-0.071-0.090-0.157-0.167-0.254-0.227-0.111-0.074-0.233-0.142-0.361-0.201q-0.232-0.105-0.483-0.209c-0.378-0.143-0.697-0.365-0.949-0.648-0.198-0.243-0.316-0.553-0.316-0.892 0-0.013 0-0.026 0.001-0.038 0-0.263 0.071-0.511 0.193-0.726 0.11-0.204 0.266-0.378 0.455-0.508 0.2-0.133 0.428-0.234 0.673-0.291 0.255-0.062 0.531-0.096 0.816-0.096 0.006 0 0.012 0 0.018 0 0.010-0 0.024-0 0.037-0 0.253 0 0.501 0.019 0.744 0.055 0.201 0.032 0.405 0.087 0.6 0.162l-0.020 1.129c-0.086-0.060-0.184-0.115-0.286-0.161s-0.213-0.088-0.327-0.12c-0.111-0.032-0.225-0.056-0.343-0.073-0.109-0.016-0.221-0.024-0.334-0.025-0.007-0-0.014-0-0.021-0-0.127 0-0.25 0.014-0.369 0.041-0.098 0.021-0.194 0.060-0.281 0.112-0.069 0.042-0.13 0.1-0.176 0.169-0.042 0.065-0.066 0.142-0.066 0.224 0 0.001 0 0.003 0 0.004s-0 0.003-0 0.004c0 0.089 0.027 0.172 0.074 0.241 0.055 0.079 0.123 0.147 0.201 0.202 0.095 0.069 0.201 0.132 0.311 0.185q0.202 0.099 0.443 0.197c0.231 0.096 0.423 0.193 0.608 0.302 0.148 0.088 0.295 0.203 0.424 0.335 0.12 0.124 0.217 0.272 0.282 0.435 0.066 0.182 0.102 0.382 0.102 0.591 0 0.278-0.064 0.541-0.178 0.774-0.111 0.195-0.269 0.363-0.459 0.487-0.203 0.137-0.433 0.239-0.681 0.296-0.257 0.055-0.536 0.086-0.822 0.086-0.007 0-0.015-0-0.022-0-0.297-0.002-0.587-0.032-0.868-0.088-0.238-0.040-0.477-0.12-0.698-0.23z"></path>
<path fill="#f1f2f2" d="M17.988 23.012h-1.916v1.338h1.765v0.995h-1.765v2.115h-1.231v-5.444h3.147z"></path>
</svg>
