<?xml version="1.0" encoding="utf-8"?>
<!-- Generated by IcoMoon.io -->
<!DOCTYPE svg PUBLIC "-//W3C//DTD SVG 1.1//EN" "http://www.w3.org/Graphics/SVG/1.1/DTD/svg11.dtd">
<svg version="1.1" xmlns="http://www.w3.org/2000/svg" xmlns:xlink="http://www.w3.org/1999/xlink" width="23" height="32" viewBox="0 0 23 32">
<path fill="#77655c" d="M12.723 0v0h-11.808c-0.505 0-0.915 0.41-0.915 0.915v30.17c0 0.505 0.41 0.915 0.915 0.915h21.027c0.505 0 0.915-0.41 0.915-0.915v-20.946h-10.133z"></path>
<path fill="#827670" d="M12.723 10.136h10.131l-10.131-10.131v10.131z"></path>
<path fill="#333" opacity="0.1" d="M22.857 20.27v-10.131l-0.003-0.003h-10.131l10.133 10.134z"></path>
<path fill="#f1f2f2" d="M10.784 27.461h-1.338l-0.386-1.211h-1.937l-0.384 1.211h-1.33l1.983-5.444h1.454zM8.78 25.309l-0.586-1.83c-0.044-0.143-0.076-0.31-0.090-0.481l-0.032-0.009c-0.015 0.175-0.049 0.336-0.1 0.489l-0.589 1.831z"></path>
<path fill="#f1f2f2" d="M15.352 22.014l-1.877 5.444h-1.389l-1.854-5.444h1.322l1.135 3.79c0.052 0.158 0.091 0.342 0.111 0.533l0.024 0.012c0.024-0.209 0.065-0.398 0.123-0.579l1.122-3.753z"></path>
<path fill="#f1f2f2" d="M17.485 22.014v0.949h-0.456v3.546h0.456v0.949h-2.139v-0.949h0.467v-3.546h-0.467v-0.949z"></path>
</svg>
