<?xml version="1.0" encoding="utf-8"?>
<!-- Generated by IcoMoon.io -->
<!DOCTYPE svg PUBLIC "-//W3C//DTD SVG 1.1//EN" "http://www.w3.org/Graphics/SVG/1.1/DTD/svg11.dtd">
<svg version="1.1" xmlns="http://www.w3.org/2000/svg" xmlns:xlink="http://www.w3.org/1999/xlink" width="23" height="32" viewBox="0 0 23 32">
<path fill="#48b8f7" d="M12.723 0v0h-11.808c-0.505 0-0.915 0.41-0.915 0.915v30.17c0 0.505 0.41 0.915 0.915 0.915h21.027c0.505 0 0.915-0.41 0.915-0.915v-20.946h-10.133z"></path>
<path fill="#6bd0fc" d="M12.723 10.136h10.131l-10.131-10.131v10.131z"></path>
<path fill="#333" opacity="0.1" d="M22.857 20.27v-10.133h-10.133l10.133 10.133z"></path>
<path fill="#f1f2f2" d="M4.451 27.461v-5.444h1.983c0.045-0.003 0.098-0.005 0.152-0.005 0.461 0 0.892 0.126 1.262 0.345 0.286 0.188 0.479 0.52 0.479 0.896 0 0.013-0 0.027-0.001 0.040 0 0.003 0 0.010 0 0.016 0 0.294-0.113 0.561-0.299 0.761-0.201 0.216-0.463 0.374-0.759 0.448l-0.011 0.018c0.364 0.033 0.686 0.191 0.928 0.43 0.215 0.217 0.347 0.515 0.347 0.845 0 0.008-0 0.017-0 0.025 0.001 0.016 0.001 0.036 0.001 0.057 0 0.455-0.209 0.86-0.535 1.127-0.371 0.278-0.836 0.444-1.339 0.444-0.044 0-0.088-0.001-0.132-0.004zM5.677 22.919v1.296h0.544c0.016 0.001 0.034 0.002 0.053 0.002 0.207 0 0.397-0.070 0.548-0.187 0.132-0.114 0.217-0.285 0.217-0.475 0-0.015-0-0.029-0.002-0.044q0-0.597-0.897-0.597zM5.677 25.122v1.436h0.664c0.017 0.001 0.036 0.002 0.056 0.002 0.229 0 0.441-0.074 0.613-0.201 0.151-0.12 0.249-0.307 0.249-0.517 0-0.008-0-0.016-0-0.024s0.001-0.020 0.001-0.031c0-0.197-0.093-0.373-0.238-0.486-0.169-0.119-0.377-0.19-0.602-0.19-0.022 0-0.044 0.001-0.066 0.002z"></path>
<path fill="#f1f2f2" d="M14.025 27.461h-1.338l-0.386-1.211h-1.931l-0.384 1.211h-1.335l1.983-5.444h1.454zM12.021 25.309l-0.586-1.83c-0.044-0.143-0.076-0.31-0.090-0.481l-0.032-0.009c-0.015 0.175-0.049 0.336-0.1 0.489l-0.584 1.829z"></path>
<path fill="#f1f2f2" d="M19.028 27.461h-1.555l-1.581-2.367c-0.050-0.084-0.098-0.183-0.14-0.285l-0.024-0.015v2.665h-1.226v-5.444h1.226v2.574h0.018q0.047-0.106 0.153-0.303l1.504-2.271h1.462l-1.898 2.592z"></path>
</svg>
