<?xml version="1.0" encoding="utf-8"?>
<!-- Generated by IcoMoon.io -->
<!DOCTYPE svg PUBLIC "-//W3C//DTD SVG 1.1//EN" "http://www.w3.org/Graphics/SVG/1.1/DTD/svg11.dtd">
<svg version="1.1" xmlns="http://www.w3.org/2000/svg" xmlns:xlink="http://www.w3.org/1999/xlink" width="23" height="32" viewBox="0 0 23 32">
<path fill="#48b8f7" d="M12.723 0v0h-11.808c-0.505 0-0.915 0.41-0.915 0.915v30.17c0 0.505 0.41 0.915 0.915 0.915h21.027c0.505 0 0.915-0.41 0.915-0.915v-20.946h-10.133z"></path>
<path fill="#6bd0fc" d="M12.723 10.136h10.131l-10.131-10.131v10.131z"></path>
<path fill="#333" opacity="0.1" d="M22.857 20.27v-10.131l-0.003-0.003h-10.131l10.133 10.134z"></path>
<path fill="#f1f2f2" d="M3.738 27.461v-5.444h1.983c0.045-0.003 0.097-0.005 0.15-0.005 0.461 0 0.892 0.126 1.261 0.345 0.286 0.188 0.479 0.52 0.479 0.896 0 0.013-0 0.027-0.001 0.040 0 0.004 0 0.010 0 0.017 0 0.294-0.113 0.561-0.299 0.76-0.199 0.218-0.458 0.378-0.751 0.456l-0.011 0.018c0.364 0.033 0.686 0.191 0.928 0.43 0.215 0.217 0.347 0.515 0.347 0.845 0 0.008-0 0.017-0 0.025 0.001 0.017 0.001 0.038 0.001 0.059 0 0.453-0.207 0.858-0.533 1.125-0.371 0.278-0.835 0.444-1.339 0.444-0.044 0-0.088-0.001-0.132-0.004zM4.964 22.919v1.296h0.539c0.015 0.001 0.034 0.002 0.052 0.002 0.207 0 0.397-0.070 0.549-0.187 0.132-0.114 0.217-0.285 0.217-0.475 0-0.015-0-0.029-0.002-0.044q0-0.597-0.897-0.597zM4.964 25.122v1.436h0.664c0.018 0.001 0.039 0.002 0.061 0.002 0.228 0 0.438-0.075 0.608-0.201 0.145-0.12 0.239-0.303 0.239-0.508 0-0.010-0-0.021-0.001-0.031 0.001-0.008 0.001-0.020 0.001-0.031 0-0.197-0.092-0.372-0.235-0.485-0.169-0.119-0.377-0.19-0.602-0.19-0.022 0-0.044 0.001-0.066 0.002z"></path>
<path fill="#f1f2f2" d="M14.727 27.461h-1.213v-3.259q0-0.518 0.047-1.167h-0.031c-0.048 0.282-0.108 0.525-0.182 0.761l-1.264 3.661h-1.003l-1.296-3.666c-0.060-0.2-0.12-0.456-0.165-0.717l-0.040-0.043q0.049 0.806 0.049 1.413v3.012h-1.107v-5.444h1.796l1.112 3.227c0.079 0.22 0.147 0.482 0.191 0.752l0.027 0.026c0.071-0.318 0.145-0.578 0.232-0.833l1.096-3.165h1.75z"></path>
<path fill="#f1f2f2" d="M16.988 25.584v1.877h-1.226v-5.444h1.921q2.058 0 2.058 1.734c0.001 0.016 0.001 0.035 0.001 0.055 0 0.509-0.229 0.965-0.59 1.271-0.4 0.326-0.913 0.523-1.472 0.523-0.038 0-0.077-0.001-0.114-0.003zM16.988 22.955v1.698h0.482q0.98 0 0.98-0.858t-0.98-0.84z"></path>
</svg>
