<?xml version="1.0" encoding="utf-8"?>
<!-- Generated by IcoMoon.io -->
<!DOCTYPE svg PUBLIC "-//W3C//DTD SVG 1.1//EN" "http://www.w3.org/Graphics/SVG/1.1/DTD/svg11.dtd">
<svg version="1.1" xmlns="http://www.w3.org/2000/svg" xmlns:xlink="http://www.w3.org/1999/xlink" width="23" height="32" viewBox="0 0 23 32">
<path fill="#c5d873" d="M12.723 0v0h-11.808c-0.505 0-0.915 0.41-0.915 0.915v30.17c0 0.505 0.41 0.915 0.915 0.915h21.027c0.505 0 0.915-0.41 0.915-0.915v-20.946h-10.133z"></path>
<path fill="#d4e089" d="M12.723 10.136h10.131l-10.131-10.131v10.131z"></path>
<path fill="#333" opacity="0.1" d="M22.857 20.27v-10.131l-0.003-0.003h-10.131l10.133 10.134z"></path>
<path fill="#f1f2f2" d="M8.267 27.266c-0.417 0.184-0.904 0.291-1.415 0.291-0.049 0-0.099-0.001-0.148-0.003-0.036 0.003-0.086 0.004-0.137 0.004-0.71 0-1.355-0.282-1.827-0.741-0.446-0.479-0.72-1.124-0.72-1.834 0-0.045 0.001-0.090 0.003-0.134-0.002-0.029-0.003-0.070-0.003-0.112 0-0.777 0.308-1.483 0.809-2.001 0.509-0.502 1.209-0.813 1.982-0.813 0.039 0 0.078 0.001 0.117 0.002 0.024-0.001 0.059-0.001 0.094-0.001 0.446 0 0.874 0.075 1.274 0.212l-0.028 1.169c-0.345-0.206-0.761-0.327-1.205-0.327-0.014 0-0.028 0-0.042 0-0.019-0.001-0.044-0.002-0.069-0.002-0.456 0-0.869 0.185-1.168 0.484-0.294 0.318-0.474 0.744-0.474 1.213 0 0.029 0.001 0.059 0.002 0.088-0.002 0.023-0.003 0.055-0.003 0.087 0 0.45 0.169 0.86 0.447 1.17 0.284 0.289 0.681 0.469 1.12 0.469 0.026 0 0.052-0.001 0.077-0.002 0.004 0 0.012 0 0.021 0 0.475 0 0.92-0.13 1.302-0.357z"></path>
<path fill="#f1f2f2" d="M9.016 27.461v-5.444h1.929q2.901 0 2.901 2.655c0.002 0.037 0.003 0.079 0.003 0.122 0 0.746-0.304 1.421-0.796 1.907-0.517 0.473-1.209 0.763-1.968 0.763-0.050 0-0.1-0.001-0.149-0.004zM10.242 23.015v3.45h0.607c0.027 0.002 0.058 0.002 0.089 0.002 0.454 0 0.865-0.184 1.163-0.482 0.283-0.319 0.456-0.741 0.456-1.203 0-0.033-0.001-0.065-0.003-0.098 0.002-0.022 0.003-0.053 0.003-0.084 0-0.44-0.173-0.84-0.454-1.135-0.303-0.278-0.71-0.448-1.156-0.448-0.037 0-0.074 0.001-0.111 0.004z"></path>
<path fill="#f1f2f2" d="M19.116 27.461h-1.41l-0.855-1.402q-0.096-0.161-0.181-0.285c-0.055-0.080-0.113-0.151-0.177-0.215-0.053-0.054-0.114-0.1-0.182-0.135-0.064-0.031-0.135-0.049-0.21-0.049-0.001 0-0.003 0-0.004 0h-0.321v2.074h-1.229v-5.444h1.944q1.983 0 1.983 1.48c0 0.002 0 0.004 0 0.006 0 0.184-0.032 0.36-0.092 0.523-0.061 0.157-0.149 0.301-0.257 0.427-0.108 0.129-0.235 0.24-0.378 0.329-0.151 0.094-0.318 0.17-0.496 0.221l-0.014 0.019c0.090 0.029 0.169 0.070 0.238 0.123 0.079 0.061 0.151 0.126 0.217 0.197 0.071 0.076 0.138 0.156 0.201 0.24q0.101 0.137 0.182 0.267zM15.774 22.932v1.517h0.531c0.013 0.001 0.027 0.001 0.042 0.001 0.229 0 0.437-0.087 0.593-0.23 0.149-0.139 0.243-0.338 0.243-0.558 0-0.005-0-0.010-0-0.015q0-0.712-0.853-0.712z"></path>
</svg>
