<?xml version="1.0" encoding="utf-8"?>
<!-- Generated by IcoMoon.io -->
<!DOCTYPE svg PUBLIC "-//W3C//DTD SVG 1.1//EN" "http://www.w3.org/Graphics/SVG/1.1/DTD/svg11.dtd">
<svg version="1.1" xmlns="http://www.w3.org/2000/svg" xmlns:xlink="http://www.w3.org/1999/xlink" width="23" height="32" viewBox="0 0 23 32">
<path fill="#ffc35a" d="M12.723 0v0h-11.808c-0.505 0-0.915 0.41-0.915 0.915v30.17c0 0.505 0.41 0.915 0.915 0.915h21.027c0.505 0 0.915-0.41 0.915-0.915v-20.946h-10.133z"></path>
<path fill="#ffce88" d="M12.723 10.136h10.131l-10.131-10.131v10.131z"></path>
<path fill="#333" opacity="0.1" d="M22.857 20.27v-10.133h-10.133l10.133 10.133z"></path>
<path fill="#f1f2f2" d="M9.472 27.266c-0.417 0.184-0.903 0.291-1.415 0.291-0.049 0-0.099-0.001-0.148-0.003-0.036 0.003-0.086 0.004-0.137 0.004-0.71 0-1.355-0.282-1.827-0.741-0.446-0.479-0.72-1.124-0.72-1.834 0-0.045 0.001-0.090 0.003-0.134-0.002-0.029-0.003-0.070-0.003-0.112 0-0.777 0.308-1.483 0.809-2.001 0.509-0.502 1.209-0.813 1.982-0.813 0.039 0 0.078 0.001 0.117 0.002 0.024-0.001 0.059-0.001 0.094-0.001 0.446 0 0.874 0.075 1.274 0.212l-0.028 1.169c-0.345-0.206-0.761-0.327-1.205-0.327-0.014 0-0.028 0-0.042 0-0.017-0.001-0.039-0.001-0.062-0.001-0.456 0-0.869 0.185-1.167 0.483-0.294 0.318-0.474 0.744-0.474 1.213 0 0.029 0.001 0.059 0.002 0.088-0.002 0.023-0.003 0.055-0.003 0.087 0 0.45 0.169 0.86 0.447 1.17 0.281 0.289 0.677 0.47 1.114 0.47 0.028 0 0.056-0.001 0.084-0.002 0.003 0 0.012 0 0.021 0 0.475 0 0.92-0.13 1.302-0.357z"></path>
<path fill="#f1f2f2" d="M9.968 27.251v-1.216c0.204 0.173 0.442 0.314 0.702 0.41 0.247 0.092 0.514 0.144 0.793 0.145 0.009 0 0.018 0 0.027 0 0.134 0 0.264-0.015 0.389-0.044 0.097-0.023 0.193-0.063 0.28-0.117 0.067-0.042 0.126-0.1 0.168-0.169 0.037-0.064 0.058-0.138 0.058-0.218 0-0.001 0-0.002 0-0.002 0-0.002 0-0.004 0-0.007 0-0.105-0.034-0.201-0.092-0.28-0.071-0.090-0.157-0.167-0.254-0.227-0.11-0.074-0.232-0.142-0.359-0.201q-0.231-0.105-0.483-0.209c-0.377-0.142-0.697-0.364-0.949-0.646-0.198-0.243-0.316-0.553-0.316-0.891 0-0.013 0-0.026 0.001-0.038-0-0.007-0-0.018-0-0.029 0-0.256 0.065-0.497 0.18-0.708 0.112-0.204 0.271-0.378 0.463-0.508 0.2-0.133 0.428-0.233 0.673-0.291 0.256-0.062 0.534-0.096 0.819-0.096 0.005 0 0.010 0 0.015 0 0.012-0 0.027-0 0.042-0 0.251 0 0.498 0.019 0.739 0.055 0.201 0.031 0.405 0.086 0.6 0.162l-0.020 1.129c-0.086-0.060-0.184-0.115-0.286-0.161s-0.213-0.087-0.326-0.12c-0.111-0.032-0.226-0.056-0.343-0.073-0.11-0.016-0.221-0.024-0.334-0.025-0.006-0-0.012-0-0.019-0-0.128 0-0.252 0.014-0.372 0.041-0.097 0.022-0.194 0.060-0.281 0.112-0.069 0.042-0.13 0.1-0.176 0.169-0.042 0.065-0.066 0.141-0.066 0.223 0 0.002 0 0.003 0 0.005s-0 0.004-0 0.006c0 0.089 0.027 0.173 0.074 0.242 0.056 0.079 0.124 0.147 0.201 0.201 0.095 0.068 0.2 0.131 0.311 0.185 0.14 0.068 0.272 0.133 0.443 0.198 0.231 0.096 0.424 0.193 0.608 0.302 0.148 0.088 0.294 0.203 0.423 0.335 0.12 0.124 0.217 0.272 0.282 0.435 0.066 0.182 0.102 0.382 0.102 0.591 0 0.278-0.064 0.541-0.178 0.774-0.111 0.195-0.269 0.363-0.459 0.487-0.203 0.137-0.435 0.238-0.684 0.294-0.257 0.055-0.536 0.086-0.822 0.086-0.007 0-0.015-0-0.022-0-0.006 0-0.014 0-0.022 0-0.293 0-0.58-0.027-0.859-0.080-0.234-0.045-0.469-0.126-0.686-0.238z"></path>
<path fill="#f1f2f2" d="M14.126 27.251v-1.216c0.204 0.173 0.442 0.314 0.702 0.41 0.247 0.092 0.514 0.144 0.793 0.145 0.008 0 0.018 0 0.027 0 0.134 0 0.265-0.015 0.39-0.044 0.097-0.023 0.193-0.063 0.28-0.117 0.067-0.042 0.126-0.1 0.168-0.169 0.037-0.064 0.058-0.138 0.058-0.218 0-0.001 0-0.002 0-0.002 0-0.002 0-0.004 0-0.007 0-0.105-0.034-0.201-0.092-0.28-0.071-0.090-0.157-0.167-0.254-0.227-0.111-0.074-0.233-0.142-0.361-0.201q-0.231-0.105-0.483-0.209c-0.377-0.142-0.697-0.364-0.949-0.646-0.198-0.243-0.316-0.554-0.316-0.892 0-0.012 0-0.025 0-0.037-0-0.003-0-0.009-0-0.015 0-0.262 0.068-0.508 0.188-0.721 0.11-0.204 0.268-0.378 0.458-0.508 0.2-0.133 0.428-0.233 0.673-0.291 0.256-0.062 0.534-0.096 0.819-0.096 0.005 0 0.010 0 0.015 0 0.012-0 0.026-0 0.041-0 0.251 0 0.498 0.019 0.74 0.055 0.201 0.031 0.405 0.087 0.6 0.162l-0.020 1.129c-0.086-0.060-0.184-0.115-0.287-0.161s-0.213-0.087-0.326-0.12c-0.11-0.031-0.225-0.056-0.343-0.073-0.11-0.016-0.221-0.024-0.334-0.025-0.006-0-0.012-0-0.019-0-0.128 0-0.252 0.014-0.372 0.041-0.097 0.022-0.194 0.060-0.281 0.112-0.069 0.042-0.13 0.1-0.176 0.169-0.042 0.064-0.066 0.141-0.066 0.222 0 0.002 0 0.004 0 0.005s-0 0.004-0 0.006c0 0.089 0.027 0.173 0.074 0.242 0.056 0.079 0.124 0.147 0.201 0.201 0.096 0.068 0.202 0.131 0.313 0.185 0.14 0.068 0.272 0.133 0.441 0.198 0.231 0.096 0.424 0.193 0.608 0.303 0.147 0.087 0.294 0.203 0.423 0.335 0.12 0.124 0.217 0.272 0.282 0.435 0.066 0.171 0.102 0.359 0.102 0.555 0 0.011-0 0.023-0 0.034 0.001 0.017 0.001 0.038 0.001 0.059 0 0.262-0.065 0.509-0.179 0.725-0.111 0.197-0.269 0.365-0.46 0.489-0.204 0.133-0.436 0.231-0.684 0.284-0.256 0.055-0.536 0.085-0.822 0.085-0.007 0-0.014-0-0.022-0-0.006 0-0.014 0-0.022 0-0.293 0-0.581-0.027-0.859-0.080-0.234-0.045-0.469-0.126-0.686-0.238z"></path>
</svg>
