<?xml version="1.0" encoding="utf-8"?>
<!-- Generated by IcoMoon.io -->
<!DOCTYPE svg PUBLIC "-//W3C//DTD SVG 1.1//EN" "http://www.w3.org/Graphics/SVG/1.1/DTD/svg11.dtd">
<svg version="1.1" xmlns="http://www.w3.org/2000/svg" xmlns:xlink="http://www.w3.org/1999/xlink" width="23" height="32" viewBox="0 0 23 32">
<path fill="#48b8f7" d="M12.723 0v0h-11.808c-0.505 0-0.915 0.41-0.915 0.915v30.17c0 0.505 0.41 0.915 0.915 0.915h21.027c0.505 0 0.915-0.41 0.915-0.915v-20.946h-10.133z"></path>
<path fill="#6bd0fc" d="M12.723 10.136h10.131l-10.131-10.131v10.131z"></path>
<path fill="#333" opacity="0.1" d="M22.857 20.27v-10.133h-10.133l10.133 10.133z"></path>
<path fill="#f1f2f2" d="M8.972 27.266c-0.417 0.184-0.903 0.291-1.415 0.291-0.049 0-0.099-0.001-0.148-0.003-0.036 0.003-0.086 0.004-0.137 0.004-0.71 0-1.355-0.282-1.827-0.741-0.446-0.479-0.72-1.124-0.72-1.834 0-0.045 0.001-0.090 0.003-0.134-0.002-0.029-0.003-0.070-0.003-0.112 0-0.777 0.308-1.483 0.809-2.001 0.509-0.502 1.209-0.813 1.982-0.813 0.039 0 0.078 0.001 0.117 0.002 0.024-0.001 0.059-0.001 0.094-0.001 0.446 0 0.874 0.075 1.274 0.212l-0.028 1.169c-0.345-0.206-0.761-0.327-1.205-0.327-0.014 0-0.028 0-0.042 0-0.022-0.001-0.051-0.002-0.079-0.002-0.456 0-0.869 0.185-1.168 0.484-0.294 0.318-0.474 0.744-0.474 1.213 0 0.029 0.001 0.059 0.002 0.088-0.002 0.023-0.003 0.055-0.003 0.087 0 0.45 0.169 0.86 0.447 1.17 0.284 0.289 0.681 0.469 1.12 0.469 0.026 0 0.052-0.001 0.077-0.002 0.004 0 0.012 0 0.021 0 0.475 0 0.92-0.13 1.302-0.357z"></path>
<path fill="#f1f2f2" d="M9.47 27.251v-1.216c0.204 0.173 0.442 0.314 0.702 0.41 0.247 0.092 0.514 0.143 0.793 0.145 0.009 0 0.018 0 0.028 0 0.134 0 0.264-0.015 0.389-0.044 0.099-0.018 0.199-0.055 0.288-0.106 0.067-0.041 0.126-0.099 0.168-0.169 0.037-0.064 0.058-0.138 0.058-0.218 0-0.001 0-0.002 0-0.002 0-0.002 0-0.004 0-0.007 0-0.105-0.034-0.201-0.092-0.28-0.071-0.090-0.157-0.167-0.254-0.227-0.111-0.074-0.233-0.142-0.361-0.201q-0.232-0.105-0.483-0.209c-0.378-0.143-0.697-0.365-0.949-0.648-0.198-0.243-0.316-0.553-0.316-0.892 0-0.013 0-0.026 0.001-0.038-0-0.009-0.001-0.023-0.001-0.036 0-0.257 0.065-0.498 0.181-0.709 0.11-0.203 0.266-0.377 0.455-0.508 0.2-0.133 0.428-0.234 0.673-0.291 0.255-0.062 0.531-0.096 0.816-0.096 0.006 0 0.012 0 0.018 0 0.010-0 0.024-0 0.037-0 0.253 0 0.501 0.019 0.744 0.055 0.201 0.032 0.405 0.087 0.6 0.162l-0.020 1.129c-0.086-0.060-0.184-0.115-0.286-0.161s-0.213-0.088-0.327-0.12c-0.111-0.032-0.225-0.056-0.343-0.073-0.109-0.016-0.221-0.024-0.334-0.025-0.007-0-0.014-0-0.021-0-0.127 0-0.25 0.014-0.369 0.041-0.098 0.021-0.194 0.060-0.281 0.112-0.069 0.042-0.13 0.1-0.176 0.169-0.042 0.065-0.066 0.142-0.066 0.224 0 0.001 0 0.003 0 0.004s-0 0.003-0 0.004c0 0.089 0.027 0.172 0.074 0.241 0.055 0.079 0.123 0.147 0.201 0.202 0.095 0.069 0.201 0.132 0.311 0.185q0.202 0.099 0.443 0.197c0.231 0.096 0.423 0.193 0.608 0.302 0.148 0.088 0.295 0.203 0.424 0.335 0.12 0.124 0.217 0.272 0.282 0.435 0.066 0.182 0.102 0.382 0.102 0.591 0 0.278-0.064 0.541-0.178 0.774-0.111 0.195-0.269 0.363-0.459 0.487-0.203 0.137-0.433 0.239-0.681 0.296-0.257 0.055-0.536 0.086-0.822 0.086-0.007 0-0.015-0-0.022-0-0.006 0-0.014 0-0.022 0-0.293 0-0.58-0.027-0.859-0.080-0.234-0.045-0.469-0.126-0.686-0.238z"></path>
<path fill="#f1f2f2" d="M18.406 22.014l-1.877 5.444h-1.384l-1.854-5.444h1.322l1.135 3.79c0.052 0.158 0.091 0.342 0.111 0.533l0.024 0.012c0.024-0.209 0.065-0.398 0.123-0.579l1.122-3.753z"></path>
</svg>
