<?xml version="1.0" encoding="utf-8"?>
<!-- Generated by IcoMoon.io -->
<!DOCTYPE svg PUBLIC "-//W3C//DTD SVG 1.1//EN" "http://www.w3.org/Graphics/SVG/1.1/DTD/svg11.dtd">
<svg version="1.1" xmlns="http://www.w3.org/2000/svg" xmlns:xlink="http://www.w3.org/1999/xlink" width="23" height="32" viewBox="0 0 23 32">
<path fill="#f7984b" d="M12.723 0v0h-11.808c-0.505 0-0.915 0.41-0.915 0.915v30.17c0 0.505 0.41 0.915 0.915 0.915h21.027c0.505 0 0.915-0.41 0.915-0.915v-20.946h-10.133z"></path>
<path fill="#fcab75" d="M12.723 10.136h10.131l-10.131-10.131v10.131z"></path>
<path fill="#333" opacity="0.1" d="M22.857 20.27v-10.133h-10.133l10.133 10.133z"></path>
<path fill="#f1f2f2" d="M3.126 27.458v-5.444h1.929q2.901 0 2.901 2.655c0.002 0.038 0.003 0.083 0.003 0.127 0 0.745-0.303 1.419-0.794 1.905-0.517 0.473-1.209 0.763-1.968 0.763-0.050 0-0.1-0.001-0.149-0.004zM4.353 23.012v3.45h0.607c0.030 0.002 0.066 0.003 0.102 0.003 0.453 0 0.864-0.183 1.161-0.48 0.283-0.319 0.456-0.741 0.456-1.203 0-0.033-0.001-0.065-0.003-0.098 0.002-0.023 0.003-0.056 0.003-0.089 0-0.442-0.174-0.843-0.457-1.138-0.303-0.278-0.71-0.448-1.157-0.448-0.037 0-0.074 0.001-0.11 0.003z"></path>
<path fill="#f1f2f2" d="M10.341 22.014v0.949h-0.456v3.546h0.456v0.949h-2.139v-0.949h0.456v-3.546h-0.456v-0.949z"></path>
<path fill="#f1f2f2" d="M15.456 22.014l-1.877 5.444h-1.395l-1.854-5.444h1.335l1.135 3.79c0.052 0.158 0.091 0.342 0.111 0.533l0.024 0.012c0.024-0.209 0.065-0.398 0.123-0.579l1.122-3.753z"></path>
<path fill="#f1f2f2" d="M20.353 27.458h-1.454l-0.938-1.773c-0.048-0.105-0.087-0.228-0.11-0.356l-0.014-0.009c-0.038 0.149-0.080 0.275-0.131 0.397l-0.934 1.739h-1.475l1.737-2.722-1.587-2.722h1.493l0.778 1.633c0.063 0.13 0.122 0.284 0.166 0.444l0.020 0.020q0.047-0.161 0.171-0.474l0.866-1.618h1.366l-1.641 2.696z"></path>
</svg>
