<?xml version="1.0" encoding="utf-8"?>
<!-- Generated by IcoMoon.io -->
<!DOCTYPE svg PUBLIC "-//W3C//DTD SVG 1.1//EN" "http://www.w3.org/Graphics/SVG/1.1/DTD/svg11.dtd">
<svg version="1.1" xmlns="http://www.w3.org/2000/svg" xmlns:xlink="http://www.w3.org/1999/xlink" width="23" height="32" viewBox="0 0 23 32">
<path fill="#48b8f7" d="M12.723 0v0h-11.808c-0.505 0-0.915 0.41-0.915 0.915v30.17c0 0.505 0.41 0.915 0.915 0.915h21.027c0.505 0 0.915-0.41 0.915-0.915v-20.946h-10.133z"></path>
<path fill="#6bd0fc" d="M12.723 10.136h10.131l-10.131-10.131v10.131z"></path>
<path fill="#333" opacity="0.1" d="M22.857 20.27v-10.133h-10.133l10.133 10.133z"></path>
<path fill="#f1f2f2" d="M5.465 27.458v-5.444h1.929q2.901 0 2.901 2.655c0.002 0.038 0.003 0.083 0.003 0.127 0 0.745-0.303 1.419-0.794 1.905-0.517 0.473-1.209 0.763-1.968 0.763-0.050 0-0.1-0.001-0.149-0.004zM6.691 23.012v3.45h0.607c0.029 0.002 0.063 0.003 0.097 0.003 0.453 0 0.863-0.183 1.161-0.48 0.283-0.319 0.456-0.741 0.456-1.203 0-0.033-0.001-0.065-0.003-0.098 0.002-0.023 0.003-0.056 0.003-0.089 0-0.442-0.174-0.843-0.457-1.138-0.303-0.278-0.71-0.448-1.157-0.448-0.037 0-0.074 0.001-0.11 0.003z"></path>
<path fill="#f1f2f2" d="M14.24 27.458h-3.243v-5.444h1.226v4.451h2.017z"></path>
<path fill="#f1f2f2" d="M18.014 27.458h-3.238v-5.444h1.226v4.451h2.017z"></path>
</svg>
