<?xml version="1.0" encoding="utf-8"?>
<!-- Generated by IcoMoon.io -->
<!DOCTYPE svg PUBLIC "-//W3C//DTD SVG 1.1//EN" "http://www.w3.org/Graphics/SVG/1.1/DTD/svg11.dtd">
<svg version="1.1" xmlns="http://www.w3.org/2000/svg" xmlns:xlink="http://www.w3.org/1999/xlink" width="23" height="32" viewBox="0 0 23 32">
<path fill="#48b8f7" d="M12.723 0v0h-11.808c-0.505 0-0.915 0.41-0.915 0.915v30.17c0 0.505 0.41 0.915 0.915 0.915h21.027c0.505 0 0.915-0.41 0.915-0.915v-20.946h-10.133z"></path>
<path fill="#6bd0fc" d="M12.723 10.136h10.131l-10.131-10.131v10.131z"></path>
<path fill="#333" opacity="0.1" d="M22.857 20.27v-10.133h-10.133l10.133 10.133z"></path>
<path fill="#f1f2f2" d="M4.111 27.461v-5.444h1.929q2.901 0 2.901 2.655c0.002 0.037 0.003 0.081 0.003 0.125 0 0.745-0.303 1.419-0.793 1.905-0.517 0.473-1.209 0.763-1.968 0.763-0.050 0-0.1-0.001-0.149-0.004zM5.338 23.015v3.453h0.607c0.027 0.002 0.058 0.002 0.089 0.002 0.454 0 0.865-0.184 1.163-0.482 0.283-0.319 0.456-0.741 0.456-1.203 0-0.033-0.001-0.065-0.003-0.098 0.002-0.022 0.003-0.053 0.003-0.084 0-0.44-0.173-0.84-0.454-1.135-0.303-0.278-0.71-0.448-1.157-0.448-0.037 0-0.074 0.001-0.11 0.003z"></path>
<path fill="#f1f2f2" d="M11.946 27.554c-0.028 0.001-0.060 0.002-0.093 0.002-0.71 0-1.352-0.292-1.812-0.763-0.458-0.488-0.739-1.146-0.739-1.869 0-0.040 0.001-0.081 0.003-0.12-0.002-0.034-0.003-0.080-0.003-0.127 0-0.753 0.284-1.441 0.752-1.96 0.47-0.491 1.135-0.798 1.871-0.798 0.039 0 0.077 0.001 0.115 0.003 0.024-0.001 0.057-0.002 0.092-0.002 0.702 0 1.337 0.293 1.787 0.763 0.45 0.498 0.724 1.159 0.724 1.885 0 0.045-0.001 0.089-0.003 0.134 0.002 0.034 0.003 0.081 0.003 0.128 0 0.748-0.285 1.429-0.752 1.941-0.464 0.483-1.119 0.785-1.844 0.785-0.035 0-0.070-0.001-0.105-0.002zM12 22.979c-0.017-0.001-0.036-0.001-0.056-0.001-0.399 0-0.754 0.189-0.979 0.483-0.24 0.33-0.383 0.74-0.383 1.183 0 0.035 0.001 0.071 0.003 0.106-0.002 0.028-0.003 0.067-0.003 0.106 0 0.44 0.143 0.846 0.385 1.175 0.221 0.283 0.568 0.467 0.958 0.467 0.012 0 0.024-0 0.035-0s0.027 0.001 0.043 0.001c0.386 0 0.731-0.178 0.957-0.457 0.237-0.322 0.379-0.723 0.379-1.158 0-0.040-0.001-0.081-0.004-0.12 0.003-0.033 0.004-0.077 0.004-0.122 0-0.444-0.136-0.856-0.369-1.196-0.212-0.281-0.554-0.465-0.938-0.465-0.012 0-0.024 0-0.036 0.001z"></path>
<path fill="#f1f2f2" d="M19.243 27.266c-0.417 0.184-0.904 0.291-1.415 0.291-0.049 0-0.099-0.001-0.148-0.003-0.036 0.003-0.086 0.004-0.136 0.004-0.711 0-1.355-0.282-1.828-0.741-0.446-0.478-0.72-1.124-0.72-1.833 0-0.045 0.001-0.091 0.003-0.135-0.002-0.027-0.002-0.067-0.002-0.106 0-0.781 0.311-1.49 0.817-2.008 0.509-0.502 1.209-0.812 1.982-0.812 0.032 0 0.064 0.001 0.096 0.002 0.025-0.001 0.060-0.001 0.095-0.001 0.446 0 0.874 0.075 1.274 0.212l-0.028 1.171c-0.345-0.206-0.761-0.327-1.205-0.327-0.014 0-0.028 0-0.042 0-0.019-0.001-0.044-0.002-0.069-0.002-0.456 0-0.869 0.185-1.168 0.484-0.294 0.318-0.474 0.744-0.474 1.213 0 0.029 0.001 0.059 0.002 0.088-0.002 0.023-0.003 0.055-0.003 0.087 0 0.45 0.169 0.86 0.447 1.17 0.283 0.289 0.68 0.469 1.119 0.469 0.027 0 0.054-0.001 0.081-0.002 0.004 0 0.012 0 0.021 0 0.475 0 0.92-0.13 1.302-0.357z"></path>
</svg>
