<?xml version="1.0" encoding="utf-8"?>
<!-- Generated by IcoMoon.io -->
<!DOCTYPE svg PUBLIC "-//W3C//DTD SVG 1.1//EN" "http://www.w3.org/Graphics/SVG/1.1/DTD/svg11.dtd">
<svg version="1.1" xmlns="http://www.w3.org/2000/svg" xmlns:xlink="http://www.w3.org/1999/xlink" width="23" height="32" viewBox="0 0 23 32">
<path fill="#37c49c" d="M12.723 0v0h-11.808c-0.505 0-0.915 0.41-0.915 0.915v30.17c0 0.505 0.41 0.915 0.915 0.915h21.027c0.505 0 0.915-0.41 0.915-0.915v-20.946h-10.133z"></path>
<path fill="#4ecea6" d="M12.723 10.136h10.131l-10.131-10.131v10.131z"></path>
<path fill="#333" opacity="0.1" d="M22.857 20.27v-10.131l-0.003-0.003h-10.131l10.133 10.134z"></path>
<path fill="#f1f2f2" d="M1.576 27.461v-5.444h1.929q2.901 0 2.901 2.655c0.002 0.037 0.003 0.081 0.003 0.125 0 0.745-0.303 1.419-0.793 1.905-0.517 0.473-1.209 0.763-1.968 0.763-0.050 0-0.1-0.001-0.149-0.004zM2.802 23.015v3.45h0.607c0.028 0.002 0.062 0.003 0.095 0.003 0.454 0 0.865-0.184 1.162-0.482 0.283-0.319 0.456-0.741 0.456-1.203 0-0.033-0.001-0.065-0.003-0.098 0.002-0.023 0.003-0.056 0.003-0.089 0-0.442-0.174-0.843-0.457-1.138-0.303-0.278-0.71-0.448-1.157-0.448-0.037 0-0.074 0.001-0.11 0.003z"></path>
<path fill="#f1f2f2" d="M9.41 27.554c-0.028 0.001-0.060 0.002-0.093 0.002-0.71 0-1.352-0.292-1.812-0.763-0.458-0.488-0.739-1.146-0.739-1.869 0-0.040 0.001-0.081 0.003-0.12-0.002-0.033-0.003-0.078-0.003-0.124 0-0.755 0.285-1.443 0.754-1.962 0.471-0.491 1.135-0.798 1.871-0.798 0.039 0 0.077 0.001 0.115 0.003 0.023-0.001 0.057-0.002 0.090-0.002 0.703 0 1.338 0.294 1.788 0.766 0.45 0.497 0.725 1.159 0.725 1.884 0 0.045-0.001 0.090-0.003 0.135 0.002 0.034 0.003 0.081 0.003 0.128 0 0.748-0.285 1.429-0.752 1.941-0.465 0.482-1.119 0.783-1.843 0.783-0.037 0-0.073-0.001-0.109-0.002zM9.465 22.979c-0.017-0.001-0.036-0.001-0.056-0.001-0.399 0-0.754 0.189-0.979 0.483-0.24 0.33-0.383 0.74-0.383 1.183 0 0.035 0.001 0.071 0.003 0.106-0.002 0.029-0.003 0.068-0.003 0.107 0 0.44 0.143 0.846 0.385 1.174 0.238 0.283 0.599 0.465 1.002 0.465 0.397 0 0.753-0.177 0.994-0.455 0.237-0.321 0.378-0.723 0.378-1.157 0-0.040-0.001-0.081-0.004-0.12 0.003-0.033 0.004-0.077 0.004-0.122 0-0.444-0.136-0.856-0.369-1.197-0.212-0.281-0.554-0.465-0.938-0.465-0.012 0-0.024 0-0.036 0.001z"></path>
<path fill="#f1f2f2" d="M16.708 27.266c-0.417 0.184-0.903 0.291-1.415 0.291-0.049 0-0.099-0.001-0.148-0.003-0.036 0.003-0.086 0.004-0.136 0.004-0.711 0-1.355-0.282-1.828-0.741-0.446-0.479-0.72-1.124-0.72-1.834 0-0.045 0.001-0.090 0.003-0.134-0.002-0.029-0.003-0.071-0.003-0.113 0-0.777 0.308-1.482 0.809-2 0.509-0.502 1.209-0.813 1.982-0.813 0.039 0 0.078 0.001 0.117 0.002 0.024-0.001 0.059-0.001 0.094-0.001 0.446 0 0.874 0.075 1.274 0.212l-0.028 1.169c-0.345-0.206-0.761-0.327-1.205-0.327-0.014 0-0.028 0-0.042 0-0.019-0.001-0.044-0.002-0.069-0.002-0.456 0-0.869 0.185-1.168 0.484-0.294 0.318-0.474 0.744-0.474 1.213 0 0.029 0.001 0.059 0.002 0.088-0.002 0.023-0.003 0.055-0.003 0.087 0 0.45 0.169 0.86 0.447 1.17 0.283 0.289 0.68 0.469 1.119 0.469 0.027 0 0.054-0.001 0.081-0.002 0.004 0 0.012 0 0.021 0 0.475 0 0.92-0.13 1.302-0.357z"></path>
<path fill="#f1f2f2" d="M21.903 27.461h-1.454l-0.938-1.773c-0.048-0.105-0.085-0.228-0.108-0.356l-0.017-0.009c-0.038 0.149-0.080 0.275-0.131 0.397l-0.934 1.739h-1.47l1.734-2.722-1.587-2.722h1.493l0.778 1.633c0.064 0.129 0.123 0.283 0.169 0.442l0.005 0.020q0.047-0.161 0.171-0.474l0.866-1.62h1.366l-1.625 2.701z"></path>
</svg>
