<?xml version="1.0" encoding="utf-8"?>
<!-- Generated by IcoMoon.io -->
<!DOCTYPE svg PUBLIC "-//W3C//DTD SVG 1.1//EN" "http://www.w3.org/Graphics/SVG/1.1/DTD/svg11.dtd">
<svg version="1.1" xmlns="http://www.w3.org/2000/svg" xmlns:xlink="http://www.w3.org/1999/xlink" width="23" height="32" viewBox="0 0 23 32">
<path fill="#c5d873" d="M12.723 0v0h-11.808c-0.505 0-0.915 0.41-0.915 0.915v30.17c0 0.505 0.41 0.915 0.915 0.915h21.027c0.505 0 0.915-0.41 0.915-0.915v-20.946h-10.133z"></path>
<path fill="#d4e089" d="M12.723 10.136h10.131l-10.131-10.131v10.131z"></path>
<path fill="#333" opacity="0.1" d="M22.857 20.27v-10.131l-0.003-0.003h-10.131l10.133 10.134z"></path>
<path fill="#f1f2f2" d="M5.413 27.461v-5.444h1.929q2.901 0 2.901 2.655c0.002 0.036 0.003 0.079 0.003 0.121 0 0.746-0.304 1.421-0.796 1.908-0.518 0.473-1.209 0.763-1.969 0.763-0.050 0-0.099-0.001-0.148-0.004zM6.639 23.015v3.453h0.62c0.027 0.002 0.059 0.003 0.090 0.003 0.454 0 0.865-0.184 1.162-0.482 0.283-0.319 0.456-0.741 0.456-1.203 0-0.033-0.001-0.065-0.003-0.098 0.002-0.022 0.003-0.053 0.003-0.084 0-0.44-0.173-0.841-0.454-1.136-0.303-0.278-0.71-0.448-1.157-0.448-0.037 0-0.074 0.001-0.11 0.003z"></path>
<path fill="#f1f2f2" d="M18.066 22.014l-1.439 5.444h-1.358l-0.905-3.492c-0.048-0.181-0.080-0.391-0.088-0.606l-0.018-0.005c-0.018 0.227-0.053 0.435-0.104 0.637l-0.92 3.469h-1.413l-1.431-5.444h1.34l0.778 3.629c0.036 0.181 0.062 0.395 0.072 0.613l0.024 0.009c0.011-0.233 0.046-0.453 0.103-0.664l0.983-3.59h1.314l0.892 3.65c0.038 0.165 0.069 0.365 0.087 0.569l0.017 0.017c0.010-0.219 0.036-0.426 0.077-0.627l0.747-3.604z"></path>
</svg>
