<?xml version="1.0" encoding="utf-8"?>
<!-- Generated by IcoMoon.io -->
<!DOCTYPE svg PUBLIC "-//W3C//DTD SVG 1.1//EN" "http://www.w3.org/Graphics/SVG/1.1/DTD/svg11.dtd">
<svg version="1.1" xmlns="http://www.w3.org/2000/svg" xmlns:xlink="http://www.w3.org/1999/xlink" width="23" height="32" viewBox="0 0 23 32">
<path fill="#f76181" d="M12.723 0v0h-11.808c-0.505 0-0.915 0.41-0.915 0.915v30.17c0 0.505 0.41 0.915 0.915 0.915h21.027c0.505 0 0.915-0.41 0.915-0.915v-20.946h-10.133z"></path>
<path fill="#f77ca2" d="M12.723 10.136h10.131l-10.131-10.131v10.131z"></path>
<path fill="#333" opacity="0.1" d="M22.857 20.27v-10.131l-0.003-0.003h-10.131l10.133 10.134z"></path>
<path fill="#f1f2f2" d="M2.815 27.461v-5.444h1.929q2.901 0 2.901 2.655c0.002 0.037 0.003 0.081 0.003 0.125 0 0.745-0.303 1.419-0.793 1.905-0.517 0.473-1.209 0.763-1.968 0.763-0.050 0-0.1-0.001-0.149-0.004zM4.041 23.015v3.453h0.607c0.027 0.002 0.058 0.002 0.089 0.002 0.454 0 0.865-0.184 1.163-0.482 0.283-0.319 0.456-0.741 0.456-1.203 0-0.033-0.001-0.065-0.003-0.098 0.002-0.022 0.003-0.053 0.003-0.084 0-0.44-0.173-0.84-0.454-1.135-0.303-0.278-0.71-0.448-1.157-0.448-0.037 0-0.074 0.001-0.11 0.003z"></path>
<path fill="#f1f2f2" d="M15.471 22.014l-1.439 5.444h-1.361l-0.902-3.492c-0.048-0.181-0.080-0.391-0.088-0.606l-0.016-0.005c-0.018 0.227-0.053 0.435-0.104 0.637l-0.933 3.469h-1.405l-1.431-5.444h1.34l0.778 3.629c0.036 0.181 0.062 0.395 0.072 0.613l0.024 0.009c0.012-0.234 0.049-0.454 0.109-0.664l0.983-3.59h1.314l0.887 3.65c0.038 0.165 0.069 0.365 0.087 0.569l0.017 0.017c0.012-0.22 0.039-0.427 0.082-0.627l0.747-3.604z"></path>
<path fill="#f1f2f2" d="M20.43 27.095c-0.534 0.291-1.169 0.461-1.845 0.461-0.049 0-0.097-0.001-0.145-0.003-0.041 0.003-0.098 0.005-0.154 0.005-0.736 0-1.407-0.277-1.915-0.733-0.468-0.475-0.758-1.131-0.758-1.855 0-0.052 0.001-0.103 0.004-0.154-0.002-0.024-0.002-0.061-0.002-0.098 0-0.777 0.317-1.48 0.829-1.987 0.538-0.503 1.262-0.813 2.059-0.813 0.051 0 0.102 0.001 0.152 0.004 0.018-0.001 0.047-0.001 0.076-0.001 0.517 0 1.013 0.088 1.475 0.249l-0.031 1.141c-0.418-0.231-0.916-0.367-1.446-0.367-0.034 0-0.067 0.001-0.101 0.002-0.014-0.001-0.035-0.001-0.057-0.001-0.463 0-0.882 0.19-1.182 0.496-0.3 0.362-0.481 0.832-0.481 1.343 0 0.484 0.162 0.929 0.435 1.286 0.273 0.279 0.659 0.456 1.086 0.456 0.026 0 0.052-0.001 0.078-0.002 0.018 0.001 0.044 0.002 0.070 0.002 0.226 0 0.442-0.046 0.637-0.13l-0.011-1.059h-1.089v-0.97h2.318z"></path>
</svg>
