<?xml version="1.0" encoding="utf-8"?>
<!-- Generated by IcoMoon.io -->
<!DOCTYPE svg PUBLIC "-//W3C//DTD SVG 1.1//EN" "http://www.w3.org/Graphics/SVG/1.1/DTD/svg11.dtd">
<svg version="1.1" xmlns="http://www.w3.org/2000/svg" xmlns:xlink="http://www.w3.org/1999/xlink" width="23" height="32" viewBox="0 0 23 32">
<path fill="#ed5858" d="M12.723 0v0h-11.808c-0.505 0-0.915 0.41-0.915 0.915v30.17c0 0.505 0.41 0.915 0.915 0.915h21.027c0.505 0 0.915-0.41 0.915-0.915v-20.946h-10.133z"></path>
<path fill="#f47878" d="M12.723 10.136h10.131l-10.131-10.131v10.131z"></path>
<path fill="#333" opacity="0.1" d="M22.857 20.27v-10.133h-10.133l10.133 10.133z"></path>
<path fill="#f1f2f2" d="M8.918 27.461h-3.266v-5.444h3.142v0.998h-1.916v1.211h1.781v0.995h-1.781v1.244h2.040z"></path>
<path fill="#f1f2f2" d="M14.066 27.461h-1.454l-0.946-1.776c-0.048-0.105-0.085-0.228-0.108-0.356l-0.017-0.009c-0.038 0.149-0.080 0.275-0.131 0.397l-0.934 1.739h-1.457l1.734-2.722-1.587-2.722h1.493l0.778 1.633c0.061 0.13 0.117 0.284 0.159 0.444l0.020 0.020q0.047-0.161 0.171-0.474l0.866-1.618h1.366l-1.633 2.699z"></path>
<path fill="#f1f2f2" d="M17.778 27.461h-3.261v-5.444h3.137v0.998h-1.916v1.211h1.781v0.995h-1.781v1.244h2.040z"></path>
</svg>
