<?xml version="1.0" encoding="utf-8"?>
<!-- Generated by IcoMoon.io -->
<!DOCTYPE svg PUBLIC "-//W3C//DTD SVG 1.1//EN" "http://www.w3.org/Graphics/SVG/1.1/DTD/svg11.dtd">
<svg version="1.1" xmlns="http://www.w3.org/2000/svg" xmlns:xlink="http://www.w3.org/1999/xlink" width="23" height="32" viewBox="0 0 23 32">
<path fill="#ed5858" d="M12.723 0v0h-11.808c-0.505 0-0.915 0.41-0.915 0.915v30.17c0 0.505 0.41 0.915 0.915 0.915h21.027c0.505 0 0.915-0.41 0.915-0.915v-20.946h-10.133z"></path>
<path fill="#f47878" d="M12.723 10.136h10.131l-10.131-10.131v10.131z"></path>
<path fill="#333" opacity="0.1" d="M22.857 20.27v-10.133h-10.133l10.133 10.133z"></path>
<path fill="#f1f2f2" d="M9.034 23.012h-1.921v1.338h1.765v0.995h-1.765v2.115h-1.226v-5.444h3.147z"></path>
<path fill="#f1f2f2" d="M12.962 27.461h-3.233v-5.444h1.226v4.451h2.006z"></path>
<path fill="#f1f2f2" d="M17.592 22.014l-1.877 5.444h-1.387l-1.854-5.444h1.322l1.135 3.79c0.051 0.157 0.091 0.34 0.11 0.53l0.024 0.012c0.024-0.209 0.065-0.398 0.123-0.579l1.122-3.753z"></path>
</svg>
