<?xml version="1.0" encoding="utf-8"?>
<!-- Generated by IcoMoon.io -->
<!DOCTYPE svg PUBLIC "-//W3C//DTD SVG 1.1//EN" "http://www.w3.org/Graphics/SVG/1.1/DTD/svg11.dtd">
<svg version="1.1" xmlns="http://www.w3.org/2000/svg" xmlns:xlink="http://www.w3.org/1999/xlink" width="23" height="32" viewBox="0 0 23 32">
<path fill="#ffc35a" d="M12.723 0v0h-11.808c-0.505 0-0.915 0.41-0.915 0.915v30.17c0 0.505 0.41 0.915 0.915 0.915h21.027c0.505 0 0.915-0.41 0.915-0.915v-20.946h-10.133z"></path>
<path fill="#ffce88" d="M12.723 10.136h10.131l-10.131-10.131v10.131z"></path>
<path fill="#333" opacity="0.1" d="M22.857 20.27v-10.131l-0.003-0.003h-10.131l10.133 10.134z"></path>
<path fill="#f1f2f2" d="M9.405 23.012h-1.921v1.338h1.765v0.995h-1.765v2.115h-1.229v-5.444h3.15z"></path>
<path fill="#f1f2f2" d="M17.224 22.014l-1.439 5.444h-1.361l-0.905-3.492c-0.048-0.181-0.080-0.391-0.088-0.606l-0.016-0.005c-0.018 0.227-0.053 0.435-0.104 0.637l-0.92 3.469h-1.415l-1.431-5.444h1.343l0.778 3.629c0.036 0.181 0.062 0.395 0.072 0.613l0.024 0.009c0.015-0.233 0.054-0.451 0.114-0.659l0.982-3.59h1.314l0.879 3.645c0.038 0.165 0.069 0.365 0.087 0.569l0.017 0.017c0.012-0.223 0.041-0.43 0.085-0.633l0.747-3.603z"></path>
</svg>
