<?xml version="1.0" encoding="utf-8"?>
<!-- Generated by IcoMoon.io -->
<!DOCTYPE svg PUBLIC "-//W3C//DTD SVG 1.1//EN" "http://www.w3.org/Graphics/SVG/1.1/DTD/svg11.dtd">
<svg version="1.1" xmlns="http://www.w3.org/2000/svg" xmlns:xlink="http://www.w3.org/1999/xlink" width="23" height="32" viewBox="0 0 23 32">
<path fill="#ed5858" d="M12.723 0v0h-11.808c-0.505 0-0.915 0.41-0.915 0.915v30.17c0 0.505 0.41 0.915 0.915 0.915h21.027c0.505 0 0.915-0.41 0.915-0.915v-20.946h-10.133z"></path>
<path fill="#f47878" d="M12.723 10.136h10.131l-10.131-10.131v10.131z"></path>
<path fill="#333" opacity="0.1" d="M22.857 20.27v-10.131l-0.003-0.003h-10.131l10.133 10.134z"></path>
<path fill="#f1f2f2" d="M10.805 27.095c-0.534 0.291-1.17 0.462-1.845 0.462-0.051 0-0.102-0.001-0.153-0.003-0.041 0.003-0.097 0.005-0.153 0.005-0.737 0-1.409-0.278-1.916-0.735-0.468-0.475-0.758-1.13-0.758-1.854 0-0.052 0.002-0.104 0.004-0.155-0.002-0.024-0.002-0.061-0.002-0.097 0-0.777 0.317-1.48 0.829-1.987 0.538-0.503 1.262-0.813 2.059-0.813 0.051 0 0.102 0.001 0.152 0.004 0.018-0.001 0.047-0.001 0.076-0.001 0.517 0 1.013 0.088 1.475 0.249l-0.031 1.141c-0.418-0.231-0.916-0.367-1.446-0.367-0.034 0-0.068 0.001-0.101 0.002-0.006-0-0.018-0-0.031-0-0.465 0-0.885 0.192-1.185 0.5-0.299 0.362-0.48 0.831-0.48 1.342 0 0.483 0.162 0.928 0.434 1.284 0.273 0.279 0.659 0.456 1.086 0.456 0.026 0 0.052-0.001 0.078-0.002 0.018 0.001 0.044 0.002 0.070 0.002 0.226 0 0.442-0.046 0.637-0.13l-0.011-1.059h-1.104v-0.97h2.318z"></path>
<path fill="#f1f2f2" d="M13.343 22.014v0.949h-0.454v3.546h0.456v0.949h-2.139v-0.949h0.459v-3.546h-0.459v-0.949z"></path>
<path fill="#f1f2f2" d="M17.073 23.012h-1.924v1.338h1.765v0.995h-1.765v2.115h-1.226v-5.444h3.15z"></path>
</svg>
