<?xml version="1.0" encoding="utf-8"?>
<!-- Generated by IcoMoon.io -->
<!DOCTYPE svg PUBLIC "-//W3C//DTD SVG 1.1//EN" "http://www.w3.org/Graphics/SVG/1.1/DTD/svg11.dtd">
<svg version="1.1" xmlns="http://www.w3.org/2000/svg" xmlns:xlink="http://www.w3.org/1999/xlink" width="23" height="32" viewBox="0 0 23 32">
<path fill="#ffc35a" d="M12.723 0v0h-11.808c-0.505 0-0.915 0.41-0.915 0.915v30.17c0 0.505 0.41 0.915 0.915 0.915h21.027c0.505 0 0.915-0.41 0.915-0.915v-20.946h-10.133z"></path>
<path fill="#ffce88" d="M12.723 10.136h10.131l-10.131-10.131v10.131z"></path>
<path fill="#333" opacity="0.1" d="M22.857 20.27v-10.133h-10.133l10.133 10.133z"></path>
<path fill="#f1f2f2" d="M4.887 27.282v-1.037c0.342 0.25 0.771 0.4 1.235 0.4 0.014 0 0.029-0 0.043-0 0.019 0.001 0.043 0.002 0.067 0.002 0.241 0 0.465-0.074 0.65-0.202 0.155-0.118 0.256-0.308 0.256-0.52 0-0.009-0-0.019-0.001-0.028 0-0.004 0-0.010 0-0.016 0-0.232-0.126-0.435-0.314-0.543-0.23-0.127-0.5-0.201-0.787-0.201-0.030 0-0.061 0.001-0.091 0.002l-0.501-0v-0.928h0.451q1.063 0 1.063-0.705 0-0.664-0.817-0.664c-0.4 0.006-0.768 0.137-1.068 0.356l0.005-0.986c0.371-0.182 0.808-0.289 1.27-0.289 0.024 0 0.048 0 0.072 0.001 0.032-0.002 0.073-0.004 0.115-0.004 0.442 0 0.851 0.142 1.183 0.383 0.278 0.217 0.459 0.559 0.459 0.943 0 0.011-0 0.021-0 0.032q0 1.066-1.081 1.336v0.013c0.358 0.030 0.675 0.185 0.913 0.42 0.207 0.213 0.335 0.503 0.335 0.824 0 0.010-0 0.020-0 0.030 0.001 0.016 0.001 0.037 0.001 0.057 0 0.465-0.217 0.879-0.555 1.147-0.392 0.282-0.878 0.45-1.403 0.45-0.050 0-0.1-0.002-0.149-0.005-0.027 0.002-0.066 0.002-0.106 0.002-0.451 0-0.878-0.1-1.261-0.279z"></path>
<path fill="#f1f2f2" d="M13.69 27.095c-0.534 0.291-1.169 0.461-1.845 0.461-0.049 0-0.097-0.001-0.145-0.003-0.041 0.003-0.098 0.005-0.154 0.005-0.736 0-1.407-0.277-1.915-0.733-0.468-0.475-0.758-1.131-0.758-1.855 0-0.052 0.001-0.103 0.004-0.154-0.002-0.024-0.002-0.061-0.002-0.098 0-0.777 0.317-1.48 0.829-1.987 0.538-0.503 1.262-0.813 2.059-0.813 0.051 0 0.102 0.001 0.152 0.004 0.018-0.001 0.047-0.001 0.076-0.001 0.517 0 1.013 0.088 1.475 0.249l-0.031 1.141c-0.418-0.231-0.916-0.367-1.446-0.367-0.034 0-0.068 0.001-0.101 0.002-0.014-0.001-0.036-0.001-0.058-0.001-0.463 0-0.881 0.19-1.181 0.496-0.3 0.362-0.481 0.832-0.481 1.343 0 0.484 0.162 0.929 0.435 1.286 0.273 0.279 0.659 0.456 1.086 0.456 0.026 0 0.052-0.001 0.078-0.002 0.018 0.001 0.044 0.002 0.070 0.002 0.226 0 0.442-0.046 0.637-0.13l-0.011-1.059h-1.089v-0.97h2.318z"></path>
<path fill="#f1f2f2" d="M15.774 25.584v1.877h-1.226v-5.444h1.921q2.058 0 2.058 1.734c0.001 0.016 0.001 0.035 0.001 0.055 0 0.509-0.229 0.965-0.59 1.271-0.4 0.326-0.913 0.523-1.472 0.523-0.038 0-0.077-0.001-0.114-0.003zM15.774 22.955v1.698h0.482q0.98 0 0.98-0.858t-0.98-0.84z"></path>
</svg>
