<?xml version="1.0" encoding="utf-8"?>
<!-- Generated by IcoMoon.io -->
<!DOCTYPE svg PUBLIC "-//W3C//DTD SVG 1.1//EN" "http://www.w3.org/Graphics/SVG/1.1/DTD/svg11.dtd">
<svg version="1.1" xmlns="http://www.w3.org/2000/svg" xmlns:xlink="http://www.w3.org/1999/xlink" width="23" height="32" viewBox="0 0 23 32">
<path fill="#c5d873" d="M12.723 0v0h-11.808c-0.505 0-0.915 0.41-0.915 0.915v30.17c0 0.505 0.41 0.915 0.915 0.915h21.027c0.505 0 0.915-0.41 0.915-0.915v-20.946h-10.133z"></path>
<path fill="#d4e089" d="M12.723 10.136h10.131l-10.131-10.131v10.131z"></path>
<path fill="#333" opacity="0.1" d="M22.857 20.27v-10.133h-10.133l10.133 10.133z"></path>
<path fill="#f1f2f2" d="M6.154 27.461h-1.229v-2.219h-2.255v2.216h-1.229v-5.444h1.229v2.172h2.255v-2.172h1.231z"></path>
<path fill="#f1f2f2" d="M11.023 23.012h-1.555v4.446h-1.229v-4.446h-1.555v-0.998h4.329z"></path>
<path fill="#f1f2f2" d="M17.758 27.461h-1.211v-3.259q0-0.518 0.047-1.167h-0.031c-0.048 0.283-0.108 0.525-0.182 0.761l-1.264 3.661h-1.003l-1.296-3.666c-0.060-0.2-0.12-0.456-0.165-0.717l-0.040-0.042q0.049 0.806 0.049 1.413v3.012h-1.107v-5.444h1.796l1.112 3.227c0.079 0.22 0.147 0.482 0.191 0.752l0.027 0.026c0.072-0.318 0.147-0.578 0.234-0.833l1.096-3.165h1.747z"></path>
<path fill="#f1f2f2" d="M22.035 27.461h-3.24v-5.444h1.226v4.451h2.014z"></path>
</svg>
