<?xml version="1.0" encoding="utf-8"?>
<!-- Generated by IcoMoon.io -->
<!DOCTYPE svg PUBLIC "-//W3C//DTD SVG 1.1//EN" "http://www.w3.org/Graphics/SVG/1.1/DTD/svg11.dtd">
<svg version="1.1" xmlns="http://www.w3.org/2000/svg" xmlns:xlink="http://www.w3.org/1999/xlink" width="23" height="32" viewBox="0 0 23 32">
<path fill="#998c7a" d="M12.723 0v0h-11.808c-0.505 0-0.915 0.41-0.915 0.915v30.17c0 0.505 0.41 0.915 0.915 0.915h21.027c0.505 0 0.915-0.41 0.915-0.915v-20.946h-10.133z"></path>
<path fill="#a3978d" d="M12.723 10.136h10.131l-10.131-10.131v10.131z"></path>
<path fill="#333" opacity="0.1" d="M22.857 20.27v-10.131l-0.003-0.003h-10.131l10.133 10.134z"></path>
<path fill="#f1f2f2" d="M7.479 22.014v0.949h-0.454v3.546h0.456v0.949h-2.139v-0.949h0.456v-3.546h-0.456v-0.949z"></path>
<path fill="#f1f2f2" d="M11.964 27.266c-0.417 0.184-0.903 0.291-1.415 0.291-0.049 0-0.099-0.001-0.148-0.003-0.036 0.003-0.086 0.004-0.137 0.004-0.71 0-1.355-0.282-1.827-0.741-0.446-0.479-0.72-1.124-0.72-1.834 0-0.045 0.001-0.090 0.003-0.134-0.002-0.029-0.003-0.070-0.003-0.112 0-0.777 0.308-1.483 0.809-2.001 0.509-0.504 1.211-0.816 1.985-0.816 0.041 0 0.082 0.001 0.122 0.003 0.024-0.001 0.059-0.001 0.094-0.001 0.446 0 0.874 0.075 1.274 0.212l-0.028 1.171c-0.345-0.206-0.761-0.327-1.205-0.327-0.014 0-0.028 0-0.042 0-0.019-0.001-0.044-0.002-0.069-0.002-0.456 0-0.869 0.185-1.168 0.484-0.294 0.318-0.474 0.744-0.474 1.213 0 0.029 0.001 0.059 0.002 0.088-0.002 0.023-0.003 0.055-0.003 0.087 0 0.45 0.169 0.86 0.447 1.17 0.284 0.289 0.681 0.469 1.12 0.469 0.026 0 0.052-0.001 0.077-0.002 0.004 0 0.012 0 0.021 0 0.475 0 0.92-0.13 1.302-0.357z"></path>
<path fill="#f1f2f2" d="M14.909 27.554c-0.027 0.001-0.059 0.002-0.092 0.002-0.711 0-1.353-0.292-1.813-0.763-0.458-0.488-0.739-1.146-0.739-1.87 0-0.040 0.001-0.080 0.003-0.119-0.002-0.033-0.003-0.078-0.003-0.124 0-0.755 0.285-1.443 0.754-1.962 0.471-0.491 1.135-0.798 1.871-0.798 0.039 0 0.077 0.001 0.115 0.003 0.024-0.001 0.058-0.002 0.093-0.002 0.702 0 1.336 0.293 1.786 0.763 0.45 0.498 0.724 1.159 0.724 1.885 0 0.045-0.001 0.089-0.003 0.134 0.002 0.034 0.003 0.081 0.003 0.128 0 0.748-0.285 1.429-0.752 1.941-0.465 0.483-1.12 0.785-1.846 0.785-0.036 0-0.071-0.001-0.107-0.002zM14.963 22.979c-0.017-0.001-0.036-0.001-0.056-0.001-0.399 0-0.754 0.189-0.979 0.483-0.24 0.33-0.383 0.74-0.383 1.183 0 0.035 0.001 0.070 0.003 0.105-0.002 0.029-0.003 0.068-0.003 0.107 0 0.44 0.143 0.846 0.385 1.174 0.238 0.283 0.599 0.465 1.002 0.465 0.397 0 0.753-0.177 0.994-0.455 0.237-0.321 0.378-0.723 0.378-1.157 0-0.040-0.001-0.081-0.004-0.12 0.003-0.033 0.004-0.077 0.004-0.122 0-0.444-0.136-0.856-0.369-1.196-0.212-0.281-0.554-0.465-0.938-0.465-0.012 0-0.024 0-0.036 0.001z"></path>
</svg>
