<?xml version="1.0" encoding="utf-8"?>
<!-- Generated by IcoMoon.io -->
<!DOCTYPE svg PUBLIC "-//W3C//DTD SVG 1.1//EN" "http://www.w3.org/Graphics/SVG/1.1/DTD/svg11.dtd">
<svg version="1.1" xmlns="http://www.w3.org/2000/svg" xmlns:xlink="http://www.w3.org/1999/xlink" width="23" height="32" viewBox="0 0 23 32">
<path fill="#c5d873" d="M12.723 0v0h-11.808c-0.505 0-0.915 0.41-0.915 0.915v30.17c0 0.505 0.41 0.915 0.915 0.915h21.027c0.505 0 0.915-0.41 0.915-0.915v-20.946h-10.133z"></path>
<path fill="#d4e089" d="M12.723 10.136h10.131l-10.131-10.131v10.131z"></path>
<path fill="#333" opacity="0.1" d="M22.857 20.27v-10.131l-0.003-0.003h-10.131l10.133 10.134z"></path>
<path fill="#f1f2f2" d="M7.676 22.014v0.949h-0.456v3.546h0.456v0.949h-2.139v-0.949h0.456v-3.546h-0.456v-0.949z"></path>
<path fill="#f1f2f2" d="M8.005 27.251v-1.216c0.204 0.173 0.442 0.314 0.702 0.41 0.247 0.092 0.514 0.144 0.793 0.145 0.009 0 0.018 0 0.028 0 0.134 0 0.264-0.015 0.389-0.044 0.097-0.023 0.193-0.063 0.28-0.117 0.067-0.042 0.126-0.1 0.168-0.169 0.037-0.064 0.058-0.139 0.058-0.218 0-0.001 0-0.001 0-0.002 0-0.002 0-0.004 0-0.007 0-0.105-0.034-0.201-0.092-0.28-0.071-0.090-0.157-0.167-0.254-0.227-0.111-0.074-0.233-0.142-0.361-0.201q-0.234-0.105-0.483-0.209c-0.373-0.144-0.687-0.367-0.936-0.648-0.198-0.243-0.316-0.554-0.316-0.892 0-0.013 0-0.026 0-0.038-0-0.010-0.001-0.023-0.001-0.037 0-0.252 0.064-0.49 0.175-0.698 0.11-0.203 0.268-0.377 0.458-0.507 0.2-0.133 0.428-0.233 0.673-0.291 0.239-0.054 0.498-0.084 0.764-0.084 0.021 0 0.042 0 0.062 0.001 0.010-0 0.025-0 0.040-0 0.251 0 0.498 0.019 0.739 0.055 0.201 0.031 0.405 0.087 0.6 0.162l-0.020 1.129c-0.086-0.060-0.184-0.115-0.286-0.161s-0.213-0.087-0.327-0.12c-0.111-0.032-0.226-0.056-0.343-0.073-0.11-0.016-0.221-0.024-0.334-0.025-0.006-0-0.012-0-0.019-0-0.128 0-0.252 0.014-0.372 0.041-0.097 0.022-0.194 0.060-0.281 0.112-0.069 0.042-0.13 0.1-0.176 0.169-0.042 0.065-0.066 0.141-0.066 0.223 0 0.002 0 0.003 0 0.005s-0 0.004-0 0.006c0 0.089 0.027 0.173 0.074 0.242 0.056 0.079 0.124 0.147 0.201 0.201 0.095 0.068 0.2 0.131 0.311 0.185q0.202 0.099 0.443 0.198c0.233 0.095 0.427 0.191 0.614 0.3 0.147 0.087 0.294 0.203 0.423 0.335 0.12 0.124 0.217 0.272 0.282 0.435 0.066 0.182 0.102 0.382 0.102 0.591 0 0.278-0.064 0.541-0.178 0.774-0.111 0.195-0.269 0.363-0.459 0.487-0.202 0.132-0.432 0.23-0.679 0.283-0.256 0.055-0.535 0.085-0.822 0.085-0.007 0-0.015-0-0.022-0-0.006 0-0.014 0-0.022 0-0.293 0-0.58-0.027-0.859-0.080-0.234-0.045-0.469-0.126-0.686-0.238z"></path>
<path fill="#f1f2f2" d="M14.714 27.554c-0.028 0.001-0.060 0.002-0.093 0.002-0.71 0-1.352-0.292-1.812-0.763-0.458-0.488-0.739-1.146-0.739-1.869 0-0.040 0.001-0.081 0.003-0.12-0.002-0.034-0.003-0.080-0.003-0.127 0-0.753 0.284-1.441 0.752-1.96 0.47-0.491 1.135-0.798 1.871-0.798 0.039 0 0.077 0.001 0.115 0.003 0.023-0.001 0.056-0.002 0.089-0.002 0.704 0 1.339 0.294 1.789 0.766 0.45 0.498 0.724 1.159 0.724 1.885 0 0.045-0.001 0.089-0.003 0.134 0.002 0.034 0.003 0.082 0.003 0.129 0 0.748-0.285 1.429-0.752 1.941-0.465 0.482-1.119 0.783-1.843 0.783-0.036 0-0.071-0.001-0.107-0.002zM14.776 22.979c-0.017-0.001-0.036-0.001-0.056-0.001-0.399 0-0.754 0.189-0.979 0.483-0.24 0.33-0.383 0.74-0.383 1.183 0 0.035 0.001 0.071 0.003 0.106-0.002 0.029-0.003 0.068-0.003 0.107 0 0.44 0.143 0.846 0.385 1.174 0.238 0.283 0.599 0.465 1.002 0.465 0.397 0 0.753-0.177 0.994-0.455 0.237-0.321 0.378-0.723 0.378-1.157 0-0.040-0.001-0.081-0.004-0.12 0.003-0.033 0.004-0.077 0.004-0.122 0-0.444-0.136-0.856-0.369-1.197-0.212-0.281-0.554-0.465-0.938-0.465-0.012 0-0.024 0-0.036 0.001z"></path>
</svg>
