<?xml version="1.0" encoding="utf-8"?>
<!-- Generated by IcoMoon.io -->
<!DOCTYPE svg PUBLIC "-//W3C//DTD SVG 1.1//EN" "http://www.w3.org/Graphics/SVG/1.1/DTD/svg11.dtd">
<svg version="1.1" xmlns="http://www.w3.org/2000/svg" xmlns:xlink="http://www.w3.org/1999/xlink" width="23" height="32" viewBox="0 0 23 32">
<path fill="#f7984b" d="M12.723 0v0h-11.808c-0.505 0-0.915 0.41-0.915 0.915v30.17c0 0.505 0.41 0.915 0.915 0.915h21.027c0.505 0 0.915-0.41 0.915-0.915v-20.946h-10.133z"></path>
<path fill="#fcab75" d="M12.723 10.136h10.131l-10.131-10.131v10.131z"></path>
<path fill="#333" opacity="0.1" d="M22.857 20.27v-10.133h-10.133l10.133 10.133z"></path>
<path fill="#f1f2f2" d="M7.533 25.299q0 1.094-0.518 1.675c-0.337 0.36-0.816 0.585-1.347 0.585-0.042 0-0.085-0.001-0.126-0.004-0.001 0-0.008 0-0.016 0-0.278 0-0.543-0.054-0.786-0.153l0.014-1.146c0.19 0.149 0.433 0.239 0.697 0.239 0.003 0 0.006 0 0.008-0q0.84 0 0.84-1.244v-3.235h1.224z"></path>
<path fill="#f1f2f2" d="M13.172 27.461h-1.338l-0.386-1.211h-1.937l-0.384 1.211h-1.33l1.983-5.444h1.454zM11.168 25.309l-0.586-1.83c-0.044-0.143-0.076-0.31-0.090-0.481l-0.032-0.009c-0.013 0.173-0.045 0.334-0.095 0.486l-0.592 1.831z"></path>
<path fill="#f1f2f2" d="M18.216 27.461h-1.408l-0.848-1.4q-0.096-0.161-0.181-0.285c-0.055-0.080-0.113-0.151-0.177-0.215-0.053-0.054-0.114-0.1-0.182-0.135-0.064-0.031-0.135-0.049-0.209-0.049-0.002 0-0.003 0-0.005 0h-0.332v2.074h-1.226v-5.444h1.944q1.983 0 1.983 1.48c0 0.002 0 0.004 0 0.006 0 0.184-0.032 0.36-0.092 0.523-0.061 0.157-0.149 0.301-0.257 0.427-0.105 0.135-0.23 0.251-0.371 0.345-0.15 0.094-0.317 0.169-0.495 0.221l-0.014 0.019c0.093 0.027 0.174 0.068 0.246 0.121 0.079 0.061 0.151 0.126 0.217 0.197 0.070 0.076 0.136 0.156 0.198 0.24 0.070 0.096 0.13 0.181 0.182 0.267zM14.875 22.932v1.517h0.531c0.013 0.001 0.027 0.001 0.042 0.001 0.229 0 0.437-0.087 0.594-0.23 0.149-0.139 0.243-0.338 0.243-0.558 0-0.005-0-0.010-0-0.015q0-0.712-0.855-0.712z"></path>
</svg>
