<?xml version="1.0" encoding="utf-8"?>
<!-- Generated by IcoMoon.io -->
<!DOCTYPE svg PUBLIC "-//W3C//DTD SVG 1.1//EN" "http://www.w3.org/Graphics/SVG/1.1/DTD/svg11.dtd">
<svg version="1.1" xmlns="http://www.w3.org/2000/svg" xmlns:xlink="http://www.w3.org/1999/xlink" width="23" height="32" viewBox="0 0 23 32">
<path fill="#38c1ba" d="M12.723 0v0h-11.808c-0.505 0-0.915 0.41-0.915 0.915v30.17c0 0.505 0.41 0.915 0.915 0.915h21.027c0.505 0 0.915-0.41 0.915-0.915v-20.946h-10.133z"></path>
<path fill="#52ccc3" d="M12.723 10.136h10.131l-10.131-10.131v10.131z"></path>
<path fill="#333" opacity="0.1" d="M22.857 20.27v-10.133h-10.133l10.133 10.133z"></path>
<path fill="#f1f2f2" d="M7.759 25.299q0 1.094-0.518 1.675c-0.337 0.36-0.816 0.585-1.347 0.585-0.042 0-0.085-0.001-0.126-0.004-0.001 0-0.008 0-0.016 0-0.278 0-0.543-0.054-0.786-0.153l0.014-1.146c0.191 0.149 0.434 0.239 0.698 0.239 0.003 0 0.005 0 0.007-0q0.84 0 0.84-1.244v-3.235h1.224z"></path>
<path fill="#f1f2f2" d="M9.975 25.584v1.877h-1.226v-5.444h1.921q2.058 0 2.058 1.734c0.001 0.016 0.001 0.035 0.001 0.053 0 0.51-0.229 0.966-0.589 1.272-0.4 0.326-0.913 0.523-1.472 0.523-0.038 0-0.077-0.001-0.114-0.003zM9.975 22.955v1.698h0.482q0.98 0 0.98-0.858t-0.98-0.84z"></path>
<path fill="#f1f2f2" d="M17.755 27.095c-0.534 0.291-1.169 0.461-1.845 0.461-0.049 0-0.097-0.001-0.145-0.003-0.041 0.003-0.098 0.005-0.155 0.005-0.736 0-1.407-0.277-1.914-0.733-0.468-0.475-0.758-1.13-0.758-1.854 0-0.052 0.002-0.104 0.004-0.155-0.002-0.024-0.002-0.061-0.002-0.097 0-0.777 0.317-1.48 0.829-1.987 0.538-0.503 1.262-0.813 2.059-0.813 0.051 0 0.102 0.001 0.152 0.004 0.018-0.001 0.047-0.001 0.076-0.001 0.517 0 1.013 0.088 1.475 0.249l-0.031 1.141c-0.418-0.231-0.916-0.367-1.446-0.367-0.034 0-0.068 0.001-0.101 0.002-0.014-0.001-0.035-0.001-0.057-0.001-0.463 0-0.882 0.19-1.182 0.496-0.299 0.362-0.48 0.831-0.48 1.342 0 0.483 0.162 0.928 0.434 1.284 0.273 0.279 0.659 0.456 1.086 0.456 0.026 0 0.052-0.001 0.078-0.002 0.018 0.001 0.044 0.002 0.070 0.002 0.226 0 0.442-0.046 0.637-0.13l-0.011-1.059h-1.089v-0.967h2.318z"></path>
</svg>
