<?xml version="1.0" encoding="utf-8"?>
<!-- Generated by IcoMoon.io -->
<!DOCTYPE svg PUBLIC "-//W3C//DTD SVG 1.1//EN" "http://www.w3.org/Graphics/SVG/1.1/DTD/svg11.dtd">
<svg version="1.1" xmlns="http://www.w3.org/2000/svg" xmlns:xlink="http://www.w3.org/1999/xlink" width="23" height="32" viewBox="0 0 23 32">
<path fill="#37c49c" d="M12.723 0v0h-11.808c-0.505 0-0.915 0.41-0.915 0.915v30.17c0 0.505 0.41 0.915 0.915 0.915h21.027c0.505 0 0.915-0.41 0.915-0.915v-20.946h-10.133z"></path>
<path fill="#4ecea6" d="M12.723 10.136h10.131l-10.131-10.131v10.131z"></path>
<path fill="#333" opacity="0.1" d="M22.857 20.27v-10.131l-0.003-0.003h-10.131l10.133 10.134z"></path>
<path fill="#f1f2f2" d="M10.613 25.299q0 1.094-0.518 1.675c-0.337 0.36-0.816 0.585-1.347 0.585-0.042 0-0.085-0.001-0.126-0.004-0.001 0-0.008 0-0.016 0-0.278 0-0.543-0.054-0.786-0.153l0.014-1.146c0.19 0.149 0.433 0.239 0.697 0.239 0.003 0 0.006 0 0.008-0q0.839 0 0.839-1.244v-3.235h1.224z"></path>
<path fill="#f1f2f2" d="M11.352 27.251v-1.216c0.204 0.173 0.442 0.314 0.702 0.41 0.247 0.092 0.514 0.144 0.793 0.145 0.009 0 0.018 0 0.027 0 0.134 0 0.264-0.015 0.389-0.044 0.097-0.023 0.193-0.063 0.28-0.117 0.067-0.042 0.126-0.1 0.168-0.169 0.037-0.064 0.058-0.139 0.058-0.218 0-0.001 0-0.001 0-0.002 0-0.002 0-0.004 0-0.007 0-0.105-0.034-0.201-0.092-0.28-0.071-0.090-0.157-0.167-0.254-0.227-0.111-0.074-0.233-0.142-0.361-0.201q-0.234-0.105-0.483-0.209c-0.378-0.143-0.697-0.365-0.949-0.648-0.198-0.243-0.316-0.554-0.316-0.892 0-0.012 0-0.025 0-0.037-0-0.003-0-0.008-0-0.013 0-0.262 0.068-0.508 0.188-0.721 0.11-0.204 0.268-0.378 0.458-0.508 0.2-0.133 0.428-0.233 0.673-0.291 0.24-0.054 0.499-0.084 0.766-0.084 0.028 0 0.057 0 0.085 0.001 0.008-0 0.023-0 0.038-0 0.251 0 0.498 0.019 0.739 0.055 0.201 0.031 0.405 0.086 0.6 0.162l-0.020 1.129c-0.093-0.062-0.2-0.118-0.312-0.164-0.103-0.046-0.214-0.087-0.327-0.12-0.111-0.032-0.225-0.056-0.343-0.073-0.11-0.016-0.221-0.024-0.334-0.025-0.006-0-0.012-0-0.019-0-0.128 0-0.252 0.014-0.372 0.041-0.097 0.022-0.194 0.060-0.281 0.112-0.069 0.042-0.13 0.1-0.176 0.169-0.042 0.065-0.066 0.141-0.066 0.223 0 0.002 0 0.003 0 0.005s-0 0.004-0 0.006c0 0.089 0.027 0.173 0.074 0.242 0.056 0.079 0.124 0.147 0.201 0.201 0.095 0.068 0.2 0.131 0.311 0.185q0.202 0.099 0.443 0.198c0.231 0.096 0.424 0.193 0.608 0.303 0.148 0.087 0.294 0.203 0.423 0.335 0.12 0.124 0.217 0.272 0.282 0.435 0.066 0.182 0.102 0.382 0.102 0.591 0 0.278-0.064 0.541-0.178 0.774-0.11 0.195-0.269 0.363-0.459 0.487-0.198 0.131-0.424 0.229-0.666 0.283-0.257 0.055-0.536 0.086-0.822 0.086-0.007 0-0.015-0-0.022-0-0.006 0-0.014 0-0.022 0-0.293 0-0.58-0.027-0.859-0.080-0.236-0.044-0.473-0.126-0.691-0.238z"></path>
</svg>
