<?xml version="1.0" encoding="utf-8"?>
<!-- Generated by IcoMoon.io -->
<!DOCTYPE svg PUBLIC "-//W3C//DTD SVG 1.1//EN" "http://www.w3.org/Graphics/SVG/1.1/DTD/svg11.dtd">
<svg version="1.1" xmlns="http://www.w3.org/2000/svg" xmlns:xlink="http://www.w3.org/1999/xlink" width="23" height="32" viewBox="0 0 23 32">
<path fill="#48b8f7" d="M12.723 0v0h-11.808c-0.505 0-0.915 0.41-0.915 0.915v30.17c0 0.505 0.41 0.915 0.915 0.915h21.027c0.505 0 0.915-0.41 0.915-0.915v-20.946h-10.133z"></path>
<path fill="#6bd0fc" d="M12.723 10.136h10.131l-10.131-10.131v10.131z"></path>
<path fill="#333" opacity="0.1" d="M22.857 20.27v-10.133h-10.133l10.133 10.133z"></path>
<path fill="#f1f2f2" d="M9.211 27.461h-1.213v-3.259q0-0.518 0.047-1.167h-0.031c-0.048 0.283-0.108 0.525-0.182 0.761l-1.264 3.661h-1.003l-1.296-3.666c-0.060-0.2-0.12-0.456-0.165-0.717l-0.040-0.042q0.049 0.806 0.049 1.413v3.012h-1.107v-5.444h1.796l1.112 3.227c0.079 0.22 0.147 0.482 0.191 0.752l0.027 0.026c0.072-0.318 0.147-0.578 0.234-0.833l1.096-3.165h1.75z"></path>
<path fill="#f1f2f2" d="M12.547 27.554c-0.032 0.001-0.069 0.002-0.107 0.002-0.71 0-1.351-0.292-1.811-0.761-0.452-0.487-0.729-1.141-0.729-1.859 0-0.045 0.001-0.089 0.003-0.133-0.002-0.033-0.003-0.080-0.003-0.126 0-0.753 0.284-1.441 0.752-1.96 0.47-0.491 1.135-0.798 1.871-0.798 0.039 0 0.077 0.001 0.115 0.003 0.023-0.001 0.056-0.002 0.089-0.002 0.704 0 1.339 0.294 1.789 0.766 0.45 0.498 0.724 1.159 0.724 1.885 0 0.045-0.001 0.089-0.003 0.134 0.002 0.034 0.003 0.081 0.003 0.128 0 0.748-0.285 1.429-0.752 1.941-0.464 0.482-1.118 0.783-1.842 0.783-0.035 0-0.070-0.001-0.105-0.002zM12.601 22.979c-0.016-0.001-0.035-0.001-0.054-0.001-0.399 0-0.754 0.189-0.981 0.483-0.24 0.33-0.383 0.74-0.383 1.183 0 0.035 0.001 0.070 0.003 0.105-0.002 0.028-0.003 0.067-0.003 0.106 0 0.44 0.143 0.846 0.385 1.175 0.238 0.284 0.599 0.466 1.002 0.466 0.398 0 0.754-0.177 0.994-0.457 0.237-0.321 0.378-0.723 0.378-1.157 0-0.040-0.001-0.081-0.004-0.12 0.003-0.033 0.004-0.077 0.004-0.122 0-0.444-0.136-0.856-0.369-1.196-0.212-0.281-0.554-0.465-0.938-0.465-0.013 0-0.026 0-0.039 0.001z"></path>
<path fill="#f1f2f2" d="M20.48 22.014l-1.877 5.444h-1.395l-1.854-5.444h1.322l1.135 3.79c0.051 0.157 0.091 0.34 0.11 0.53l0.024 0.012c0.024-0.209 0.065-0.398 0.123-0.579l1.114-3.753z"></path>
</svg>
