<?xml version="1.0" encoding="utf-8"?>
<!-- Generated by IcoMoon.io -->
<!DOCTYPE svg PUBLIC "-//W3C//DTD SVG 1.1//EN" "http://www.w3.org/Graphics/SVG/1.1/DTD/svg11.dtd">
<svg version="1.1" xmlns="http://www.w3.org/2000/svg" xmlns:xlink="http://www.w3.org/1999/xlink" width="23" height="32" viewBox="0 0 23 32">
<path fill="#c5d873" d="M12.723 0v0h-11.808c-0.505 0-0.915 0.41-0.915 0.915v30.17c0 0.505 0.41 0.915 0.915 0.915h21.027c0.505 0 0.915-0.41 0.915-0.915v-20.946h-10.133z"></path>
<path fill="#d4e089" d="M12.723 10.136h10.131l-10.131-10.131v10.131z"></path>
<path fill="#333" opacity="0.1" d="M22.857 20.27v-10.131l-0.003-0.003h-10.131l10.133 10.134z"></path>
<path fill="#f1f2f2" d="M10.211 27.461h-1.211v-3.259q0-0.518 0.047-1.167h-0.031c-0.049 0.283-0.108 0.525-0.182 0.761l-1.264 3.664h-1.003l-1.296-3.663c-0.060-0.2-0.12-0.456-0.165-0.717l-0.040-0.042q0.049 0.806 0.049 1.413v3.012h-1.107v-5.444h1.796l1.112 3.227c0.079 0.22 0.147 0.482 0.191 0.752l0.027 0.026c0.072-0.318 0.147-0.579 0.234-0.833l1.096-3.165h1.75z"></path>
<path fill="#f1f2f2" d="M12.474 25.584v1.877h-1.226v-5.444h1.921q2.058 0 2.058 1.737c0.001 0.016 0.001 0.035 0.001 0.055 0 0.509-0.229 0.965-0.589 1.271-0.4 0.326-0.913 0.523-1.472 0.523-0.038 0-0.077-0.001-0.114-0.003zM12.474 22.955v1.698h0.487q0.98 0 0.98-0.858t-0.98-0.84z"></path>
<path fill="#f1f2f2" d="M15.759 27.282v-1.037c0.342 0.25 0.771 0.4 1.235 0.4 0.014 0 0.029-0 0.043-0 0.019 0.001 0.043 0.002 0.067 0.002 0.241 0 0.465-0.074 0.65-0.202 0.155-0.118 0.256-0.308 0.256-0.52 0-0.009-0-0.019-0.001-0.028 0-0.004 0-0.011 0-0.018 0-0.232-0.126-0.434-0.314-0.542-0.229-0.127-0.5-0.201-0.787-0.201-0.031 0-0.061 0.001-0.091 0.003l-0.486-0v-0.928h0.451q1.063 0 1.063-0.705 0-0.664-0.817-0.664c-0.4 0.006-0.768 0.137-1.068 0.356l0.005-0.986c0.371-0.182 0.808-0.289 1.27-0.289 0.024 0 0.048 0 0.072 0.001 0.032-0.002 0.073-0.004 0.115-0.004 0.442 0 0.851 0.142 1.183 0.383 0.278 0.217 0.459 0.558 0.459 0.942 0 0.010-0 0.020-0 0.031q0 1.067-1.084 1.336v0.016c0.358 0.030 0.675 0.185 0.913 0.42 0.207 0.213 0.335 0.503 0.335 0.824 0 0.010-0 0.020-0 0.030 0.001 0.016 0.001 0.036 0.001 0.056 0 0.467-0.219 0.883-0.56 1.151-0.392 0.282-0.878 0.45-1.403 0.45-0.050 0-0.1-0.002-0.149-0.005-0.027 0.002-0.067 0.003-0.108 0.003-0.453 0-0.883-0.101-1.268-0.282z"></path>
</svg>
