<?xml version="1.0" encoding="utf-8"?>
<!-- Generated by IcoMoon.io -->
<!DOCTYPE svg PUBLIC "-//W3C//DTD SVG 1.1//EN" "http://www.w3.org/Graphics/SVG/1.1/DTD/svg11.dtd">
<svg version="1.1" xmlns="http://www.w3.org/2000/svg" xmlns:xlink="http://www.w3.org/1999/xlink" width="23" height="32" viewBox="0 0 23 32">
<path fill="#ffc35a" d="M12.723 0v0h-11.808c-0.505 0-0.915 0.41-0.915 0.915v30.17c0 0.505 0.41 0.915 0.915 0.915h21.027c0.505 0 0.915-0.41 0.915-0.915v-20.946h-10.133z"></path>
<path fill="#ffce88" d="M12.723 10.136h10.131l-10.131-10.131v10.131z"></path>
<path fill="#333" opacity="0.1" d="M22.857 20.27v-10.133h-10.133l10.133 10.133z"></path>
<path fill="#f1f2f2" d="M10.211 27.458h-1.211v-3.256q0-0.518 0.047-1.167h-0.031c-0.048 0.283-0.108 0.525-0.182 0.761l-1.264 3.661h-1.003l-1.296-3.663c-0.060-0.2-0.12-0.456-0.165-0.717l-0.040-0.043q0.049 0.806 0.049 1.413v3.012h-1.107v-5.444h1.796l1.112 3.227c0.079 0.22 0.147 0.482 0.191 0.752l0.027 0.026c0.071-0.318 0.145-0.578 0.232-0.833l1.096-3.165h1.75z"></path>
<path fill="#f1f2f2" d="M12.474 25.584v1.877h-1.226v-5.444h1.921q2.058 0 2.058 1.737c0.001 0.016 0.001 0.035 0.001 0.055 0 0.509-0.229 0.965-0.589 1.271-0.4 0.326-0.913 0.523-1.472 0.523-0.038 0-0.077-0.001-0.114-0.003zM12.474 22.955v1.698h0.487q0.98 0 0.98-0.858t-0.98-0.84z"></path>
<path fill="#f1f2f2" d="M19.469 26.302h-0.653v1.159h-1.094v-1.159h-2.372v-0.765l2.279-3.523h1.182v3.432h0.658zM17.737 23.215h-0.023c-0.073 0.174-0.142 0.314-0.217 0.449l-1.154 1.791h1.379v-1.721q0-0.226 0.016-0.518z"></path>
</svg>
