<?xml version="1.0" encoding="utf-8"?>
<!-- Generated by IcoMoon.io -->
<!DOCTYPE svg PUBLIC "-//W3C//DTD SVG 1.1//EN" "http://www.w3.org/Graphics/SVG/1.1/DTD/svg11.dtd">
<svg version="1.1" xmlns="http://www.w3.org/2000/svg" xmlns:xlink="http://www.w3.org/1999/xlink" width="23" height="32" viewBox="0 0 23 32">
<path fill="#48b8f7" d="M12.723 0v0h-11.808c-0.505 0-0.915 0.41-0.915 0.915v30.17c0 0.505 0.41 0.915 0.915 0.915h21.027c0.505 0 0.915-0.41 0.915-0.915v-20.946h-10.133z"></path>
<path fill="#6bd0fc" d="M12.723 10.136h10.131l-10.131-10.131v10.131z"></path>
<path fill="#333" opacity="0.1" d="M22.857 20.27v-10.133h-10.133l10.133 10.133z"></path>
<path fill="#f1f2f2" d="M7.717 27.458h-1.213v-3.256q0-0.518 0.047-1.167h-0.031c-0.048 0.283-0.108 0.525-0.182 0.761l-1.264 3.661h-1.003l-1.296-3.663c-0.063-0.199-0.126-0.455-0.175-0.716l-0.033-0.044q0.049 0.806 0.049 1.413v3.012h-1.104v-5.444h1.796l1.112 3.227c0.079 0.22 0.147 0.482 0.191 0.752l0.027 0.026c0.072-0.318 0.147-0.579 0.234-0.833l1.090-3.175h1.75z"></path>
<path fill="#f1f2f2" d="M9.978 25.584v1.877h-1.226v-5.444h1.921q2.058 0 2.058 1.737c0.001 0.016 0.001 0.035 0.001 0.055 0 0.509-0.229 0.965-0.589 1.271-0.4 0.326-0.913 0.523-1.472 0.523-0.038 0-0.077-0.001-0.114-0.003zM9.978 22.955v1.698h0.482q0.98 0 0.98-0.858t-0.98-0.84z"></path>
<path fill="#f1f2f2" d="M16.591 27.458h-3.264v-5.444h3.139v0.998h-1.913v1.211h1.778v0.995h-1.778v1.244h2.038z"></path>
<path fill="#f1f2f2" d="M21.734 27.095c-0.534 0.291-1.169 0.461-1.845 0.461-0.049 0-0.097-0.001-0.145-0.003-0.041 0.003-0.098 0.005-0.155 0.005-0.736 0-1.407-0.277-1.914-0.733-0.468-0.475-0.758-1.131-0.758-1.855 0-0.052 0.001-0.103 0.004-0.154-0.002-0.024-0.002-0.061-0.002-0.098 0-0.777 0.317-1.48 0.829-1.987 0.538-0.504 1.263-0.813 2.060-0.813 0.054 0 0.108 0.001 0.161 0.004 0.017-0.001 0.047-0.001 0.076-0.001 0.517 0 1.013 0.088 1.475 0.249l-0.031 1.141c-0.418-0.231-0.916-0.367-1.446-0.367-0.034 0-0.067 0.001-0.101 0.002-0.014-0.001-0.035-0.001-0.057-0.001-0.463 0-0.882 0.19-1.182 0.496-0.3 0.362-0.481 0.832-0.481 1.343 0 0.484 0.162 0.929 0.435 1.286 0.273 0.279 0.659 0.456 1.086 0.456 0.026 0 0.052-0.001 0.078-0.002 0.018 0.001 0.044 0.002 0.070 0.002 0.226 0 0.442-0.046 0.637-0.13l-0.011-1.059h-1.099v-0.97h2.318z"></path>
</svg>
