<?xml version="1.0" encoding="utf-8"?>
<!-- Generated by IcoMoon.io -->
<!DOCTYPE svg PUBLIC "-//W3C//DTD SVG 1.1//EN" "http://www.w3.org/Graphics/SVG/1.1/DTD/svg11.dtd">
<svg version="1.1" xmlns="http://www.w3.org/2000/svg" xmlns:xlink="http://www.w3.org/1999/xlink" width="23" height="32" viewBox="0 0 23 32">
<path fill="#ed5858" d="M12.723 0v0h-11.808c-0.505 0-0.915 0.41-0.915 0.915v30.17c0 0.505 0.41 0.915 0.915 0.915h21.027c0.505 0 0.915-0.41 0.915-0.915v-20.946h-10.133z"></path>
<path fill="#f47878" d="M12.723 10.136h10.131l-10.131-10.131v10.131z"></path>
<path fill="#333" opacity="0.1" d="M22.857 20.27v-10.133h-10.133l10.133 10.133z"></path>
<path fill="#f1f2f2" d="M6.302 25.584v1.877h-1.226v-5.444h1.924q2.058 0 2.058 1.737c0.001 0.016 0.001 0.035 0.001 0.053 0 0.51-0.229 0.966-0.589 1.272-0.4 0.326-0.913 0.523-1.472 0.523-0.038 0-0.077-0.001-0.114-0.003zM6.302 22.955v1.698h0.482q0.993 0 0.993-0.858t-0.98-0.84z"></path>
<path fill="#f1f2f2" d="M9.651 27.461v-5.444h1.929q2.901 0 2.901 2.655c0.002 0.037 0.003 0.080 0.003 0.124 0 0.745-0.303 1.419-0.793 1.906-0.517 0.473-1.209 0.763-1.968 0.763-0.050 0-0.1-0.001-0.149-0.004zM10.888 23.012v3.45h0.596c0.027 0.002 0.059 0.003 0.090 0.003 0.454 0 0.865-0.184 1.162-0.482 0.283-0.319 0.456-0.741 0.456-1.203 0-0.033-0.001-0.065-0.003-0.098 0.002-0.022 0.003-0.053 0.003-0.084 0-0.44-0.173-0.841-0.454-1.136-0.303-0.278-0.71-0.448-1.157-0.448-0.037 0-0.074 0.001-0.11 0.003z"></path>
<path fill="#f1f2f2" d="M18.331 23.012h-1.921v1.338h1.765v0.995h-1.765v2.115h-1.226v-5.444h3.147z"></path>
</svg>
