<?xml version="1.0" encoding="utf-8"?>
<!-- Generated by IcoMoon.io -->
<!DOCTYPE svg PUBLIC "-//W3C//DTD SVG 1.1//EN" "http://www.w3.org/Graphics/SVG/1.1/DTD/svg11.dtd">
<svg version="1.1" xmlns="http://www.w3.org/2000/svg" xmlns:xlink="http://www.w3.org/1999/xlink" width="23" height="32" viewBox="0 0 23 32">
<path fill="#37c49c" d="M12.723 0v0h-11.808c-0.505 0-0.915 0.41-0.915 0.915v30.17c0 0.505 0.41 0.915 0.915 0.915h21.027c0.505 0 0.915-0.41 0.915-0.915v-20.946h-10.133z"></path>
<path fill="#4ecea6" d="M12.723 10.136h10.131l-10.131-10.131v10.131z"></path>
<path fill="#333" opacity="0.1" d="M22.214 20.27v-10.133h-10.131l10.131 10.133z"></path>
<path fill="#f1f2f2" d="M5.356 25.584v1.877h-1.226v-5.444h1.921q2.058 0 2.058 1.734c0.001 0.015 0.001 0.033 0.001 0.051 0 0.51-0.229 0.966-0.589 1.272-0.4 0.326-0.913 0.523-1.472 0.523-0.038 0-0.077-0.001-0.114-0.003zM5.356 22.955v1.698h0.482q0.98 0 0.98-0.858t-0.98-0.84z"></path>
<path fill="#f1f2f2" d="M13.602 27.461h-1.237l-2.255-3.422c-0.082-0.123-0.168-0.27-0.246-0.421l-0.029-0.027q0.031 0.288 0.031 0.881v2.992h-1.161v-5.444h1.322l2.157 3.31q0.148 0.223 0.272 0.443h0.016c-0.019-0.178-0.030-0.385-0.030-0.595 0-0.053 0.001-0.106 0.002-0.159l-0-3.005h1.159z"></path>
<path fill="#f1f2f2" d="M19.116 27.095c-0.534 0.291-1.169 0.461-1.845 0.461-0.049 0-0.097-0.001-0.145-0.003-0.041 0.003-0.097 0.005-0.153 0.005-0.737 0-1.409-0.278-1.916-0.735-0.468-0.475-0.758-1.13-0.758-1.854 0-0.052 0.002-0.104 0.004-0.155-0.002-0.024-0.002-0.061-0.002-0.097 0-0.777 0.317-1.48 0.829-1.987 0.538-0.503 1.262-0.813 2.059-0.813 0.051 0 0.102 0.001 0.152 0.004 0.018-0.001 0.047-0.001 0.076-0.001 0.517 0 1.013 0.088 1.475 0.249l-0.031 1.141c-0.418-0.231-0.916-0.367-1.446-0.367-0.034 0-0.067 0.001-0.101 0.002-0.012-0.001-0.033-0.001-0.053-0.001-0.465 0-0.885 0.192-1.186 0.501-0.299 0.362-0.48 0.831-0.48 1.342 0 0.483 0.162 0.928 0.434 1.284 0.273 0.279 0.659 0.456 1.086 0.456 0.026 0 0.052-0.001 0.078-0.002 0.018 0.001 0.044 0.002 0.070 0.002 0.226 0 0.442-0.046 0.637-0.13l-0.011-1.059h-1.089v-0.97h2.318z"></path>
</svg>
