<?xml version="1.0" encoding="utf-8"?>
<!-- Generated by IcoMoon.io -->
<!DOCTYPE svg PUBLIC "-//W3C//DTD SVG 1.1//EN" "http://www.w3.org/Graphics/SVG/1.1/DTD/svg11.dtd">
<svg version="1.1" xmlns="http://www.w3.org/2000/svg" xmlns:xlink="http://www.w3.org/1999/xlink" width="23" height="32" viewBox="0 0 23 32">
<path fill="#48b8f7" d="M12.723 0v0h-11.808c-0.505 0-0.915 0.41-0.915 0.915v30.17c0 0.505 0.41 0.915 0.915 0.915h21.027c0.505 0 0.915-0.41 0.915-0.915v-20.946h-10.133z"></path>
<path fill="#6bd0fc" d="M12.723 10.136h10.131l-10.131-10.131v10.131z"></path>
<path fill="#333" opacity="0.1" d="M22.857 20.27v-10.133h-10.133l10.133 10.133z"></path>
<path fill="#f1f2f2" d="M8.912 25.584v1.877h-1.229v-5.444h1.921q2.058 0 2.058 1.734c0.001 0.016 0.001 0.035 0.001 0.055 0 0.509-0.229 0.965-0.589 1.271-0.4 0.326-0.913 0.523-1.472 0.523-0.038 0-0.077-0.001-0.114-0.003zM8.912 22.955v1.698h0.482q0.975 0 0.975-0.858t-0.98-0.84z"></path>
<path fill="#f1f2f2" d="M12.008 27.251v-1.216c0.204 0.173 0.442 0.314 0.702 0.41 0.247 0.092 0.514 0.144 0.793 0.145 0.008 0 0.018 0 0.027 0 0.134 0 0.265-0.015 0.39-0.044 0.097-0.023 0.193-0.063 0.28-0.117 0.067-0.042 0.126-0.1 0.168-0.169 0.037-0.064 0.058-0.138 0.058-0.218 0-0.001 0-0.002 0-0.002 0-0.002 0-0.004 0-0.007 0-0.105-0.034-0.201-0.092-0.28-0.071-0.090-0.157-0.167-0.254-0.227-0.111-0.074-0.233-0.142-0.361-0.201q-0.231-0.105-0.483-0.209c-0.377-0.142-0.697-0.364-0.949-0.646-0.198-0.243-0.316-0.554-0.316-0.892 0-0.012 0-0.025 0-0.037-0-0.002-0-0.006-0-0.011 0-0.264 0.069-0.511 0.191-0.726 0.109-0.204 0.266-0.378 0.455-0.508 0.2-0.133 0.428-0.233 0.673-0.291 0.256-0.062 0.533-0.096 0.819-0.096 0.005 0 0.010 0 0.015 0 0.012-0 0.026-0 0.041-0 0.251 0 0.498 0.019 0.74 0.055 0.201 0.031 0.405 0.087 0.6 0.162l-0.020 1.129c-0.086-0.060-0.184-0.115-0.287-0.161s-0.213-0.087-0.327-0.12c-0.111-0.028-0.225-0.049-0.342-0.063-0.108-0.015-0.219-0.024-0.333-0.024-0.006-0-0.012-0-0.018-0-0.128 0-0.252 0.014-0.372 0.041-0.097 0.022-0.194 0.060-0.281 0.112-0.069 0.042-0.13 0.1-0.176 0.169-0.042 0.065-0.066 0.141-0.066 0.223 0 0.002 0 0.003 0 0.005s-0 0.004-0 0.006c0 0.089 0.027 0.173 0.074 0.242 0.056 0.079 0.124 0.147 0.201 0.201 0.095 0.068 0.2 0.131 0.311 0.185q0.202 0.099 0.443 0.198c0.231 0.096 0.424 0.193 0.608 0.303 0.147 0.087 0.294 0.203 0.423 0.335 0.12 0.124 0.217 0.272 0.282 0.435 0.066 0.171 0.102 0.359 0.102 0.555 0 0.011-0 0.023-0 0.034 0.001 0.017 0.001 0.038 0.001 0.059 0 0.262-0.065 0.509-0.179 0.725-0.111 0.197-0.269 0.365-0.46 0.489-0.204 0.129-0.436 0.224-0.685 0.273-0.256 0.055-0.536 0.085-0.822 0.085-0.007 0-0.014-0-0.021-0-0.304-0.001-0.601-0.031-0.889-0.088-0.232-0.042-0.465-0.122-0.68-0.23z"></path>
</svg>
