<?xml version="1.0" encoding="utf-8"?>
<!-- Generated by IcoMoon.io -->
<!DOCTYPE svg PUBLIC "-//W3C//DTD SVG 1.1//EN" "http://www.w3.org/Graphics/SVG/1.1/DTD/svg11.dtd">
<svg version="1.1" xmlns="http://www.w3.org/2000/svg" xmlns:xlink="http://www.w3.org/1999/xlink" width="23" height="32" viewBox="0 0 23 32">
<path fill="#38c1ba" d="M12.723 0v0h-11.808c-0.505 0-0.915 0.41-0.915 0.915v30.17c0 0.505 0.41 0.915 0.915 0.915h21.027c0.505 0 0.915-0.41 0.915-0.915v-20.946h-10.133z"></path>
<path fill="#52ccc3" d="M12.723 10.136h10.131l-10.131-10.131v10.131z"></path>
<path fill="#333" opacity="0.1" d="M22.857 20.27v-10.133h-10.133l10.133 10.133z"></path>
<path fill="#f1f2f2" d="M4.648 27.251v-1.216c0.204 0.171 0.442 0.309 0.702 0.402 0.247 0.092 0.514 0.143 0.793 0.145 0.008 0 0.018 0 0.027 0 0.134 0 0.265-0.015 0.39-0.044 0.097-0.023 0.193-0.063 0.28-0.117 0.067-0.042 0.126-0.1 0.168-0.169 0.037-0.064 0.058-0.138 0.058-0.218 0-0.001 0-0.002 0-0.002 0-0.002 0-0.004 0-0.007 0-0.105-0.034-0.201-0.092-0.28-0.071-0.090-0.157-0.167-0.254-0.227-0.111-0.074-0.233-0.142-0.361-0.201q-0.234-0.105-0.483-0.209c-0.377-0.141-0.696-0.36-0.95-0.641-0.197-0.243-0.316-0.554-0.316-0.892 0-0.012 0-0.025 0-0.037-0-0.003-0-0.008-0-0.013 0-0.262 0.068-0.508 0.188-0.721 0.109-0.204 0.266-0.378 0.455-0.508 0.2-0.133 0.428-0.233 0.673-0.291 0.256-0.062 0.533-0.096 0.819-0.096 0.005 0 0.010 0 0.015 0 0.012-0 0.026-0 0.041-0 0.251 0 0.498 0.019 0.74 0.055 0.201 0.031 0.405 0.087 0.6 0.162l-0.020 1.129c-0.086-0.060-0.184-0.115-0.287-0.161s-0.213-0.087-0.327-0.12c-0.11-0.031-0.225-0.056-0.343-0.073-0.11-0.016-0.221-0.024-0.334-0.025-0.006-0-0.012-0-0.019-0-0.128 0-0.252 0.014-0.372 0.041-0.097 0.022-0.194 0.060-0.281 0.112-0.069 0.042-0.13 0.1-0.176 0.169-0.042 0.065-0.066 0.141-0.066 0.223 0 0.002 0 0.003 0 0.005s-0 0.004-0 0.006c0 0.089 0.027 0.173 0.074 0.242 0.056 0.079 0.124 0.147 0.201 0.201 0.095 0.068 0.2 0.131 0.311 0.185q0.202 0.099 0.443 0.198c0.231 0.096 0.424 0.193 0.608 0.303 0.147 0.087 0.294 0.203 0.423 0.335 0.12 0.124 0.217 0.272 0.282 0.435 0.066 0.171 0.102 0.359 0.102 0.555 0 0.011-0 0.023-0 0.034 0.001 0.017 0.001 0.038 0.001 0.059 0 0.262-0.065 0.509-0.179 0.725-0.111 0.197-0.269 0.365-0.46 0.489-0.203 0.133-0.434 0.231-0.682 0.284-0.257 0.055-0.536 0.085-0.823 0.085-0.007 0-0.014-0-0.021-0-0.006 0-0.014 0-0.022 0-0.293 0-0.58-0.027-0.859-0.080-0.234-0.045-0.469-0.127-0.686-0.238z"></path>
<path fill="#f1f2f2" d="M13.589 22.014l-1.877 5.444h-1.389l-1.854-5.444h1.322l1.135 3.79c0.051 0.157 0.089 0.341 0.108 0.53l0.024 0.011c0.024-0.209 0.065-0.398 0.123-0.579l1.122-3.753z"></path>
<path fill="#f1f2f2" d="M18.346 27.095c-0.534 0.291-1.169 0.461-1.845 0.461-0.049 0-0.097-0.001-0.145-0.003-0.041 0.003-0.098 0.005-0.154 0.005-0.736 0-1.407-0.277-1.915-0.733-0.468-0.475-0.758-1.131-0.758-1.855 0-0.052 0.001-0.103 0.004-0.154-0.002-0.024-0.002-0.061-0.002-0.098 0-0.777 0.317-1.48 0.829-1.987 0.538-0.503 1.262-0.813 2.059-0.813 0.051 0 0.102 0.001 0.152 0.004 0.018-0.001 0.047-0.001 0.076-0.001 0.517 0 1.013 0.088 1.475 0.249l-0.031 1.141c-0.418-0.231-0.916-0.367-1.446-0.367-0.034 0-0.067 0.001-0.101 0.002-0.016-0.001-0.041-0.002-0.066-0.002-0.463 0-0.881 0.19-1.181 0.496-0.3 0.363-0.481 0.832-0.481 1.343 0 0.484 0.162 0.929 0.435 1.286 0.273 0.279 0.659 0.456 1.086 0.456 0.026 0 0.052-0.001 0.078-0.002 0.018 0.001 0.044 0.002 0.070 0.002 0.226 0 0.442-0.046 0.637-0.13l-0.011-1.059h-1.089v-0.97h2.318z"></path>
</svg>
