<?xml version="1.0" encoding="utf-8"?>
<!-- Generated by IcoMoon.io -->
<!DOCTYPE svg PUBLIC "-//W3C//DTD SVG 1.1//EN" "http://www.w3.org/Graphics/SVG/1.1/DTD/svg11.dtd">
<svg version="1.1" xmlns="http://www.w3.org/2000/svg" xmlns:xlink="http://www.w3.org/1999/xlink" width="23" height="32" viewBox="0 0 23 32">
<path fill="#c5d873" d="M12.723 0v0h-11.808c-0.505 0-0.915 0.41-0.915 0.915v30.17c0 0.505 0.41 0.915 0.915 0.915h21.027c0.505 0 0.915-0.41 0.915-0.915v-20.946h-10.133z"></path>
<path fill="#d4e089" d="M12.723 10.136h10.131l-10.131-10.131v10.131z"></path>
<path fill="#333" opacity="0.1" d="M22.857 20.27v-10.133h-10.133l10.133 10.133z"></path>
<path fill="#f1f2f2" d="M8.762 23.012h-1.555v4.446h-1.229v-4.446h-1.555v-0.998h4.34z"></path>
<path fill="#f1f2f2" d="M13.496 27.461h-1.338l-0.386-1.211h-1.937l-0.384 1.211h-1.33l1.983-5.444h1.454zM11.492 25.307l-0.586-1.83c-0.044-0.143-0.076-0.31-0.090-0.481l-0.032-0.008c-0.015 0.175-0.049 0.336-0.1 0.489l-0.574 1.831z"></path>
<path fill="#f1f2f2" d="M18.543 27.461h-1.41l-0.848-1.402q-0.096-0.161-0.181-0.285c-0.055-0.080-0.113-0.151-0.177-0.215-0.053-0.055-0.114-0.1-0.182-0.135-0.064-0.031-0.134-0.049-0.208-0.049-0.002 0-0.004 0-0.006 0h-0.332v2.074h-1.226v-5.444h1.944q1.983 0 1.983 1.48c0 0.002 0 0.004 0 0.007 0 0.183-0.032 0.359-0.092 0.522-0.061 0.157-0.149 0.301-0.257 0.427-0.108 0.129-0.235 0.24-0.378 0.329-0.151 0.094-0.318 0.17-0.496 0.221l-0.014 0.019c0.090 0.030 0.169 0.072 0.238 0.126 0.080 0.061 0.152 0.126 0.218 0.197 0.070 0.075 0.136 0.154 0.198 0.237q0.101 0.14 0.182 0.267zM15.199 22.935v1.514h0.531c0.013 0.001 0.027 0.001 0.042 0.001 0.229 0 0.437-0.087 0.594-0.23 0.149-0.139 0.243-0.337 0.243-0.557 0-0.005-0-0.011-0-0.016q0-0.712-0.853-0.712z"></path>
</svg>
