<?xml version="1.0" encoding="utf-8"?>
<!-- Generated by IcoMoon.io -->
<!DOCTYPE svg PUBLIC "-//W3C//DTD SVG 1.1//EN" "http://www.w3.org/Graphics/SVG/1.1/DTD/svg11.dtd">
<svg version="1.1" xmlns="http://www.w3.org/2000/svg" xmlns:xlink="http://www.w3.org/1999/xlink" width="23" height="32" viewBox="0 0 23 32">
<path fill="#ffc35a" d="M12.723 0v0h-11.808c-0.505 0-0.915 0.41-0.915 0.915v30.17c0 0.505 0.41 0.915 0.915 0.915h21.027c0.505 0 0.915-0.41 0.915-0.915v-20.946h-10.133z"></path>
<path fill="#ffce88" d="M12.723 10.136h10.131l-10.131-10.131v10.131z"></path>
<path fill="#333" opacity="0.1" d="M22.857 20.27v-10.133h-10.133l10.133 10.133z"></path>
<path fill="#f1f2f2" d="M8.723 23.012h-1.555v4.446h-1.226v-4.446h-1.535v-0.998h4.329z"></path>
<path fill="#f1f2f2" d="M10.937 22.014v0.949h-0.456v3.546h0.456v0.949h-2.139v-0.949h0.456v-3.546h-0.456v-0.949z"></path>
<path fill="#f1f2f2" d="M14.665 23.012h-1.921v1.338h1.773v0.995h-1.773v2.115h-1.226v-5.444h3.147z"></path>
<path fill="#f1f2f2" d="M18.507 23.012h-1.916v1.338h1.765v0.995h-1.765v2.115h-1.231v-5.444h3.147z"></path>
</svg>
