<?xml version="1.0" encoding="utf-8"?>
<!-- Generated by IcoMoon.io -->
<!DOCTYPE svg PUBLIC "-//W3C//DTD SVG 1.1//EN" "http://www.w3.org/Graphics/SVG/1.1/DTD/svg11.dtd">
<svg version="1.1" xmlns="http://www.w3.org/2000/svg" xmlns:xlink="http://www.w3.org/1999/xlink" width="23" height="32" viewBox="0 0 23 32">
<path fill="#998c7a" d="M12.723 0v0h-11.808c-0.505 0-0.915 0.41-0.915 0.915v30.17c0 0.505 0.41 0.915 0.915 0.915h21.027c0.505 0 0.915-0.41 0.915-0.915v-20.946h-10.133z"></path>
<path fill="#a3978d" d="M12.723 10.136h10.131l-10.131-10.131v10.131z"></path>
<path fill="#333" opacity="0.1" d="M22.857 20.27v-10.133h-10.133l10.133 10.133z"></path>
<path fill="#f1f2f2" d="M8.975 23.012h-1.555v4.446h-1.226v-4.446h-1.555v-0.998h4.329z"></path>
<path fill="#f1f2f2" d="M13.931 27.461h-1.454l-0.938-1.773c-0.048-0.105-0.085-0.228-0.108-0.356l-0.025-0.009c-0.038 0.149-0.080 0.275-0.131 0.397l-0.934 1.739h-1.457l1.745-2.722-1.587-2.722h1.483l0.778 1.633c0.061 0.129 0.117 0.283 0.159 0.442l0.020 0.020q0.047-0.161 0.171-0.474l0.866-1.618h1.366l-1.633 2.699z"></path>
<path fill="#f1f2f2" d="M18.328 23.012h-1.555v4.446h-1.218v-4.446h-1.555v-0.998h4.329z"></path>
</svg>
