<?xml version="1.0" encoding="utf-8"?>
<!-- Generated by IcoMoon.io -->
<!DOCTYPE svg PUBLIC "-//W3C//DTD SVG 1.1//EN" "http://www.w3.org/Graphics/SVG/1.1/DTD/svg11.dtd">
<svg version="1.1" xmlns="http://www.w3.org/2000/svg" xmlns:xlink="http://www.w3.org/1999/xlink" width="23" height="32" viewBox="0 0 23 32">
<path fill="#37c49c" d="M12.723 0v0h-11.808c-0.505 0-0.915 0.41-0.915 0.915v30.17c0 0.505 0.41 0.915 0.915 0.915h21.027c0.505 0 0.915-0.41 0.915-0.915v-20.946h-10.133z"></path>
<path fill="#4ecea6" d="M12.723 10.136h10.131l-10.131-10.131v10.131z"></path>
<path fill="#333" opacity="0.1" d="M22.857 20.27v-10.131l-0.003-0.003h-10.131l10.133 10.134z"></path>
<path fill="#f1f2f2" d="M10.52 22.014l-1.439 5.444h-1.361l-0.905-3.492c-0.044-0.183-0.072-0.393-0.075-0.609l-0.026-0.003c-0.018 0.227-0.053 0.435-0.104 0.637l-0.92 3.469h-1.418l-1.421-5.447h1.34l0.778 3.629c0.036 0.181 0.062 0.395 0.072 0.613l0.024 0.009c0.015-0.233 0.053-0.451 0.114-0.659l0.982-3.59h1.314l0.871 3.647c0.038 0.165 0.069 0.365 0.087 0.569l0.017 0.017c0.012-0.223 0.041-0.43 0.085-0.633l0.747-3.603z"></path>
<path fill="#f1f2f2" d="M15.515 27.461h-1.335l-0.386-1.211h-1.939l-0.384 1.211h-1.33l1.983-5.444h1.454zM13.511 25.309l-0.586-1.83c-0.044-0.143-0.076-0.31-0.090-0.481l-0.032-0.009c-0.017 0.174-0.053 0.334-0.105 0.486l-0.589 1.831z"></path>
<path fill="#f1f2f2" d="M20.083 22.014l-1.877 5.444h-1.389l-1.854-5.444h1.322l1.135 3.79c0.051 0.158 0.089 0.343 0.108 0.533l0.024 0.011c0.025-0.209 0.067-0.398 0.125-0.579l1.122-3.753z"></path>
</svg>
