<?xml version="1.0" encoding="utf-8"?>
<!-- Generated by IcoMoon.io -->
<!DOCTYPE svg PUBLIC "-//W3C//DTD SVG 1.1//EN" "http://www.w3.org/Graphics/SVG/1.1/DTD/svg11.dtd">
<svg version="1.1" xmlns="http://www.w3.org/2000/svg" xmlns:xlink="http://www.w3.org/1999/xlink" width="23" height="32" viewBox="0 0 23 32">
<path fill="#38c1ba" d="M12.723 0v0h-11.808c-0.505 0-0.915 0.41-0.915 0.915v30.17c0 0.505 0.41 0.915 0.915 0.915h21.027c0.505 0 0.915-0.41 0.915-0.915v-20.946h-10.133z"></path>
<path fill="#52ccc3" d="M12.723 10.136h10.131l-10.131-10.131v10.131z"></path>
<path fill="#333" opacity="0.1" d="M22.857 20.27v-10.133h-10.133l10.133 10.133z"></path>
<path fill="#f1f2f2" d="M10.279 27.461h-4.386v-0.708l2.792-3.741h-2.592v-0.998h4.179v0.687l-2.73 3.764h2.738z"></path>
<path fill="#f1f2f2" d="M12.56 22.014v0.949h-0.456v3.546h0.456v0.949h-2.139v-0.949h0.467v-3.546h-0.467v-0.949z"></path>
<path fill="#f1f2f2" d="M14.367 25.584v1.877h-1.226v-5.444h1.921q2.058 0 2.058 1.734c0.001 0.016 0.001 0.035 0.001 0.055 0 0.509-0.229 0.965-0.59 1.271-0.4 0.326-0.913 0.523-1.472 0.523-0.038 0-0.077-0.001-0.114-0.003zM14.367 22.955v1.698h0.482q0.98 0 0.98-0.858t-0.98-0.84z"></path>
</svg>
