<svg xmlns="http://www.w3.org/2000/svg" viewBox="0 0 58.7 38.7"><path fill="#ffffff" d="M27.9,34.5c-11.6,1.1-23.7-0.6-25.4-9.7c-0.8-4.5,1.2-9.2,3.9-12.2v-1.6c-4.9,4.3-7.5,9.7-6,16.1 C2.4,35.4,12.8,40,28.6,38.5c6.3-0.6,14.5-2.6,20.2-5.8v-4.4C43.6,31.3,35,33.9,27.9,34.5z M58.5,11C55.7-2.4,29.6-3.3,12.8,6.9v1.1 c16.8-8.6,40.7-8.6,42.8,3.8c0.7,4.1-1.6,8.4-5.7,10.8v3.2C54.9,24.1,60,18.2,58.5,11z M47.9,25.8c-2.3-0.2-3-1.6-3-3.2V9.1h3V25.8z M11.6,26c-2.3-0.2-3-1.6-3-3.2l0-8.9h3V26z M11.6,9.5v2.9h-3V9.5H11.6z M29.8,25.9c-2.5,0-3.5-1.7-3.5-3.4V10.7h3V14h2.3v2.4h-2.3 v5.9c0,0.7,0.3,1.1,1,1.1h1.2v2.5H29.8 M35.4,20.9c0,1.5,1,2.7,2.7,2.7c1.3,0,2-0.4,2.8-1.1l1.9,1.8c-1.2,1.2-2.4,1.9-4.7,1.9 c-2.9,0-5.7-1.6-5.7-6.2c0-3.9,2.4-6.2,5.6-6.2c3.2,0,5.1,2.6,5.1,6v1.1H35.4 M37.8,16.3c-1,0-1.8,0.5-2.2,1.3 c-0.2,0.4-0.3,0.8-0.3,1.3H40C40,17.5,39.4,16.3,37.8,16.3z M17.3,16.4v9.5h-3V14l6.2,0c2.6,0,3.6,1.9,3.6,3.6v8.4h-3v-8.3 c0-0.7-0.4-1.1-1.3-1.1H17.3z M51.1,11.5c-0.7,0-1.2-0.5-1.2-1.2c0-0.7,0.5-1.2,1.2-1.2c0.7,0,1.2,0.5,1.2,1.2 C52.3,10.9,51.8,11.5,51.1,11.5z M51.1,9.2c-0.6,0-1,0.5-1,1c0,0.6,0.4,1,1,1c0.6,0,1-0.4,1-1C52.1,9.7,51.7,9.2,51.1,9.2z M51.7,11 h-0.2c0,0,0,0,0,0l-0.3-0.5l0,0c0,0-0.1,0-0.1,0c0,0,0,0,0,0l0,0.5c0,0,0,0.1-0.1,0.1h-0.2c0,0,0,0,0-0.1V9.6c0-0.1,0-0.1,0.1-0.1 c0.1,0,0.3,0,0.4,0c0.4,0,0.6,0.1,0.6,0.5v0c0,0.2-0.1,0.3-0.3,0.4L51.7,11C51.7,10.9,51.7,10.9,51.7,11C51.7,11,51.7,11,51.7,11z M51.4,9.9c0-0.1-0.1-0.2-0.3-0.2c0,0-0.1,0-0.1,0c0,0,0,0,0,0l0,0.4c0,0,0.2,0,0.2,0C51.3,10.2,51.4,10.1,51.4,9.9L51.4,9.9z"/></svg>
