<svg xmlns="http://www.w3.org/2000/svg" viewBox="0 0 447.83 100"><title>logo</title><path d="M132.62,31.43h7.16l19.55,24.09h.14V31.43h7.16V67.08h-7.16L139.91,43h-.14V67.08h-7.16Z" fill="#fff"/><path d="M217.68,31.43v7.16H193.18v6.47h12.94v7.16H193.18v7.71h25.33v7.16H186V31.43Z" fill="#fff"/><path d="M247.28,31.43h7.92l14.58,35.65H263l-3-7.5H242.63l-3,7.5h-6.77Zm-1.72,21H257l-5.74-14Z" fill="#fff"/><path d="M302.54,31.43c6.6,0,12.87,2.48,12.87,10.53,0,6.81-4.61,9.29-8,10.53l9,14.59h-9l-9-14.52H287V67.08h-7.16V31.43ZM287,38.58V45.4h15.56c2.13,0,5.71-.27,5.71-3.44s-3.23-3.37-5.71-3.37Z" fill="#fff"/><path d="M363.93,44.37h-.14V67.08h-7.16V31.43h7.16l12.53,17.9,12.53-17.9H396V67.08h-7.16V44.37h-.14L376.32,62.26Z" fill="#fff"/><path d="M447,31.43v7.16H422.5v6.47h12.94v7.16H422.5v7.71h25.33v7.16H415.34V31.43Z" fill="#fff"/><path d="M0,0V100H94V0ZM65.75,67.94H58.6L39,43.84h-.14V67.94H31.75V32.28h7.16L58.46,56.37h.14V32.28h7.16Z" fill="#fff"/></svg>