<?xml version="1.0" encoding="utf-8"?>
<!-- Generator: Adobe Illustrator 16.0.0, SVG Export Plug-In . SVG Version: 6.00 Build 0)  -->
<!DOCTYPE svg PUBLIC "-//W3C//DTD SVG 1.1//EN" "http://www.w3.org/Graphics/SVG/1.1/DTD/svg11.dtd">
<svg version="1.1" id="Layer_1" xmlns="http://www.w3.org/2000/svg" xmlns:xlink="http://www.w3.org/1999/xlink" x="0px" y="0px"
	 width="13.625px" height="19.301px" viewBox="0 0 13.625 19.301" enable-background="new 0 0 13.625 19.301" xml:space="preserve">
<g>
	<g>
		<path fill="#BA2025" d="M6.815,19.052c-0.342,0-0.639-0.228-0.907-0.694L1.305,10.35c-0.322-0.536-0.58-1.101-0.77-1.682
			c-0.19-0.575-0.286-1.19-0.286-1.83c0-0.905,0.172-1.769,0.513-2.566c0.339-0.798,0.813-1.504,1.41-2.101
			c0.595-0.594,1.301-1.068,2.099-1.408C5.068,0.423,5.927,0.25,6.825,0.25c0.907,0,1.766,0.172,2.551,0.512
			c0.793,0.339,1.494,0.812,2.087,1.408c0.592,0.597,1.062,1.304,1.398,2.101c0.342,0.797,0.514,1.66,0.514,2.566
			c0,0.647-0.096,1.269-0.284,1.85c-0.188,0.585-0.446,1.151-0.766,1.681l-4.582,7.989C7.463,18.823,7.159,19.052,6.815,19.052z"/>
		<path fill="#662C30" d="M6.825,0.5c0.874,0,1.698,0.165,2.454,0.492c0.762,0.326,1.438,0.782,2.006,1.354
			c0.568,0.574,1.021,1.255,1.349,2.024c0.326,0.765,0.492,1.595,0.492,2.468c0,0.621-0.092,1.217-0.271,1.772
			c-0.185,0.567-0.435,1.116-0.748,1.639l-4.574,7.976c-0.23,0.383-0.471,0.577-0.716,0.577c-0.09,0-0.364,0-0.69-0.569L1.52,10.217
			C1.208,9.7,0.958,9.153,0.773,8.588C0.592,8.039,0.5,7.45,0.5,6.837c0-0.872,0.166-1.702,0.493-2.468
			C1.32,3.601,1.776,2.921,2.349,2.347C2.921,1.776,3.601,1.32,4.37,0.993C5.135,0.666,5.961,0.5,6.825,0.5 M6.825,0
			C5.894,0,5.007,0.177,4.173,0.533C3.341,0.887,2.614,1.375,1.996,1.994c-0.621,0.621-1.109,1.348-1.463,2.18
			C0.177,5.006,0,5.896,0,6.837c0,0.668,0.099,1.304,0.298,1.907c0.197,0.605,0.46,1.18,0.791,1.729l4.603,8.008
			c0.313,0.547,0.688,0.82,1.124,0.82c0.434,0,0.816-0.273,1.145-0.82l4.579-7.983c0.329-0.547,0.593-1.125,0.79-1.733
			s0.296-1.252,0.296-1.927c0-0.941-0.177-1.831-0.532-2.664c-0.353-0.832-0.838-1.559-1.453-2.18
			c-0.615-0.618-1.336-1.106-2.164-1.461C8.652,0.177,7.77,0,6.825,0L6.825,0z"/>
	</g>
</g>
</svg>
